<svg width="20" height="20" viewBox="0 0 20 20" fill="none" xmlns="http://www.w3.org/2000/svg">
<path fill-rule="evenodd" clip-rule="evenodd" d="M0.802734 11.9292C0.802734 11.539 1.15939 11.2227 1.59935 11.2227H4.01947C4.45942 11.2227 4.81608 11.539 4.81608 11.9292V16.9375C4.81608 17.3277 4.45942 17.644 4.01947 17.644H1.59935C1.15939 17.644 0.802734 17.3277 0.802734 16.9375V11.9292ZM2.39596 12.6357V16.231H3.22285V12.6357H2.39596Z" fill="#FF9500"/>
<path fill-rule="evenodd" clip-rule="evenodd" d="M15.3867 8.89837C15.3867 8.45507 15.7461 8.0957 16.1894 8.0957H19.1965C19.6398 8.0957 19.9992 8.45507 19.9992 8.89837C19.9992 9.34167 19.6398 9.70104 19.1965 9.70104H16.1894C15.7461 9.70104 15.3867 9.34167 15.3867 8.89837Z" fill="#FF9500"/>
<path fill-rule="evenodd" clip-rule="evenodd" d="M15.4852 11.8007C15.6977 11.4117 16.1854 11.2687 16.5744 11.4813L19.2478 12.9421C19.6368 13.1546 19.7798 13.6423 19.5672 14.0313C19.3547 14.4203 18.867 14.5634 18.478 14.3508L15.8046 12.89C15.4156 12.6774 15.2726 12.1898 15.4852 11.8007Z" fill="#FF9500"/>
<path fill-rule="evenodd" clip-rule="evenodd" d="M19.5674 3.76786C19.7798 4.15697 19.6366 4.64459 19.2474 4.85698L16.5741 6.31618C16.185 6.52857 15.6974 6.38531 15.485 5.9962C15.2726 5.60709 15.4159 5.11948 15.805 4.90709L18.4783 3.44788C18.8674 3.23549 19.355 3.37875 19.5674 3.76786Z" fill="#FF9500"/>
<path fill-rule="evenodd" clip-rule="evenodd" d="M13.1625 2.5C13.4123 2.64298 13.5665 2.90879 13.5665 3.19664V15.1578C13.5665 15.4622 13.3942 15.7404 13.1217 15.8762C12.8492 16.012 12.5233 15.9819 12.2803 15.7985C10.9556 14.7989 9.01827 13.9816 7.35658 13.4071C6.53605 13.1234 5.8021 12.9054 5.27377 12.7584C5.00986 12.685 4.79792 12.6295 4.65291 12.5926C4.60018 12.5792 4.55632 12.5683 4.52207 12.5598H0.802669C0.359367 12.5598 0 12.2004 0 11.7571V6.45239C0 6.00909 0.359367 5.64973 0.802669 5.64973H4.5648C6.09666 5.43963 8.01298 4.68147 9.60367 3.93491C10.3962 3.56296 11.0872 3.2039 11.5799 2.93792C11.8259 2.80506 12.0219 2.69576 12.1557 2.6201C12.2225 2.58228 12.2737 2.5529 12.3078 2.53321L12.346 2.51112L12.355 2.50584L12.357 2.50469M4.61814 11.7571C4.80191 10.9758 4.80203 10.9758 4.80217 10.9758L4.80739 10.9771L4.82048 10.9802L4.86877 10.9919C4.91055 11.0021 4.97121 11.0171 5.04886 11.0369C5.20414 11.0764 5.42755 11.1349 5.70394 11.2118C6.25622 11.3654 7.02263 11.5931 7.88114 11.8899C9.14099 12.3254 10.6431 12.9246 11.9611 13.6783V4.55383C11.497 4.79811 10.9234 5.08888 10.2857 5.38815C8.65681 6.15265 6.52487 7.01394 4.72162 7.24837C4.68731 7.25283 4.65274 7.25506 4.61814 7.25506H1.60534V10.9545H4.61814C4.68001 10.9545 4.74194 10.9617 4.80217 10.9758L4.61814 11.7571Z" fill="#FF9500"/>
<path fill-rule="evenodd" clip-rule="evenodd" d="M4.789 5.58398C5.2323 5.58398 5.59167 5.94335 5.59167 6.38665V11.1711C5.59167 11.6144 5.2323 11.9738 4.789 11.9738C4.3457 11.9738 3.98633 11.6144 3.98633 11.1711V6.38665C3.98633 5.94335 4.3457 5.58398 4.789 5.58398Z" fill="#FF9500"/>
</svg>
