<svg width="14" height="14" viewBox="0 0 14 14" fill="none" xmlns="http://www.w3.org/2000/svg">
<circle cx="7" cy="7" r="7" fill="#2B3843"/>
<path fill-rule="evenodd" clip-rule="evenodd" d="M6.97081 2.46289L8.54512 3.21582C8.64794 3.26499 8.69142 3.38821 8.64225 3.49103C8.59308 3.59384 8.46986 3.63733 8.36704 3.58816L6.97484 2.92232L5.64636 3.58657C5.54442 3.63754 5.42046 3.59622 5.36949 3.49428C5.31852 3.39234 5.35984 3.26838 5.46178 3.21741L6.97081 2.46289Z" fill="white"/>
<path fill-rule="evenodd" clip-rule="evenodd" d="M7.03895 11.7578L5.46465 11.0049C5.36183 10.9557 5.31834 10.8325 5.36752 10.7297C5.41669 10.6269 5.5399 10.5834 5.64272 10.6325L7.03492 11.2984L8.36341 10.6341C8.46535 10.5832 8.58931 10.6245 8.64028 10.7264C8.69125 10.8284 8.64993 10.9523 8.54799 11.0033L7.03895 11.7578Z" fill="white"/>
<path fill-rule="evenodd" clip-rule="evenodd" d="M6.97199 2.61523C7.08596 2.61523 7.17836 2.70763 7.17836 2.8216V4.43383C7.17836 4.5478 7.08596 4.6402 6.97199 4.6402C6.85802 4.6402 6.76562 4.5478 6.76562 4.43383V2.8216C6.76562 2.70763 6.85802 2.61523 6.97199 2.61523Z" fill="white"/>
<path fill-rule="evenodd" clip-rule="evenodd" d="M6.97137 11.6055C6.8574 11.6055 6.765 11.5131 6.765 11.3991L6.765 9.78687C6.765 9.6729 6.8574 9.58051 6.97137 9.58051C7.08534 9.58051 7.17773 9.6729 7.17773 9.78687L7.17773 11.3991C7.17773 11.5131 7.08534 11.6055 6.97137 11.6055Z" fill="white"/>
<path fill-rule="evenodd" clip-rule="evenodd" d="M2.9519 4.68986L4.40443 3.79621C4.5015 3.73648 4.62861 3.76676 4.68833 3.86383C4.74806 3.9609 4.71778 4.08801 4.62071 4.14773L3.36469 4.92049L3.36504 6.42188C3.36507 6.53585 3.2727 6.62827 3.15873 6.6283C3.04476 6.62832 2.95234 6.53595 2.95231 6.42198L2.9519 4.68986Z" fill="white"/>
<path fill-rule="evenodd" clip-rule="evenodd" d="M3.08187 4.78541C3.12846 4.6814 3.25055 4.63485 3.35456 4.68144L4.6616 5.26688C4.76562 5.31347 4.81217 5.43556 4.76558 5.53957C4.71899 5.64359 4.5969 5.69014 4.49289 5.64355L3.18585 5.05811C3.08183 5.01152 3.03528 4.88943 3.08187 4.78541Z" fill="white"/>
<path fill-rule="evenodd" clip-rule="evenodd" d="M2.95192 9.45467L4.40448 10.3483C4.50155 10.408 4.62866 10.3778 4.68838 10.2807C4.7481 10.1836 4.71782 10.0565 4.62075 9.9968L3.36471 9.22405L3.36506 7.72265C3.36509 7.60868 3.27272 7.51626 3.15874 7.51624C3.04477 7.51621 2.95236 7.60858 2.95233 7.72255L2.95192 9.45467Z" fill="white"/>
<path fill-rule="evenodd" clip-rule="evenodd" d="M3.08187 9.35912C3.12846 9.46313 3.25055 9.50968 3.35457 9.4631L4.66163 8.87765C4.76565 8.83106 4.8122 8.70898 4.76561 8.60496C4.71902 8.50095 4.59693 8.4544 4.49291 8.50098L3.18585 9.08643C3.08183 9.13301 3.03528 9.2551 3.08187 9.35912Z" fill="white"/>
<path fill-rule="evenodd" clip-rule="evenodd" d="M10.9934 9.45467L9.54082 10.3483C9.44375 10.408 9.31664 10.3778 9.25692 10.2807C9.1972 10.1836 9.22747 10.0565 9.32455 9.9968L10.5806 9.22405L10.5802 7.72265C10.5802 7.60868 10.6726 7.51627 10.7866 7.51624C10.9005 7.51621 10.993 7.60858 10.993 7.72255L10.9934 9.45467Z" fill="white"/>
<path fill-rule="evenodd" clip-rule="evenodd" d="M10.8634 9.35912C10.8169 9.46313 10.6948 9.50968 10.5907 9.46309L9.28367 8.87765C9.17965 8.83106 9.1331 8.70898 9.17969 8.60496C9.22628 8.50095 9.34838 8.4544 9.45239 8.50099L10.7595 9.08643C10.8635 9.13301 10.91 9.2551 10.8634 9.35912Z" fill="white"/>
<path fill-rule="evenodd" clip-rule="evenodd" d="M10.9934 4.68986L9.54084 3.79621C9.44376 3.73648 9.31666 3.76676 9.25693 3.86383C9.19721 3.9609 9.22749 4.08801 9.32456 4.14773L10.5806 4.92049L10.5802 6.42188C10.5802 6.53585 10.6726 6.62827 10.7866 6.62829C10.9005 6.62832 10.993 6.53595 10.993 6.42198L10.9934 4.68986Z" fill="white"/>
<path fill-rule="evenodd" clip-rule="evenodd" d="M10.8634 4.78541C10.8169 4.6814 10.6948 4.63485 10.5907 4.68144L9.28368 5.26688C9.17967 5.31347 9.13311 5.43555 9.1797 5.53957C9.2263 5.64358 9.34839 5.69014 9.4524 5.64355L10.7595 5.05811C10.8635 5.01152 10.91 4.88943 10.8634 4.78541Z" fill="white"/>
<path fill-rule="evenodd" clip-rule="evenodd" d="M5.24058 5.69615C5.29155 5.59421 5.41551 5.55289 5.51745 5.60386L6.9709 6.33059L8.3607 5.60548C8.46174 5.55276 8.58639 5.59194 8.63911 5.69298C8.69183 5.79403 8.65266 5.91868 8.55161 5.9714L7.17927 6.68741V8.11005C7.17927 8.22403 7.08687 8.31642 6.9729 8.31642C6.85893 8.31642 6.76654 8.22403 6.76654 8.11005V6.68985L5.33287 5.97302C5.23093 5.92205 5.18961 5.79809 5.24058 5.69615Z" fill="white"/>
</svg>
