<svg width="14" height="14" viewBox="0 0 14 14" fill="none" xmlns="http://www.w3.org/2000/svg">
<circle cx="7" cy="7" r="7" fill="#2B3843"/>
<path d="M4.6776 5.44465C4.02322 5.44718 3.50744 4.94375 3.50072 4.29654C3.49358 3.64512 4.02154 3.10965 4.66878 3.11133C5.303 3.11302 5.82633 3.62741 5.83389 4.25607C5.84187 4.92267 5.33618 5.44212 4.67718 5.44465H4.6776Z" fill="white"/>
<path d="M11.1368 9.02473C10.3376 7.82251 9.53261 6.62391 8.72602 5.42611C8.39096 4.92834 7.8261 4.93196 7.48734 5.43054C7.19176 5.86599 6.90069 6.30426 6.60757 6.74172C6.29554 7.20693 5.98639 7.67334 5.67065 8.13613C5.54362 8.3227 5.49347 8.31787 5.36643 8.1293C5.24228 7.94474 5.12223 7.75697 4.99356 7.57523C4.714 7.18079 4.15983 7.14782 3.87575 7.53663C3.50164 8.04848 3.15097 8.57842 2.81509 9.1156C2.58775 9.47948 2.79741 9.95796 3.21099 10.0701C3.33391 10.1035 3.46793 10.1087 3.59702 10.1087C5.85812 10.1107 8.11922 10.1107 10.3803 10.1087C10.4819 10.1087 10.5834 10.0906 10.6854 10.081C10.7084 10.0786 10.7318 10.0762 10.7548 10.0742C11.2502 9.93825 11.4286 9.46501 11.1359 9.02473H11.1368Z" fill="white"/>
</svg>
