<svg width="24" height="24" viewBox="0 0 24 24" fill="none" xmlns="http://www.w3.org/2000/svg">
<path fill-rule="evenodd" clip-rule="evenodd" d="M5.21929 4.82609C5.18154 4.82422 5.1631 4.82692 5.16309 4.82687C5.16309 4.82686 5.16272 4.82694 5.16309 4.82687C4.67435 4.91738 4.20533 4.59444 4.11482 4.10569C4.0243 3.61695 4.34714 3.14737 4.83588 3.05686C5.40635 2.95121 6.1589 3.11131 6.78143 3.54148C7.34922 3.93381 7.82051 4.55629 8.00009 5.42249H18.6199C19.0704 5.42249 19.7342 5.55247 20.2899 5.98857C20.9008 6.468 21.2781 7.2392 21.1858 8.27304C21.185 8.28293 21.1839 8.2928 21.1827 8.30266C21.0848 9.1003 20.9194 10.0262 20.7958 10.7178C20.7476 10.9879 20.7057 11.2223 20.6767 11.3992C20.559 12.1187 20.164 12.842 19.6013 13.3878C19.0306 13.9414 18.2312 14.3645 17.2843 14.3645H9.08322C9.21304 14.7087 9.37684 14.9666 9.64322 15.162C9.9579 15.3928 10.5395 15.6254 11.6779 15.6254H18.3457C18.8428 15.6254 19.2457 16.0284 19.2457 16.5254C19.2457 17.0225 18.8428 17.4254 18.3457 17.4254H11.6779C10.312 17.4254 9.30753 17.148 8.57875 16.6135C7.84136 16.0727 7.51114 15.3595 7.31652 14.7648C7.23035 14.5015 7.14925 14.0908 7.0732 13.6197C7.07192 13.6124 7.07074 13.605 7.06964 13.5976C7.04853 13.4661 7.0278 13.3299 7.00747 13.1911C6.9088 12.5175 6.80835 11.6981 6.71385 10.8426C6.5425 9.29118 6.38834 7.59896 6.29815 6.39961C6.29765 6.39378 6.29721 6.38792 6.29683 6.38206C6.28804 6.26485 6.27987 6.15241 6.27236 6.04535C6.23229 5.47394 5.98945 5.18215 5.75817 5.02233C5.63086 4.93436 5.49405 4.87834 5.37162 4.84915C5.31105 4.8347 5.25911 4.82806 5.21929 4.82609ZM8.17002 7.22249C8.25812 8.26211 8.37571 9.49277 8.50297 10.645C8.57933 11.3363 8.6587 11.995 8.73672 12.5645H17.2843C17.6729 12.5645 18.0422 12.3925 18.348 12.0958C18.6618 11.7914 18.8511 11.4094 18.9004 11.1086C18.9363 10.8888 18.9837 10.6241 19.0358 10.3322C19.1562 9.65894 19.3024 8.84145 19.3941 8.09946C19.414 7.85676 19.378 7.70611 19.3404 7.616C19.3026 7.5255 19.248 7.459 19.1787 7.40463C19.0193 7.27957 18.7815 7.22249 18.6199 7.22249H8.17002Z" fill="#2B3843"/>
<path d="M12.2 19.225C12.2 19.9706 11.5956 20.575 10.85 20.575C10.1044 20.575 9.5 19.9706 9.5 19.225C9.5 18.4794 10.1044 17.875 10.85 17.875C11.5956 17.875 12.2 18.4794 12.2 19.225Z" fill="#2B3843"/>
<path d="M18.5008 19.225C18.5008 19.9706 17.8964 20.575 17.1508 20.575C16.4052 20.575 15.8008 19.9706 15.8008 19.225C15.8008 18.4794 16.4052 17.875 17.1508 17.875C17.8964 17.875 18.5008 18.4794 18.5008 19.225Z" fill="#2B3843"/>
<path fill-rule="evenodd" clip-rule="evenodd" d="M2.09961 14.7242C2.09961 14.2272 2.50255 13.8242 2.99961 13.8242H5.69961C6.19667 13.8242 6.59961 14.2272 6.59961 14.7242C6.59961 15.2213 6.19667 15.6242 5.69961 15.6242H2.99961C2.50255 15.6242 2.09961 15.2213 2.09961 14.7242Z" fill="#2B3843"/>
<path fill-rule="evenodd" clip-rule="evenodd" d="M3 17.4254C3 16.9283 3.40294 16.5254 3.9 16.5254L6.6 16.5254C7.09706 16.5254 7.5 16.9283 7.5 17.4254C7.5 17.9224 7.09706 18.3254 6.6 18.3254L3.9 18.3254C3.40294 18.3254 3 17.9224 3 17.4254Z" fill="#2B3843"/>
</svg>
