<svg width="24" height="24" viewBox="0 0 24 24" fill="none" xmlns="http://www.w3.org/2000/svg">
<path d="M17.0682 22.2296H6.93162C5.31418 22.2296 4 20.9154 4 19.2979V10.9993C4 9.38189 5.31418 8.06772 6.93162 8.06772C7.43707 8.06772 7.85063 8.48127 7.85063 8.98672C7.85063 9.49217 7.43707 9.90573 6.93162 9.90573C6.32508 9.90573 5.83801 10.402 5.83801 10.9993V19.2888C5.83801 19.8953 6.33427 20.3824 6.93162 20.3824H17.0682C17.6748 20.3824 18.1618 19.8861 18.1618 19.2888V10.9993C18.1618 10.3928 17.6656 9.90573 17.0682 9.90573C16.5628 9.90573 16.1492 9.49217 16.1492 8.98672C16.1492 8.48127 16.5628 8.06772 17.0682 8.06772C18.6857 8.06772 19.9999 9.38189 19.9999 10.9993V19.2888C19.9999 20.9062 18.6857 22.2204 17.0682 22.2204V22.2296Z" fill="#26D07C"/>
<path fill-rule="evenodd" clip-rule="evenodd" d="M11.416 2.24124C11.7376 1.91959 12.2614 1.91959 12.5831 2.24124L15.8915 5.54965C16.2132 5.8713 16.2132 6.39514 15.8915 6.71679C15.5698 7.03844 15.046 7.03844 14.7244 6.71679L12.8312 4.82364V11.9275C12.8312 12.387 12.4636 12.7546 12.0041 12.7546C11.5446 12.7546 11.177 12.387 11.177 11.9275V4.82364L9.28386 6.71679C8.96221 7.03844 8.43838 7.03844 8.11673 6.71679C7.79508 6.39514 7.79508 5.8713 8.11673 5.54965L11.416 2.24124Z" fill="#26D07C"/>
</svg>
