<svg width="24" height="24" viewBox="0 0 24 24" fill="none" xmlns="http://www.w3.org/2000/svg">
<path d="M12 20.9414L11.4897 20.5332C8.9383 18.6961 6.48894 16.655 4.14164 14.5118C1.99846 12.2666 0.875834 8.49049 3.63136 5.73496C4.65193 4.7144 5.97866 4.10206 7.40745 4C9.14242 4.10206 10.7753 4.81645 12 6.04113C13.2247 4.81645 14.8576 4 16.5925 4C18.0213 4 19.4501 4.61234 20.3686 5.63291C23.1242 8.49049 22.0015 12.1645 19.8584 14.4098C17.5111 16.553 15.0617 18.5941 12.5103 20.5332L12 20.9414ZM7.40745 5.93907C6.48895 5.93907 5.57044 6.3473 4.9581 7.0617C2.81491 9.30694 4.2437 11.9604 5.46838 13.1851C7.50951 15.1242 9.75476 16.9612 12 18.5941C14.2452 16.8591 16.4905 15.0221 18.6337 13.083C19.8584 11.8584 21.1851 9.20489 19.144 6.95964C18.5316 6.24524 17.6131 5.83702 16.6946 5.83702C15.3679 5.93907 14.1432 6.55141 13.3267 7.46992L12 8.79666L10.7753 7.57198C9.95887 6.55141 8.73419 5.93907 7.40745 5.93907Z" fill="#26D07C"/>
</svg>
