<svg width="14" height="14" viewBox="0 0 14 14" fill="none" xmlns="http://www.w3.org/2000/svg">
<circle cx="7" cy="7" r="7" fill="#2B3843"/>
<path fill-rule="evenodd" clip-rule="evenodd" d="M7.36607 2.42871C7.13982 2.30241 6.86105 2.30241 6.63479 2.42871L3.0883 4.40851C2.86204 4.53482 2.72266 4.76824 2.72266 5.02086V8.98045C2.72266 9.23306 2.86204 9.46649 3.0883 9.59279L6.63479 11.5726C6.86105 11.6989 7.13982 11.6989 7.36607 11.5726L10.9126 9.59279C11.1388 9.46649 11.2782 9.23306 11.2782 8.98045V5.02086C11.2782 4.76824 11.1388 4.53482 10.9126 4.40851L7.36607 2.42871ZM6.93736 2.93544C6.97639 2.91365 7.02448 2.91365 7.0635 2.93544L10.61 4.91523C10.649 4.93702 10.6731 4.97728 10.6731 5.02086V8.98045C10.6731 9.02402 10.649 9.06428 10.61 9.08607L7.0635 11.0659C7.02448 11.0877 6.97639 11.0877 6.93736 11.0659L3.39087 9.08607C3.35184 9.06428 3.3278 9.02402 3.3278 8.98045V5.02086C3.3278 4.97728 3.35184 4.93702 3.39087 4.91523L6.93736 2.93544ZM6.53681 5.89056C6.48688 5.89056 6.44059 5.90558 6.4025 5.93122C6.37954 5.94667 6.35955 5.96598 6.34356 5.98818C6.317 6.02503 6.30143 6.06983 6.30143 6.11815L6.3015 6.12409V7.13653L6.30143 7.14247L6.3015 7.14842V7.93903C6.3015 8.06473 6.40689 8.16662 6.53689 8.16662C6.66688 8.16662 6.77227 8.06473 6.77227 7.93903V7.78458V7.37006H7.20098H7.71371C7.84371 7.37006 7.9491 7.26817 7.9491 7.14247C7.9491 7.01678 7.84371 6.91488 7.71371 6.91488H7.20098H6.77227V6.76026V6.50036V6.34574H7.20098H7.71371C7.78461 6.34574 7.84819 6.31543 7.89134 6.26748C7.92731 6.22751 7.9491 6.17529 7.9491 6.11815C7.9491 6.061 7.92732 6.00878 7.89134 5.96881C7.84819 5.92086 7.78461 5.89056 7.71371 5.89056H6.53681ZM8.302 6.11815C8.302 6.061 8.32378 6.00878 8.35975 5.96881C8.40291 5.92086 8.46648 5.89056 8.53738 5.89056H9.94967C10.0797 5.89056 10.1851 5.99245 10.1851 6.11815C10.1851 6.24384 10.0797 6.34574 9.94967 6.34574H9.90776H9.47905V6.76026V7.9391C9.47905 8.0648 9.37367 8.16669 9.24367 8.16669C9.11367 8.16669 9.00829 8.0648 9.00829 7.9391V6.76026V6.34574H8.57958H8.53738C8.46648 6.34574 8.40291 6.31543 8.35975 6.26748C8.32378 6.22751 8.302 6.17529 8.302 6.11815ZM5.3931 8.0558L5.39316 8.05588C5.4223 8.10295 5.46854 8.13899 5.52357 8.15599C5.54618 8.16297 5.57027 8.16674 5.59526 8.16674C5.67534 8.16674 5.74607 8.12808 5.78859 8.06901C5.8151 8.03218 5.83065 7.98742 5.83065 7.93915V6.11842C5.83065 5.99273 5.72526 5.89083 5.59526 5.89083C5.46527 5.89083 5.35988 5.99273 5.35988 6.11842V6.56543V7.25541L4.93117 6.70382L4.39394 6.01262C4.39135 6.00928 4.38867 6.00603 4.38592 6.00286C4.35688 5.95531 4.31046 5.91886 4.25511 5.90168C4.23241 5.89463 4.20821 5.89083 4.1831 5.89083C4.10302 5.89083 4.03229 5.92949 3.98977 5.98856C3.96326 6.02539 3.94771 6.07015 3.94771 6.11842V7.93914C3.94771 8.06484 4.0531 8.16673 4.1831 8.16673C4.31309 8.16673 4.41848 8.06484 4.41848 7.93914V7.49182V6.80185L4.84719 7.35343L5.3931 8.0558Z" fill="white"/>
</svg>
