<svg width="13" height="14" viewBox="0 0 13 14" fill="none" xmlns="http://www.w3.org/2000/svg">
<circle cx="6.5" cy="7" r="6.5" fill="#2B3843"/>
<mask id="mask0_5141_228084" style="mask-type:alpha" maskUnits="userSpaceOnUse" x="3" y="3" width="7" height="8">
<path d="M3.63604 6.97517C3.60205 6.98977 3.56552 6.99753 3.52853 6.998C3.45662 6.99805 3.38748 6.97023 3.33563 6.92038C3.28379 6.87053 3.25327 6.80254 3.25047 6.73065V5.97197C3.24567 5.78542 3.27796 5.59978 3.34546 5.42583C3.41296 5.25187 3.51433 5.09306 3.64367 4.95861C3.77301 4.82417 3.92773 4.71677 4.09889 4.64264C4.27006 4.56852 4.45424 4.52916 4.64073 4.52683H8.79713L8.158 3.87289C8.10614 3.81903 8.07715 3.74716 8.07715 3.67238C8.07715 3.5976 8.10614 3.52573 8.158 3.47187C8.18358 3.44554 8.21416 3.42462 8.24797 3.41033C8.28177 3.39603 8.31808 3.38867 8.35477 3.38867C8.39147 3.38867 8.42782 3.39603 8.46163 3.41033C8.49543 3.42462 8.52602 3.44554 8.5516 3.47187L9.66742 4.60992C9.69317 4.63744 9.71396 4.66922 9.72882 4.70386C9.7542 4.77388 9.7542 4.85059 9.72882 4.92062C9.71486 4.95573 9.69397 4.98768 9.66742 5.01456L8.5516 6.1562C8.52602 6.18253 8.49543 6.20348 8.46163 6.21777C8.42782 6.23206 8.39147 6.23942 8.35477 6.23942C8.31808 6.23942 8.28177 6.23206 8.24797 6.21777C8.21416 6.20348 8.18358 6.18253 8.158 6.1562C8.10591 6.10174 8.0768 6.02926 8.0768 5.95388C8.0768 5.8785 8.10591 5.80603 8.158 5.75157L8.79713 5.09764H4.64073C4.52977 5.09906 4.42017 5.12234 4.31819 5.16613C4.21621 5.20993 4.12385 5.2734 4.04639 5.35291C3.96893 5.43242 3.90791 5.52642 3.86676 5.62954C3.82561 5.73265 3.80516 5.84286 3.80659 5.95388V6.71259C3.80707 6.7496 3.80025 6.78633 3.78653 6.82071C3.77282 6.85508 3.75245 6.8864 3.72663 6.9129C3.70081 6.93941 3.67004 6.96058 3.63604 6.97517Z" fill="black"/>
<path d="M9.27173 7.08408C9.32368 7.03076 9.39437 6.99986 9.46877 6.99797C9.54078 6.99874 9.60987 7.02674 9.66211 7.07632C9.71436 7.12591 9.7459 7.19342 9.75045 7.26532V8.02762C9.75476 8.21434 9.72203 8.40007 9.65413 8.57405C9.58624 8.74802 9.48454 8.90678 9.35491 9.04117C9.22529 9.17557 9.0703 9.28293 8.89894 9.35701C8.72758 9.43109 8.54323 9.47042 8.35657 9.47276H4.20018L4.83935 10.1267C4.8912 10.1806 4.92019 10.2524 4.92019 10.3272C4.92019 10.402 4.8912 10.4739 4.83935 10.5277C4.81377 10.554 4.78318 10.575 4.74938 10.5893C4.71558 10.6036 4.67923 10.6109 4.64253 10.6109C4.60583 10.6109 4.56952 10.6036 4.53572 10.5893C4.50192 10.575 4.47133 10.554 4.44575 10.5277L3.32989 9.38605C3.30419 9.35986 3.28343 9.32927 3.26853 9.29573C3.26308 9.25981 3.26308 9.22327 3.26853 9.18735C3.26273 9.15145 3.26273 9.11486 3.26853 9.07897C3.28249 9.04386 3.30333 9.01191 3.32989 8.98503L4.44575 7.84339C4.47133 7.81706 4.50192 7.79611 4.53572 7.78182C4.56952 7.76753 4.60583 7.76017 4.64253 7.76017C4.67923 7.76017 4.71558 7.76753 4.74938 7.78182C4.78318 7.79611 4.81377 7.81706 4.83935 7.84339C4.89144 7.89785 4.9205 7.97032 4.9205 8.0457C4.9205 8.12109 4.89144 8.19356 4.83935 8.24802L4.20018 8.90194H8.35657C8.46754 8.90053 8.57713 8.87725 8.67911 8.83345C8.78109 8.78966 8.87345 8.72619 8.95091 8.64668C9.02837 8.56717 9.08944 8.47317 9.13059 8.37005C9.17173 8.26693 9.19219 8.15673 9.19076 8.0457V7.28338C9.19073 7.20892 9.21978 7.13741 9.27173 7.08408Z" fill="black"/>
</mask>
<g mask="url(#mask0_5141_228084)">
<path d="M1.08398 1.40234H11.9173L11.9173 12.2357H1.08398L1.08398 1.40234Z" fill="white"/>
</g>
</svg>
