<svg width="14" height="14" viewBox="0 0 14 14" fill="none" xmlns="http://www.w3.org/2000/svg">
<circle cx="7" cy="7" r="7" fill="#2B3843"/>
<path fill-rule="evenodd" clip-rule="evenodd" d="M10.7771 6.71239C10.7913 6.87153 10.9202 7.00043 11.0799 7.00043C11.2424 7.00043 11.3746 6.86734 11.3619 6.70537C11.1868 4.47664 9.32272 2.72266 7.049 2.72266C4.65963 2.72266 2.72266 4.65962 2.72266 7.04899C2.72266 9.32269 4.47664 11.1867 6.70537 11.3619C6.86734 11.3746 7.00043 11.2424 7.00043 11.0799C7.00043 10.9201 6.87153 10.7912 6.71239 10.7771C4.80289 10.6069 3.30599 9.00273 3.30599 7.04899C3.30599 4.98179 4.98179 3.30599 7.049 3.30599C9.00276 3.30599 10.6069 4.8029 10.7771 6.71239ZM7.04895 4.3975C7.21003 4.3975 7.34062 4.52809 7.34062 4.68917V5.18411H8.03226C8.19334 5.18411 8.32393 5.31469 8.32393 5.47577C8.32393 5.63686 8.19334 5.76744 8.03226 5.76744H7.34062V6.75732H7.54063C7.81405 6.75732 8.06698 6.88178 8.24682 7.08731C8.42557 7.2916 8.52058 7.56126 8.52058 7.83559C8.52058 8.10992 8.42557 8.37958 8.24682 8.58387C8.06698 8.7894 7.81405 8.91386 7.54063 8.91386H7.34062V9.4088C7.34062 9.56988 7.21003 9.70047 7.04895 9.70047C6.88787 9.70047 6.75728 9.56988 6.75728 9.4088V8.91386H5.86909C5.708 8.91386 5.57742 8.78328 5.57742 8.6222C5.57742 8.46111 5.708 8.33053 5.86909 8.33053H6.75728V7.34065H6.55737C6.28395 7.34065 6.03102 7.21619 5.85118 7.01066C5.67243 6.80637 5.57742 6.53671 5.57742 6.26238C5.57742 5.98805 5.67243 5.71839 5.85118 5.5141C6.03102 5.30857 6.28395 5.18411 6.55737 5.18411H6.75728V4.68917C6.75728 4.52809 6.88787 4.3975 7.04895 4.3975ZM6.55737 5.76744H6.75728V6.75732H6.55737C6.4657 6.75732 6.3685 6.71603 6.29018 6.62653C6.21078 6.53578 6.16075 6.40529 6.16075 6.26238C6.16075 6.11947 6.21078 5.98898 6.29018 5.89823C6.3685 5.80873 6.4657 5.76744 6.55737 5.76744ZM7.34062 8.33053V7.34065H7.54063C7.63229 7.34065 7.7295 7.38194 7.80782 7.47144C7.88722 7.56219 7.93724 7.69268 7.93724 7.83559C7.93724 7.9785 7.88722 8.10899 7.80782 8.19974C7.7295 8.28924 7.63229 8.33053 7.54063 8.33053H7.34062ZM8.92075 11.3512C8.88678 10.9423 8.97063 10.326 9.32144 9.82101C9.56911 9.46449 9.96246 9.14462 10.5868 8.99821L10.3825 9.2026C10.2686 9.31652 10.2686 9.50119 10.3825 9.61508C10.4965 9.72896 10.6811 9.72893 10.795 9.615L11.5744 8.83528C11.6314 8.78205 11.667 8.70628 11.667 8.62219C11.667 8.5381 11.6314 8.46231 11.5744 8.40908L10.795 7.62939C10.6811 7.51546 10.4965 7.51543 10.3825 7.62931C10.2686 7.74319 10.2686 7.92787 10.3825 8.04179L10.7195 8.37891C9.8172 8.51911 9.21617 8.9501 8.84236 9.48821C8.3963 10.1303 8.29713 10.8906 8.33942 11.3995C8.35276 11.56 8.49371 11.6793 8.65424 11.666C8.81477 11.6526 8.93409 11.5117 8.92075 11.3512Z" fill="white"/>
</svg>
