<svg width="13" height="14" viewBox="0 0 13 14" fill="none" xmlns="http://www.w3.org/2000/svg">
<circle cx="6.5" cy="7" r="6.5" fill="#2B3843"/>
<path fill-rule="evenodd" clip-rule="evenodd" d="M7.03388 3.93034C6.88547 3.93034 6.76515 4.05065 6.76515 4.19907V4.73755H7.66702C7.76409 4.73561 7.84218 4.65631 7.84218 4.55878C7.84218 4.2117 7.56082 3.93034 7.21374 3.93034H7.03388ZM6.21647 4.73755V4.19907C6.21647 4.05065 6.09616 3.93034 5.94774 3.93034H5.76789C5.42081 3.93034 5.13944 4.2117 5.13944 4.55878C5.13944 4.65632 5.21754 4.73561 5.31461 4.73755H6.21647ZM4.62013 4.73755C4.60554 4.68039 4.59778 4.62049 4.59778 4.55878C4.59778 3.91255 5.12165 3.38867 5.76789 3.38867H5.94774C6.15666 3.38867 6.34711 3.46772 6.49081 3.59755C6.63452 3.46772 6.82497 3.38867 7.03388 3.38867H7.21374C7.85997 3.38867 8.38385 3.91255 8.38385 4.55878C8.38385 4.62049 8.37609 4.68039 8.36149 4.73755H9.36134C9.79537 4.73755 10.086 5.12822 10.086 5.52919V6.2236C10.086 6.53035 9.91589 6.83107 9.64165 6.95546C9.6849 7.05878 9.70841 7.17178 9.70841 7.28719V9.81989C9.70841 10.2428 9.39261 10.6334 8.94701 10.6334H6.76527H6.22331H4.02022C3.57435 10.6334 3.25454 10.2451 3.25454 9.81989V7.28719C3.25454 7.16988 3.27888 7.05538 3.32349 6.95107C3.05482 6.8241 2.88867 6.5268 2.88867 6.2236V5.52919C2.88867 5.12822 3.17927 4.73755 3.6133 4.73755H4.62013ZM5.31094 5.27922H3.6133C3.54608 5.27922 3.43034 5.3549 3.43034 5.52919V6.2236C3.43034 6.3979 3.54608 6.47358 3.6133 6.47358H9.36134C9.42855 6.47358 9.5443 6.3979 9.5443 6.2236V5.52919C9.5443 5.3549 9.42855 5.27922 9.36134 5.27922H7.6707L7.66337 5.27925L6.75814 5.27925L6.22348 5.27925L5.31825 5.27925C5.31581 5.27925 5.31337 5.27924 5.31094 5.27922ZM6.76527 10.0918V7.0153H8.94701C9.04327 7.0153 9.16675 7.11064 9.16675 7.28719V9.81989C9.16675 9.99644 9.04327 10.0918 8.94701 10.0918H6.76527ZM6.22331 7.0153H4.02022C3.9195 7.0153 3.79621 7.11294 3.79621 7.28719V9.81989C3.79621 9.99413 3.9195 10.0918 4.02022 10.0918H6.22331V7.0153Z" fill="white"/>
</svg>
