<svg width="13" height="14" viewBox="0 0 13 14" fill="none" xmlns="http://www.w3.org/2000/svg">
<circle cx="6.5" cy="7" r="6.5" fill="#2B3843"/>
<path d="M2.93179 4.90201V7.45579C2.93179 7.99312 3.08201 8.40334 3.38245 8.69223C3.67134 8.96957 4.08734 9.10823 4.63623 9.10823C5.17934 9.10823 5.59534 8.96379 5.89001 8.68645C6.18468 8.40334 6.3349 7.99312 6.3349 7.45579V4.90201H5.70512V7.46734C5.70512 7.83712 5.61845 8.10868 5.4509 8.28779C5.27757 8.4669 5.00601 8.55934 4.63623 8.55934C4.26068 8.55934 3.98912 8.4669 3.81579 8.28779C3.64245 8.10868 3.56157 7.83712 3.56157 7.46734V4.90201H2.93179ZM7.14099 4.90201V9.02734H7.77077V7.42112H8.83966C9.82766 7.42112 10.3245 6.99934 10.3245 6.15579C10.3245 5.31801 9.83343 4.90201 8.85121 4.90201H7.14099ZM7.77077 5.43934H8.79921C9.10543 5.43934 9.33077 5.49712 9.47521 5.61268C9.61966 5.71668 9.69477 5.90157 9.69477 6.15579C9.69477 6.41001 9.61966 6.5949 9.48099 6.71045C9.33655 6.82601 9.11121 6.88379 8.79921 6.88379H7.77077V5.43934Z" fill="white"/>
</svg>
