<svg width="24" height="24" viewBox="0 0 24 24" fill="none" xmlns="http://www.w3.org/2000/svg">
<path d="M9.76292 12.299C9.31403 12.299 9.06835 12.79 9.02402 13.2446C9.00273 13.3831 9.00809 13.5246 9.0398 13.6609C9.07151 13.7972 9.12893 13.9257 9.20874 14.0388C9.25546 14.0916 9.31272 14.1333 9.37653 14.1608C9.44034 14.1883 9.50916 14.201 9.57819 14.198C10.1619 14.198 10.2598 13.3962 10.2728 13.2389C10.3175 12.962 10.2551 12.6779 10.0991 12.4486C10.0566 12.4003 10.0045 12.3619 9.94657 12.3361C9.8886 12.3103 9.82598 12.2976 9.76292 12.299V12.299ZM19.1063 4.47853C17.1519 3.50792 15.7813 4.14284 14.5824 4.58978C14.333 4.68013 14.0756 4.74439 13.8139 4.7816C13.8139 4.7816 13.0104 4.96191 11.902 4.38262C11.8226 4.33466 11.6582 4.27328 11.5769 4.22916L11.1982 4.04693C2.70086 0.14534 2.04324 8.40506 2.04324 8.40506C2.04324 8.40506 1.00693 16.2562 9.08128 17.8636C9.39347 17.9442 10.3208 18.3221 10.3577 19.2984C10.4095 20.6527 10.5535 22.5229 12.6003 18.8764C12.7684 18.5791 13.3226 18.1092 14.3275 18.0248C21.4523 17.081 21.9677 10.5208 21.9677 10.5208C21.9677 10.5208 22.5145 6.16845 19.1063 4.47853V4.47853ZM11.1835 13.2446C11.0948 14.2901 10.5591 14.9135 9.75183 14.9135C9.59095 14.9204 9.43063 14.8894 9.28286 14.823C9.13509 14.7566 9.00367 14.6564 8.8984 14.5298L8.87254 14.8406H8.02465L8.41257 10.2369H9.27709L9.12931 11.9806C9.23995 11.8499 9.37689 11.7461 9.53043 11.6765C9.68397 11.6069 9.85036 11.5732 10.0178 11.5777C10.1742 11.568 10.3308 11.5935 10.4768 11.6525C10.6228 11.7114 10.7548 11.8024 10.8639 11.9192C11.1835 12.2875 11.2112 12.8418 11.1835 13.2446ZM13.7936 11.6545L13.7364 12.3354H13.0584L12.846 14.8425H11.9778L12.1884 12.3354H11.6157L11.673 11.6545H12.2456L12.2789 11.2708C12.3361 10.5956 12.7499 10.1755 13.3614 10.1755C13.5534 10.1766 13.7448 10.1991 13.9322 10.2427L13.9747 10.2542L13.8343 11.0215C13.802 10.9905 13.766 10.9641 13.7271 10.9428C13.6493 10.9021 13.563 10.8823 13.4759 10.8853C13.2395 10.8853 13.16 11.0637 13.1379 11.3188C13.1286 11.4013 13.1101 11.6525 13.1101 11.6525L13.7936 11.6545ZM15.5578 14.5586L15.5079 14.7408C15.4644 14.8994 15.3623 15.0337 15.224 15.1145C15.0856 15.1953 14.9221 15.2162 14.769 15.1724L14.3607 15.0516C14.2081 15.0064 14.0789 14.9004 14.0014 14.7566C13.9238 14.6128 13.9043 14.443 13.9469 14.2843L13.9968 14.0925C14.0403 13.934 14.1424 13.7998 14.2809 13.7193C14.4194 13.6388 14.5829 13.6185 14.7357 13.6628L15.144 13.7837C15.2199 13.8066 15.2907 13.8448 15.3523 13.8962C15.4139 13.9476 15.4651 14.0111 15.5031 14.0831C15.541 14.1551 15.5649 14.2342 15.5733 14.3158C15.5817 14.3974 15.5746 14.4799 15.5522 14.5586H15.5578ZM15.4746 13.2159L14.6932 13.0106L15.0165 10.6052H16.3355L15.4746 13.2159ZM15.9401 7.46131C15.8071 7.53612 12.7093 9.44471 9.8442 6.91846C9.719 6.80705 9.63104 6.65729 9.59297 6.4907C9.56537 6.36727 9.56586 6.23886 9.5944 6.11567C9.62294 5.99247 9.67874 5.87787 9.75738 5.78098C9.89609 5.62734 10.0849 5.5328 10.2871 5.51578C10.4892 5.49876 10.6902 5.56047 10.851 5.6889C12.9457 7.20619 15.1717 6.05528 15.1957 6.04377C15.2852 5.99309 15.3834 5.96122 15.4848 5.94998C15.5862 5.93875 15.6887 5.94838 15.7865 5.9783C15.8843 6.00823 15.9754 6.05788 16.0547 6.1244C16.134 6.19093 16.1999 6.27304 16.2486 6.36602C16.3453 6.55421 16.3666 6.77444 16.3078 6.97881C16.249 7.18319 16.1149 7.35521 15.9346 7.45747L15.9401 7.46131Z" fill="#26D07C"/>
</svg>
