<svg width="12" height="13" viewBox="0 0 12 13" fill="none" xmlns="http://www.w3.org/2000/svg">
<rect y="0.5" width="12" height="12" rx="6" fill="#FF9500"/>
<path d="M7.88668 6.23333C7.81002 6.13333 7.71668 6.04667 7.63002 5.96C7.40668 5.76 7.15335 5.61667 6.94002 5.40667C6.44335 4.92 6.33335 4.11667 6.65002 3.5C6.33335 3.57667 6.05668 3.75 5.82002 3.94C4.95668 4.63333 4.61668 5.85667 5.02335 6.90667C5.03668 6.94 5.05002 6.97333 5.05002 7.01667C5.05002 7.09 5.00002 7.15667 4.93335 7.18333C4.85668 7.21667 4.77668 7.19667 4.71335 7.14333C4.69432 7.1276 4.67848 7.10836 4.66668 7.08667C4.29002 6.61 4.23002 5.92667 4.48335 5.38C3.92668 5.83333 3.62335 6.6 3.66668 7.32333C3.68668 7.49 3.70668 7.65667 3.76335 7.82333C3.81002 8.02333 3.90002 8.22333 4.00002 8.4C4.36002 8.97667 4.98335 9.39 5.65335 9.47333C6.36668 9.56333 7.13002 9.43333 7.67668 8.94C8.28668 8.38667 8.50002 7.5 8.18668 6.74L8.14335 6.65333C8.07335 6.5 7.88668 6.23333 7.88668 6.23333ZM6.83335 8.33333C6.74002 8.41333 6.58668 8.5 6.46668 8.53333C6.09335 8.66667 5.72002 8.48 5.50002 8.26C5.89668 8.16667 6.13335 7.87333 6.20335 7.57667C6.26002 7.31 6.15335 7.09 6.11002 6.83333C6.07002 6.58667 6.07668 6.37667 6.16668 6.14667C6.23002 6.27333 6.29668 6.4 6.37668 6.5C6.63335 6.83333 7.03668 6.98 7.12335 7.43333C7.13668 7.48 7.14335 7.52667 7.14335 7.57667C7.15335 7.85 7.03335 8.15 6.83335 8.33333Z" fill="white"/>
</svg>
