<svg width="24" height="24" viewBox="0 0 24 24" fill="none" xmlns="http://www.w3.org/2000/svg">
<path d="M12.5508 15.8686L11.0292 17.3924C9.80766 18.6157 7.82534 18.6157 6.6038 17.3924C6.01447 16.8022 5.68229 16.0081 5.68229 15.171C5.68229 14.334 6.00375 13.5506 6.6038 12.9604L8.12537 11.4366C8.45754 11.104 8.45754 10.5674 8.12537 10.2455C7.7932 9.92356 7.25743 9.91283 6.93598 10.2455L5.41441 11.7693C4.50362 12.6814 4 13.894 4 15.1818C4 16.4695 4.50362 17.6821 5.41441 18.5942C6.35735 19.5386 7.58961 20 8.82186 20C10.0541 20 11.2864 19.5278 12.2293 18.5942L13.7509 17.0704C14.083 16.7378 14.083 16.2012 13.7509 15.8793C13.4187 15.5466 12.8829 15.5466 12.5615 15.8793L12.5508 15.8686Z" fill="#2B3843"/>
<path d="M18.5856 5.41631C17.6748 4.50429 16.464 4 15.1781 4C13.8923 4 12.6815 4.50429 11.7707 5.41631L10.2491 6.93991C9.91696 7.27253 9.91696 7.80901 10.2491 8.1309C10.5813 8.46352 11.1171 8.46352 11.4385 8.1309L12.9601 6.6073C14.1388 5.42704 16.1961 5.42704 17.3855 6.6073C17.9748 7.19743 18.307 7.99142 18.307 8.8176C18.307 9.64378 17.9855 10.4378 17.3855 11.0386L15.8639 12.5622C15.5317 12.8949 15.5317 13.4313 15.8639 13.7532C16.0246 13.9142 16.2497 14 16.464 14C16.6783 14 16.8926 13.9142 17.064 13.7532L18.5856 12.2296C19.4964 11.3176 20 10.1052 20 8.8176C20 7.53004 19.4964 6.3176 18.5856 5.40558V5.41631Z" fill="#2B3843"/>
<path d="M13.6631 9.22204L9.23154 13.6628C8.92282 13.9721 8.92282 14.4711 9.23154 14.7705C9.38091 14.9202 9.58008 15 9.78921 15C9.99834 15 10.1876 14.9202 10.3469 14.7705L14.7685 10.3397C15.0772 10.0304 15.0772 9.53139 14.7685 9.23202C14.4598 8.92266 13.9618 8.92266 13.6631 9.23202V9.22204Z" fill="#2B3843"/>
</svg>
