<svg width="24" height="24" viewBox="0 0 24 24" fill="none" xmlns="http://www.w3.org/2000/svg">
<path d="M21.9991 10.1012C21.9991 5.63423 17.5134 2 11.9996 2C6.48569 2 2 5.63423 2 10.1012C2 14.106 5.55781 17.4595 10.3631 18.0939C10.6883 18.1641 11.1317 18.3082 11.2441 18.5861C11.3454 18.8387 11.3097 19.2336 11.2769 19.489C11.2769 19.489 11.1598 20.1936 11.1345 20.3433C11.0904 20.5959 10.9339 21.3304 12.0005 20.8813C13.068 20.4322 17.759 17.496 19.8565 15.0856C21.3055 13.4987 22 11.8893 22 10.1012H21.9991Z" fill="#2B3843"/>
<path d="M18.672 12.6809H15.8631C15.7572 12.6809 15.6719 12.5958 15.6719 12.49V12.4872V8.13813V8.13345C15.6719 8.02771 15.7572 7.94257 15.8631 7.94257H18.672C18.777 7.94257 18.8632 8.02865 18.8632 8.13345V8.84177C18.8632 8.9475 18.7779 9.03265 18.672 9.03265H16.7628V9.7681H18.672C18.777 9.7681 18.8632 9.85418 18.8632 9.95898V10.6673C18.8632 10.773 18.7779 10.8582 18.672 10.8582H16.7628V11.5936H18.672C18.777 11.5936 18.8632 11.6797 18.8632 11.7845V12.4928C18.8632 12.5986 18.7779 12.6837 18.672 12.6837V12.6809Z" fill="white"/>
<path d="M8.28087 12.6809C8.38584 12.6809 8.47207 12.5958 8.47207 12.49V11.7817C8.47207 11.6769 8.38584 11.5908 8.28087 11.5908H6.37168V8.13253C6.37168 8.02773 6.28546 7.94165 6.18049 7.94165H5.47098C5.36507 7.94165 5.27979 8.0268 5.27979 8.13253V12.4863V12.49C5.27979 12.5958 5.36507 12.6809 5.47098 12.6809H8.27993H8.28087Z" fill="white"/>
<path d="M9.97154 7.94257H9.26298C9.15738 7.94257 9.07178 8.02803 9.07178 8.13345V12.49C9.07178 12.5954 9.15738 12.6809 9.26298 12.6809H9.97154C10.0771 12.6809 10.1627 12.5954 10.1627 12.49V8.13345C10.1627 8.02803 10.0771 7.94257 9.97154 7.94257Z" fill="white"/>
<path d="M14.7995 7.94257H14.09C13.9841 7.94257 13.8988 8.02771 13.8988 8.13345V10.7206L11.9024 8.02865C11.8978 8.0221 11.8921 8.01555 11.8874 8.009H11.8865C11.8828 8.00339 11.879 7.99964 11.8753 7.9959L11.8715 7.99309C11.8715 7.99309 11.8649 7.98748 11.8612 7.98467C11.8593 7.98374 11.8574 7.98186 11.8556 7.98093C11.8528 7.97812 11.849 7.97625 11.8453 7.97438C11.8434 7.97344 11.8415 7.97157 11.8396 7.97064C11.8359 7.96877 11.8331 7.96689 11.8293 7.96502C11.8275 7.96409 11.8256 7.96315 11.8237 7.96222C11.82 7.96034 11.8162 7.95847 11.8125 7.95754L11.8059 7.95567C11.8059 7.95567 11.7984 7.95286 11.7947 7.95192C11.7928 7.95192 11.79 7.95099 11.7881 7.95005C11.7843 7.95005 11.7806 7.94818 11.7768 7.94724C11.774 7.94724 11.7712 7.94724 11.7684 7.94631C11.7647 7.94631 11.7618 7.94537 11.7581 7.94537C11.7544 7.94537 11.7515 7.94537 11.7478 7.94537C11.7459 7.94537 11.7431 7.94537 11.7412 7.94537H11.0364C10.9314 7.94537 10.8452 8.03052 10.8452 8.13625V12.4928C10.8452 12.5976 10.9305 12.6837 11.0364 12.6837H11.7459C11.8518 12.6837 11.9371 12.5986 11.9371 12.4928V9.90565L13.9363 12.6014C13.9503 12.621 13.9672 12.6369 13.9859 12.6491L13.9878 12.651C13.9878 12.651 13.9953 12.6556 14 12.6585C14.0019 12.6594 14.0038 12.6603 14.0056 12.6613C14.0084 12.6631 14.0122 12.6641 14.015 12.6659C14.0178 12.6678 14.0216 12.6687 14.0244 12.6697C14.0263 12.6697 14.0281 12.6716 14.03 12.6716C14.0347 12.6734 14.0384 12.6744 14.0431 12.6753H14.0459C14.0619 12.68 14.0787 12.6828 14.0956 12.6828H14.8004C14.9054 12.6828 14.9916 12.5976 14.9916 12.4919V8.13532C14.9916 8.03052 14.9063 7.94444 14.8004 7.94444L14.7995 7.94257Z" fill="white"/>
</svg>
