<svg width="30" height="32" viewBox="0 0 30 32" fill="none" xmlns="http://www.w3.org/2000/svg">
<path d="M30 16.094C30 24.3783 23.2843 31.094 15 31.094C6.71573 31.094 0 24.3783 0 16.094C0 7.80978 6.71573 1.09405 15 1.09405C23.2843 1.09405 30 7.80978 30 16.094Z" fill="#F1A139"/>
<path d="M30 15C30 23.2843 23.2843 30 15 30C6.71573 30 0 23.2843 0 15C0 6.71573 6.71573 0 15 0C23.2843 0 30 6.71573 30 15Z" fill="#F9D94F"/>
<path d="M27.4664 14.9712C27.4664 21.8403 21.8979 27.4088 15.0288 27.4088C8.15968 27.4088 2.59117 21.8403 2.59117 14.9712C2.59117 8.1021 8.15968 2.53359 15.0288 2.53359C21.8979 2.53359 27.4664 8.1021 27.4664 14.9712Z" fill="#F6C443"/>
<path d="M27.4546 15.5182C27.4624 15.3369 27.4664 15.1545 27.4664 14.9712C27.4664 8.1021 21.8979 2.53359 15.0288 2.53359C8.15968 2.53359 2.59117 8.1021 2.59117 14.9712C2.59117 15.1545 2.59514 15.3369 2.60298 15.5182C2.88928 8.90294 8.34298 3.62764 15.0288 3.62764C21.7146 3.62764 27.1683 8.90294 27.4546 15.5182Z" fill="#F1A139"/>
<path d="M21.2168 11.4242L17.276 12.0397C17.2472 12.0443 17.2276 12.0332 17.2172 12.0063C16.9443 11.3142 16.6477 10.7695 15.9245 10.4591C15.9189 10.4567 15.9127 10.4558 15.9066 10.4564C15.9005 10.4569 15.8946 10.459 15.8895 10.4625C15.8844 10.4659 15.8803 10.4706 15.8774 10.476C15.8746 10.4815 15.8732 10.4875 15.8733 10.4937L15.8756 10.6491L15.871 13.4154C15.871 13.4353 15.8786 13.4516 15.894 13.4643C15.9297 13.4942 15.9738 13.5157 16.0264 13.5288C16.97 13.7668 17.8579 14.0562 18.6902 14.3971C19.9529 14.9148 20.9318 15.68 21.4178 16.9681C21.7846 17.9401 21.7454 19.0589 21.4241 20.043C21.1466 20.7658 20.7339 21.3879 20.1861 21.9092C18.985 23.0534 17.5408 23.4207 15.9182 23.4898C15.9071 23.4904 15.8966 23.4952 15.8889 23.5032C15.8812 23.5112 15.8769 23.5219 15.8767 23.533L15.8744 23.7248L15.8641 25.3889C15.8639 25.4117 15.8549 25.4335 15.8388 25.4498C15.8228 25.466 15.8011 25.4754 15.7783 25.4758C15.356 25.4839 14.9516 25.4898 14.565 25.4937C14.5013 25.494 14.4424 25.4893 14.3882 25.4793C14.3767 25.477 14.3663 25.4709 14.3587 25.4619C14.3512 25.4528 14.347 25.4415 14.3468 25.4298L14.3255 23.7357C14.3362 23.6428 14.3343 23.5701 14.3197 23.5175C14.3176 23.5089 14.3127 23.5013 14.3059 23.4956C14.2991 23.4899 14.2906 23.4865 14.2817 23.4858C12.226 23.294 10.4203 22.7925 9.18517 20.9701C8.79553 20.3129 8.53641 19.6075 8.40781 18.8539C8.40359 18.829 8.41415 18.8152 8.43948 18.8125L12.6579 18.3294C12.6733 18.3275 12.6887 18.3316 12.7012 18.3408C12.7136 18.35 12.722 18.3637 12.7247 18.3789C12.7911 18.7436 12.8921 19.0931 13.0276 19.4274C13.2637 20.0113 13.7237 20.3614 14.2754 20.6269C14.2808 20.6294 14.2868 20.6305 14.2928 20.6302C14.2988 20.6298 14.3046 20.628 14.3096 20.6248C14.3147 20.6216 14.3188 20.6173 14.3217 20.6121C14.3246 20.6069 14.3261 20.6011 14.326 20.5952L14.3255 17.157C14.3399 17.0223 14.3652 16.9273 14.2086 16.8841C13.2706 16.6273 12.252 16.3491 11.3917 15.9622C10.5852 15.6002 9.95638 15.0194 9.50532 14.2198C9.26732 13.7683 9.11876 13.2894 9.05964 12.7831C8.8677 11.1282 9.39572 9.80441 10.6437 8.81171C11.6099 8.04299 13.0495 7.73263 14.2829 7.67447C14.2949 7.67403 14.3064 7.66891 14.3147 7.66022C14.3231 7.65152 14.3278 7.63991 14.3278 7.62783L14.3284 6.66449C14.3284 6.65319 14.3329 6.64235 14.341 6.63436C14.3491 6.62637 14.3601 6.62188 14.3715 6.62188L15.8641 6.62361C15.8677 6.62361 15.8712 6.62506 15.8738 6.62766C15.8764 6.63025 15.8779 6.63376 15.8779 6.63743L15.8658 7.5714C15.8654 7.59738 15.8751 7.62252 15.8927 7.64168C15.9104 7.66083 15.9347 7.67257 15.9608 7.67447C16.8078 7.73148 17.7205 7.88465 18.4846 8.19213C19.9168 8.76833 20.8276 9.84568 21.2168 11.4242ZM14.3278 13.0278L14.3272 10.4298C14.3272 10.4221 14.3253 10.4146 14.3218 10.4078C14.3183 10.401 14.3132 10.3951 14.307 10.3907C14.3008 10.3863 14.2936 10.3835 14.2861 10.3825C14.2786 10.3814 14.271 10.3823 14.2639 10.3848C13.969 10.4885 13.6426 10.6376 13.4295 10.8541C13.0356 11.2549 12.9665 11.8722 13.2614 12.3547C13.4836 12.718 13.8781 12.934 14.2713 13.0681C14.309 13.0808 14.3278 13.0674 14.3278 13.0278ZM15.8744 17.6292L15.871 20.6937C15.8709 20.7004 15.8724 20.707 15.8752 20.7131C15.8781 20.7192 15.8822 20.7246 15.8874 20.7289C15.8926 20.7332 15.8986 20.7363 15.9052 20.738C15.9117 20.7397 15.9185 20.7399 15.9251 20.7386C16.9149 20.548 17.9001 19.8265 17.6047 18.676C17.3485 17.966 16.6149 17.5912 15.9257 17.3954C15.9195 17.3936 15.9129 17.3933 15.9065 17.3945C15.9002 17.3957 15.8942 17.3983 15.889 17.4022C15.8839 17.4061 15.8797 17.4112 15.8769 17.417C15.8741 17.4228 15.8726 17.4292 15.8727 17.4357L15.8744 17.6292Z" fill="#F1A139"/>
<path d="M21.2168 10.9635L17.276 11.5791C17.2472 11.5837 17.2276 11.5726 17.2172 11.5457C16.9443 10.8536 16.6477 10.3088 15.9245 9.99846C15.9189 9.99606 15.9127 9.99512 15.9066 9.9957C15.9005 9.99629 15.8946 9.9984 15.8895 10.0018C15.8844 10.0053 15.8803 10.0099 15.8774 10.0154C15.8746 10.0208 15.8732 10.0269 15.8733 10.033L15.8756 10.1885L15.871 12.9547C15.871 12.9747 15.8786 12.991 15.894 13.0036C15.9297 13.0336 15.9738 13.0551 16.0264 13.0681C16.97 13.3061 17.8579 13.5956 18.6902 13.9365C19.9529 14.4541 20.9318 15.2194 21.4178 16.5075C21.7846 17.4795 21.7454 18.5983 21.4241 19.5823C21.1466 20.3052 20.7339 20.9273 20.1861 21.4486C18.985 22.5927 17.5408 22.9601 15.9182 23.0292C15.9071 23.0298 15.8966 23.0345 15.8889 23.0426C15.8812 23.0506 15.8769 23.0612 15.8767 23.0724L15.8744 23.2641L15.8641 24.9282C15.8639 24.951 15.8549 24.9729 15.8388 24.9891C15.8228 25.0054 15.8011 25.0147 15.7783 25.0152C15.356 25.0232 14.9516 25.0292 14.565 25.033C14.5013 25.0334 14.4424 25.0286 14.3882 25.0186C14.3767 25.0164 14.3663 25.0102 14.3587 25.0012C14.3512 24.9922 14.347 24.9809 14.3468 24.9691L14.3255 23.275C14.3362 23.1821 14.3343 23.1094 14.3197 23.0568C14.3176 23.0483 14.3127 23.0406 14.3059 23.0349C14.2991 23.0292 14.2906 23.0258 14.2817 23.0251C12.226 22.8334 10.4203 22.3319 9.18517 20.5094C8.79553 19.8522 8.53641 19.1468 8.40781 18.3933C8.40359 18.3683 8.41415 18.3545 8.43948 18.3518L12.6579 17.8687C12.6733 17.8669 12.6887 17.871 12.7012 17.8802C12.7136 17.8894 12.722 17.903 12.7247 17.9182C12.7911 18.2829 12.8921 18.6324 13.0276 18.9668C13.2637 19.5507 13.7237 19.9008 14.2754 20.1662C14.2808 20.1687 14.2868 20.1699 14.2928 20.1695C14.2988 20.1692 14.3046 20.1673 14.3096 20.1642C14.3147 20.161 14.3188 20.1566 14.3217 20.1515C14.3246 20.1463 14.3261 20.1405 14.326 20.1346L14.3255 16.6964C14.3399 16.5616 14.3652 16.4666 14.2086 16.4234C13.2706 16.1666 12.252 15.8885 11.3917 15.5015C10.5852 15.1395 9.95638 14.5587 9.50532 13.7591C9.26732 13.3077 9.11876 12.8288 9.05964 12.3225C8.8677 10.6676 9.39572 9.34376 10.6437 8.35106C11.6099 7.58234 13.0495 7.27198 14.2829 7.21382C14.2949 7.21337 14.3064 7.20826 14.3147 7.19956C14.3231 7.19086 14.3278 7.17925 14.3278 7.16718L14.3284 6.20384C14.3284 6.19254 14.3329 6.1817 14.341 6.17371C14.3491 6.16572 14.3601 6.16123 14.3715 6.16123L15.8641 6.16296C15.8677 6.16296 15.8712 6.16441 15.8738 6.167C15.8764 6.16959 15.8779 6.17311 15.8779 6.17677L15.8658 7.11075C15.8654 7.13673 15.8751 7.16186 15.8927 7.18102C15.9104 7.20018 15.9347 7.21191 15.9608 7.21382C16.8078 7.27083 17.7205 7.42399 18.4846 7.73148C19.9168 8.30768 20.8276 9.38503 21.2168 10.9635ZM14.3278 12.5672L14.3272 9.9691C14.3272 9.96144 14.3253 9.9539 14.3218 9.94711C14.3183 9.94032 14.3132 9.93448 14.307 9.93008C14.3008 9.92568 14.2936 9.92284 14.2861 9.92182C14.2786 9.92079 14.271 9.9216 14.2639 9.92418C13.969 10.0278 13.6426 10.177 13.4295 10.3935C13.0356 10.7942 12.9665 11.4115 13.2614 11.894C13.4836 12.2574 13.8781 12.4733 14.2713 12.6075C14.309 12.6202 14.3278 12.6067 14.3278 12.5672ZM15.8744 17.1685L15.871 20.233C15.8709 20.2397 15.8724 20.2464 15.8752 20.2525C15.8781 20.2586 15.8822 20.264 15.8874 20.2683C15.8926 20.2726 15.8986 20.2757 15.9052 20.2773C15.9117 20.279 15.9185 20.2792 15.9251 20.2779C16.9149 20.0873 17.9001 19.3658 17.6047 18.2154C17.3485 17.5054 16.6149 17.1305 15.9257 16.9347C15.9195 16.9329 15.9129 16.9326 15.9065 16.9338C15.9002 16.935 15.8942 16.9377 15.889 16.9416C15.8839 16.9455 15.8797 16.9506 15.8769 16.9564C15.8741 16.9622 15.8726 16.9686 15.8727 16.975L15.8744 17.1685Z" fill="white"/>
</svg>
