<svg width="40" height="12" viewBox="0 0 40 12" fill="none" xmlns="http://www.w3.org/2000/svg">
<path d="M39.2364 0.0906654V10.7547H37.116V6.29264H32.2347V10.7547H30.1208V0.0906654H32.2347V4.60237H37.116V0.0906654H39.2364ZM15.6758 0.0906654H14.773L10.1824 10.7547H12.4012L15.6233 3.05242H15.7304L18.922 10.7547H21.1692L16.5786 0.0906654H15.6758ZM20.8435 8.41897L20.8653 8.47294C21.0162 8.86151 21.8949 10.9015 24.7826 11.0116C29.4126 11.1864 29.3295 8.23548 29.3295 7.62888C29.2983 7.14003 29.1364 6.66809 28.8603 6.26117C28.5842 5.85426 28.2038 5.52694 27.7578 5.31259C26.0221 4.40593 23.0666 4.51602 23.0666 2.76747C23.0666 2.23211 23.5497 1.47224 24.9816 1.45497C26.3697 1.42907 27.0954 2.31846 27.1938 2.82359L28.7765 2.36379C28.4967 1.75287 27.9021 0.0453327 24.9072 0.0453327C24.3749 0.032575 23.8441 0.105486 23.3355 0.261204C21.4774 0.882912 21.1495 2.29903 21.1495 3.00492C21.1736 7.0892 27.3162 6.02712 27.2463 8.13834C27.2222 8.91116 26.4549 9.52423 24.9138 9.45731C23.3158 9.39255 22.7693 8.42329 22.5092 7.85771L20.8435 8.41897ZM5.53057 1.63199C6.91868 1.60392 7.7428 2.31414 7.89363 2.7869L9.58778 2.32925C9.30579 1.72697 8.33302 0.125205 5.58959 0C0.391293 0 0 4.81608 0 5.30395C0 10.3748 3.81456 10.9382 5.29886 11.0051C6.7566 11.0554 8.21582 10.9643 9.65555 10.7331V4.60237H4.2933V6.29696H7.64224C7.65057 6.29694 7.6586 6.30005 7.66469 6.30567C7.67078 6.31128 7.67448 6.31897 7.67503 6.32718V9.29973C7.67416 9.30865 7.67085 9.31718 7.66547 9.3244C7.66008 9.33163 7.65281 9.33727 7.64443 9.34074C6.97506 9.45066 6.29597 9.4919 5.61801 9.46379C5.14802 9.44868 2.20567 9.3321 2.20567 5.5263C2.20567 3.07832 3.44294 1.65357 5.53057 1.64062" fill="#E72E6B"/>
</svg>
