<svg width="31" height="30" viewBox="0 0 31 30" fill="none" xmlns="http://www.w3.org/2000/svg">
<path d="M0.276487 18.3511C-0.140864 15.6638 -0.167093 12.4016 0.772541 9.77813C1.5818 7.51503 2.78774 5.6257 4.39037 4.11013C6.68698 1.69248 10.1999 0.180857 13.4314 0.0294579C15.3607 -0.0628007 17.7408 0.0412927 19.6225 0.63506C25.4296 2.46367 29.7462 7.63726 30.0968 13.7926C30.189 15.3996 30.0268 17.0705 29.6102 18.8053C28.8185 22.1077 26.8438 24.6602 24.2491 26.749C22.4104 28.2322 20.6861 29.0626 18.4658 29.6492C16.8131 30.0845 14.9314 30.0348 13.2597 29.9213C11.0346 29.7675 8.56148 28.9159 6.82054 27.7142C6.24817 27.3183 5.50966 26.6977 4.605 25.8524C2.62796 24.0049 0.658064 21.081 0.276487 18.3511Z" fill="black"/>
<path d="M18.1845 8.12689C18.1954 8.19206 18.2238 8.25321 18.2668 8.30397C18.3099 8.35473 18.3659 8.39324 18.4292 8.41549C19.7783 8.88861 21.4314 9.49184 21.8495 11.0035C22.3055 12.6452 20.1844 12.2975 19.346 12.34C18.6548 12.3755 18.0586 11.4695 17.5907 11.0626C17.5612 11.0367 17.5256 11.0187 17.4872 11.0104C17.4488 11.0021 17.4089 11.0037 17.3713 11.0151C17.3336 11.0264 17.2996 11.0472 17.2723 11.0754C17.245 11.1036 17.2254 11.1383 17.2154 11.1762L16.8116 12.6901C16.795 12.7541 16.8043 12.8221 16.8377 12.8792C16.871 12.9364 16.9257 12.9781 16.9898 12.9953C18.5099 13.3927 20.7806 14.3721 19.8971 16.397C19.2842 17.7951 16.9233 19.2571 15.396 18.9519C15.3085 18.9344 15.2178 18.9435 15.1356 18.9781C15.0534 19.0127 14.9836 19.0712 14.9352 19.1459C14.5647 19.7136 14.2155 20.9248 13.2536 20.3736C12.712 20.0629 12.4903 19.6135 12.5885 19.0252C12.6027 18.9443 12.585 18.861 12.5391 18.7923C12.4931 18.7237 12.4224 18.675 12.3415 18.6562C11.1016 18.3629 8.89269 17.0736 9.46987 15.4745C9.48442 15.4344 9.51135 15.4001 9.54677 15.3763C9.5822 15.3524 9.6243 15.3404 9.66701 15.342C10.264 15.3656 10.8578 15.4185 11.4484 15.5005C12.0042 15.5762 12.3035 16.2953 12.6075 16.7093C12.6435 16.7585 12.6936 16.7956 12.7512 16.8158C12.8088 16.836 12.8712 16.8383 12.9302 16.8224C12.9891 16.8065 13.0418 16.7732 13.0813 16.7268C13.1209 16.6804 13.1453 16.6232 13.1514 16.5626L13.2631 15.413C13.2751 15.2901 13.2421 15.1671 13.1701 15.0663C13.0982 14.9655 12.992 14.8937 12.8712 14.8641C11.3748 14.4998 8.59341 13.6222 8.87844 11.5239C9.16584 9.38776 11.6883 8.53614 13.617 8.50775C13.6579 8.50783 13.6982 8.49794 13.7342 8.47896C13.7703 8.45998 13.801 8.43249 13.8236 8.39893C13.9962 8.14975 14.1102 7.87377 14.1657 7.57097C14.1849 7.46191 14.2386 7.36182 14.3189 7.28525C14.3992 7.20867 14.502 7.15959 14.6122 7.14516C15.6478 7.00953 16.6826 7.01111 17.7166 7.14989C17.8074 7.16231 17.8918 7.20343 17.9576 7.26726C18.0234 7.33108 18.0671 7.41428 18.0824 7.50473L18.1845 8.12689ZM13.8878 12.5245L13.997 10.9514C14.0048 10.8332 13.9652 10.7167 13.8868 10.6275C13.8084 10.5384 13.6977 10.4838 13.579 10.4759L13.5386 10.4736C13.104 10.444 12.6783 10.5452 12.355 10.755C12.0317 10.9648 11.8371 11.266 11.8142 11.5925C11.8031 11.7543 11.8345 11.9175 11.9066 12.0726C11.9788 12.2277 12.0903 12.3718 12.2348 12.4965C12.3793 12.6213 12.5539 12.7244 12.7487 12.7998C12.9434 12.8752 13.1546 12.9216 13.37 12.9362L13.4103 12.9385C13.5287 12.9463 13.6453 12.9072 13.7348 12.8296C13.8242 12.752 13.8792 12.6424 13.8878 12.5245ZM15.5243 16.5248C15.5054 16.6038 15.5082 16.6865 15.5324 16.7641C15.5565 16.8417 15.6011 16.9114 15.6615 16.966C15.7219 17.0206 15.7959 17.0581 15.8758 17.0745C15.9557 17.091 16.0385 17.0857 16.1157 17.0594L16.8069 16.8229C16.9035 16.7899 16.9862 16.7256 17.0418 16.6402C17.0974 16.5549 17.1225 16.4534 17.1133 16.3521L17.0634 15.7844C17.0543 15.6802 17.0094 15.5824 16.9362 15.5074C16.8631 15.4324 16.7663 15.3849 16.662 15.3727L16.225 15.3207C16.1138 15.3079 16.0018 15.3363 15.9102 15.4004C15.8187 15.4645 15.754 15.5599 15.7285 15.6684L15.5243 16.5248Z" fill="white"/>
<path d="M12.092 24.4764C12.9554 24.8829 13.9711 24.5469 14.3607 23.726C14.7504 22.9051 14.3663 21.9101 13.5029 21.5036C12.6395 21.0972 11.6238 21.4332 11.2341 22.2541C10.8445 23.075 11.2286 24.07 12.092 24.4764Z" fill="white"/>
</svg>
