<svg width="32" height="33" viewBox="0 0 32 33" fill="none" xmlns="http://www.w3.org/2000/svg">
<path opacity="0.6" fill-rule="evenodd" clip-rule="evenodd" d="M16.0007 5.04492C14.8514 5.04492 13.7492 5.50147 12.9365 6.31413C12.1239 7.12678 11.6673 8.22898 11.6673 9.37826V12.3783H20.334V9.37826C20.334 8.22898 19.8774 7.12678 19.0648 6.31413C18.2521 5.50147 17.1499 5.04492 16.0007 5.04492ZM22.334 12.3783V9.37826C22.334 7.69855 21.6667 6.08764 20.479 4.89991C19.2913 3.71218 17.6804 3.04492 16.0007 3.04492C14.3209 3.04492 12.71 3.71218 11.5223 4.89991C10.3346 6.08764 9.66732 7.69855 9.66732 9.37826V12.3783H8.00065C7.02819 12.3783 6.09556 12.7646 5.40793 13.4522C4.72029 14.1398 4.33398 15.0725 4.33398 16.0449V25.3783C4.33398 26.3507 4.72029 27.2833 5.40793 27.971C6.09556 28.6586 7.02819 29.0449 8.00065 29.0449H24.0007C24.9731 29.0449 25.9057 28.6586 26.5934 27.971C27.281 27.2833 27.6673 26.3507 27.6673 25.3783V16.0449C27.6673 15.0725 27.281 14.1398 26.5934 13.4522C25.9057 12.7646 24.9731 12.3783 24.0007 12.3783H22.334Z" fill="white"/>
<path fill-rule="evenodd" clip-rule="evenodd" d="M16.0005 17.7114C16.5528 17.7114 17.0005 18.1591 17.0005 18.7114V22.7114C17.0005 23.2637 16.5528 23.7114 16.0005 23.7114C15.4482 23.7114 15.0005 23.2637 15.0005 22.7114V18.7114C15.0005 18.1591 15.4482 17.7114 16.0005 17.7114Z" fill="#2B3843"/>
</svg>
