<svg width="24" height="24" viewBox="0 0 24 24" fill="none" xmlns="http://www.w3.org/2000/svg">
<rect width="24" height="24" rx="4" fill="#2B3843" fill-opacity="0.6"/>
<path fill-rule="evenodd" clip-rule="evenodd" d="M18 6C18.5523 6 19 6.40294 19 6.9V17.1C19 17.5971 18.5523 18 18 18C17.4477 18 17 17.5971 17 17.1V6.9C17 6.40294 17.4477 6 18 6ZM10 7.8C10.5523 7.8 11 8.20294 11 8.7V17.1C11 17.5971 10.5523 18 10 18C9.44772 18 9 17.5971 9 17.1L9 8.7C9 8.20294 9.44772 7.8 10 7.8ZM14 13.2C14.5523 13.2 15 13.6029 15 14.1V17.1C15 17.5971 14.5523 18 14 18C13.4477 18 13 17.5971 13 17.1V14.1C13 13.6029 13.4477 13.2 14 13.2ZM6 13.8C6.55228 13.8 7 14.2029 7 14.7V17.1C7 17.5971 6.55228 18 6 18C5.44772 18 5 17.5971 5 17.1L5 14.7C5 14.2029 5.44772 13.8 6 13.8Z" fill="white"/>
</svg>
