<svg width="24" height="24" viewBox="0 0 24 24" fill="none" xmlns="http://www.w3.org/2000/svg">
<rect width="24" height="24" fill="#2B3843" fill-opacity="0.6"/>
<path fill-rule="evenodd" clip-rule="evenodd" d="M11.9953 4L14.736 5.29616C14.915 5.38081 14.9907 5.59292 14.9051 5.76992C14.8195 5.94692 14.605 6.02178 14.426 5.93713L12.0023 4.79091L9.68957 5.93439C9.51211 6.02214 9.29631 5.95101 9.20758 5.77552C9.11885 5.60003 9.19078 5.38664 9.36824 5.29889L11.9953 4Z" fill="white"/>
<path fill-rule="evenodd" clip-rule="evenodd" d="M12.1149 20L9.37425 18.7038C9.19525 18.6192 9.11954 18.4071 9.20515 18.2301C9.29076 18.0531 9.50526 17.9782 9.68425 18.0629L12.1079 19.2091L14.4206 18.0656C14.5981 17.9779 14.8139 18.049 14.9026 18.2245C14.9914 18.4 14.9194 18.6134 14.742 18.7011L12.1149 20Z" fill="white"/>
<path fill-rule="evenodd" clip-rule="evenodd" d="M11.9992 4.26251C12.1976 4.26251 12.3584 4.42157 12.3584 4.61777V7.3932C12.3584 7.58941 12.1976 7.74846 11.9992 7.74846C11.8007 7.74846 11.6399 7.58941 11.6399 7.3932V4.61777C11.6399 4.42157 11.8007 4.26251 11.9992 4.26251Z" fill="white"/>
<path fill-rule="evenodd" clip-rule="evenodd" d="M11.9995 19.7373C11.8011 19.7373 11.6403 19.5782 11.6403 19.382L11.6403 16.6066C11.6403 16.4104 11.8011 16.2513 11.9995 16.2513C12.1979 16.2513 12.3588 16.4104 12.3588 16.6066L12.3588 19.382C12.3588 19.5782 12.1979 19.7373 11.9995 19.7373Z" fill="white"/>
<path fill-rule="evenodd" clip-rule="evenodd" d="M5 7.83491L7.52867 6.29649C7.69767 6.19368 7.91894 6.2458 8.02291 6.41291C8.12688 6.58002 8.07417 6.79883 7.90518 6.90164L5.71861 8.23193L5.71923 10.8166C5.71927 11.0128 5.55847 11.1719 5.36005 11.1719C5.16164 11.1719 5.00076 11.0129 5.00071 10.8167L5 7.83491Z" fill="white"/>
<path fill-rule="evenodd" clip-rule="evenodd" d="M5.22579 7.99856C5.3069 7.8195 5.51944 7.73936 5.70052 7.81957L7.97592 8.8274C8.15699 8.9076 8.23804 9.11778 8.15693 9.29684C8.07582 9.4759 7.86328 9.55604 7.6822 9.47583L5.4068 8.468C5.22573 8.3878 5.14468 8.17762 5.22579 7.99856Z" fill="white"/>
<path fill-rule="evenodd" clip-rule="evenodd" d="M5.00003 16.0366L7.52875 17.575C7.69774 17.6778 7.91902 17.6257 8.02299 17.4586C8.12696 17.2915 8.07425 17.0727 7.90526 16.9698L5.71864 15.6396L5.71926 13.0549C5.7193 12.8587 5.5585 12.6996 5.36008 12.6996C5.16167 12.6995 5.00078 12.8586 5.00074 13.0548L5.00003 16.0366Z" fill="white"/>
<path fill-rule="evenodd" clip-rule="evenodd" d="M5.22579 15.8742C5.3069 16.0533 5.51945 16.1334 5.70052 16.0532L7.97597 15.0454C8.15704 14.9652 8.23809 14.755 8.15698 14.576C8.07587 14.3969 7.86332 14.3168 7.68225 14.397L5.4068 15.4048C5.22573 15.485 5.14468 15.6952 5.22579 15.8742Z" fill="white"/>
<path fill-rule="evenodd" clip-rule="evenodd" d="M19 16.0366L16.4712 17.575C16.3023 17.6778 16.081 17.6257 15.977 17.4586C15.873 17.2915 15.9257 17.0727 16.0947 16.9699L18.2814 15.6396L18.2808 13.0549C18.2807 12.8587 18.4415 12.6996 18.6399 12.6996C18.8383 12.6995 18.9992 12.8586 18.9993 13.0548L19 16.0366Z" fill="white"/>
<path fill-rule="evenodd" clip-rule="evenodd" d="M18.7725 15.8742C18.6913 16.0533 18.4788 16.1334 18.2977 16.0532L16.0223 15.0454C15.8412 14.9652 15.7601 14.755 15.8413 14.576C15.9224 14.3969 16.1349 14.3168 16.316 14.397L18.5914 15.4048C18.7725 15.485 18.8536 15.6952 18.7725 15.8742Z" fill="white"/>
<path fill-rule="evenodd" clip-rule="evenodd" d="M19 7.83491L16.4713 6.29649C16.3023 6.19368 16.081 6.2458 15.977 6.41291C15.8731 6.58002 15.9258 6.79883 16.0948 6.90164L18.2814 8.23192L18.2808 10.8166C18.2807 11.0128 18.4415 11.1718 18.6399 11.1719C18.8384 11.1719 18.9992 11.0129 18.9993 10.8167L19 7.83491Z" fill="white"/>
<path fill-rule="evenodd" clip-rule="evenodd" d="M18.7725 7.99856C18.6913 7.8195 18.4788 7.73937 18.2977 7.81957L16.0223 8.8274C15.8412 8.9076 15.7602 9.11777 15.8413 9.29683C15.9224 9.47589 16.1349 9.55603 16.316 9.47583L18.5914 8.468C18.7725 8.3878 18.8536 8.17762 18.7725 7.99856Z" fill="white"/>
<path fill-rule="evenodd" clip-rule="evenodd" d="M8.98365 9.56626C9.07238 9.39077 9.28818 9.31964 9.46564 9.40738L11.9959 10.6584L14.4154 9.41017C14.5913 9.31941 14.8083 9.38685 14.9001 9.5608C14.9919 9.73475 14.9237 9.94934 14.7477 10.0401L12.3587 11.2727V13.7218C12.3587 13.918 12.1978 14.077 11.9994 14.077C11.801 14.077 11.6402 13.918 11.6402 13.7218V11.2769L9.14431 10.0429C8.96685 9.95514 8.89492 9.74175 8.98365 9.56626Z" fill="white"/>
</svg>
