<svg width="24" height="24" viewBox="0 0 24 24" fill="none" xmlns="http://www.w3.org/2000/svg">
<rect width="24" height="24" rx="4" fill="#2B3843" fill-opacity="0.6"/>
<path d="M8.01762 8.99998C6.89583 9.00432 6.01164 8.1413 6.00012 7.0318C5.98788 5.91507 6.89295 4.99712 8.0025 5.00001C9.08973 5.0029 9.98688 5.88471 9.99984 6.96241C10.0135 8.10516 9.14662 8.99565 8.0169 8.99998H8.01762Z" fill="white"/>
<path d="M19.7371 16.0675C18.2425 13.9273 16.7371 11.7936 15.2287 9.66122C14.6021 8.77507 13.5457 8.78152 12.9122 9.6691C12.3594 10.4443 11.8151 11.2245 11.2669 12.0033C10.6834 12.8315 10.1052 13.6618 9.51476 14.4856C9.27719 14.8178 9.1834 14.8092 8.94583 14.4735C8.71364 14.1449 8.48915 13.8107 8.2485 13.4871C7.7257 12.7849 6.68932 12.7262 6.15806 13.4184C5.45843 14.3296 4.80262 15.273 4.17449 16.2293C3.74933 16.8771 4.14143 17.7289 4.91487 17.9286C5.14475 17.988 5.39538 17.9973 5.6368 17.9973C9.86535 18.0009 14.0939 18.0009 18.3224 17.9973C18.5123 17.9973 18.7022 17.9651 18.8929 17.9479C18.936 17.9436 18.9798 17.9393 19.0228 17.9358C19.9493 17.6938 20.283 16.8513 19.7355 16.0675H19.7371Z" fill="white"/>
</svg>
