<svg width="24" height="24" viewBox="0 0 24 24" fill="none" xmlns="http://www.w3.org/2000/svg">
<rect width="24" height="24" rx="4" fill="#2B3843" fill-opacity="0.6"/>
<path d="M5.7234 7.66927C5.85542 7.58441 5.97211 7.51015 6.08831 7.43488C6.47053 7.18736 6.85225 6.93883 7.23447 6.6913C7.90892 6.25435 8.58336 5.8184 9.25732 5.38145C9.74931 5.0627 10.2373 4.73738 10.7328 4.4252C10.9326 4.29941 11.1387 4.17262 11.3593 4.09735C11.6812 3.98774 12.0179 3.97864 12.3591 4.03067C12.7883 4.09584 13.1285 4.33629 13.4771 4.56765C13.8222 4.79648 14.1713 5.01925 14.5174 5.24607C14.9817 5.55017 15.4445 5.85679 15.9088 6.1614C16.5269 6.56703 17.1455 6.97217 17.765 7.37528C17.9153 7.47328 18.0706 7.56319 18.2461 7.67079C18.1962 7.71878 18.1665 7.75666 18.129 7.78091C17.5198 8.17796 16.9086 8.57198 16.2999 8.96953C15.6225 9.41154 14.9481 9.8591 14.2697 10.2996C13.6249 10.7179 12.9772 11.1311 12.3289 11.5438C12.1158 11.6797 11.8883 11.6862 11.6757 11.5544C11.1763 11.2457 10.6824 10.9285 10.1884 10.6098C9.59503 10.2274 9.00415 9.84092 8.41278 9.45448C7.82189 9.06804 7.2325 8.67856 6.64112 8.29212C6.37361 8.11734 6.10314 7.94761 5.83564 7.77333C5.79954 7.7501 5.77136 7.71423 5.7229 7.66927H5.7234Z" fill="white"/>
<path d="M12.6889 16.6988C12.6889 15.7098 12.6938 14.7207 12.6864 13.7316C12.6834 13.3648 12.8234 13.1057 13.1319 12.9137C13.6714 12.5783 14.1975 12.2207 14.7305 11.8752C15.6062 11.3074 16.4834 10.7411 17.3596 10.1743C17.8496 9.85759 18.3396 9.54086 18.8316 9.22665C18.8697 9.20241 18.9206 9.19988 18.9656 9.18725C18.976 9.22918 18.9948 9.27111 18.9948 9.31303C18.9962 11.1104 19.0081 12.9082 18.9903 14.7055C18.9824 15.5082 18.6481 16.1518 17.9618 16.5892C17.0406 17.1767 16.1274 17.7763 15.2121 18.3729C14.5416 18.8099 13.8736 19.2504 13.2036 19.6878C13.083 19.7666 12.9589 19.8404 12.8347 19.9141C12.721 19.9813 12.6914 19.9656 12.6904 19.8308C12.6879 19.456 12.6884 19.0816 12.6884 18.7068C12.6884 18.0375 12.6884 17.3682 12.6884 16.6993H12.6894L12.6889 16.6988Z" fill="white"/>
<path d="M5.01088 9.1726C5.06527 9.18675 5.10878 9.18725 5.14043 9.20796C5.64972 9.53934 6.15655 9.87426 6.66535 10.2061C7.17415 10.538 7.68394 10.8684 8.19422 11.1988C8.75939 11.565 9.32506 11.9297 9.89023 12.2954C10.2616 12.5359 10.6359 12.7723 11.0023 13.0198C11.2188 13.1658 11.2945 13.3952 11.297 13.6498C11.3009 14.0241 11.2994 14.3989 11.2994 14.7732C11.2994 16.4523 11.2989 18.1314 11.2975 19.8106C11.2975 19.8626 11.2886 19.9146 11.2811 20C11.1284 19.9116 10.9949 19.8429 10.8698 19.7611C10.2546 19.358 9.64349 18.9493 9.02838 18.5472C8.36481 18.1133 7.6963 17.6869 7.03273 17.253C6.62975 16.9898 6.22775 16.7246 5.83317 16.4493C5.43414 16.1705 5.19482 15.7709 5.08258 15.2981C5.03066 15.0798 5.00445 14.85 5.00346 14.6257C4.99802 12.8749 5.00049 11.1245 5.00099 9.37365C5.00099 9.31253 5.00692 9.2509 5.01088 9.1726Z" fill="white"/>
</svg>
