<svg width="21" height="21" viewBox="0 0 21 21" fill="none" xmlns="http://www.w3.org/2000/svg">
<circle cx="10.4993" cy="7.52855" r="4.52855" stroke="#26D07C" stroke-width="2" stroke-linecap="round" stroke-linejoin="round"/>
<path d="M13.6976 11.5631L14.1902 10.6929L13.6976 11.5631ZM13.6295 11.582L12.7592 11.0894V11.0894L13.6295 11.582ZM13.6484 11.6502L13.1558 12.5204V12.5204L13.6484 11.6502ZM7.15375 11.7665L7.67734 12.6185L7.67734 12.6185L7.15375 11.7665ZM7.17017 11.6977L8.02214 11.1742L8.02214 11.1741L7.17017 11.6977ZM7.10139 11.6813L6.5778 10.8294L6.5778 10.8294L7.10139 11.6813ZM14.1902 10.6929C13.6856 10.4072 13.0449 10.5848 12.7592 11.0894L14.4997 12.0746C14.2413 12.5312 13.6616 12.6918 13.205 12.4334L14.1902 10.6929ZM18.0004 17.2237C18.0004 14.4212 16.4628 11.9792 14.1902 10.6929L13.205 12.4334C14.8761 13.3793 16.0004 15.1708 16.0004 17.2237H18.0004ZM16.9504 18.2737C17.5303 18.2737 18.0004 17.8036 18.0004 17.2237H16.0004C16.0004 16.699 16.4257 16.2737 16.9504 16.2737V18.2737ZM15.9004 17.2237C15.9004 17.8036 16.3705 18.2737 16.9504 18.2737V16.2737C17.475 16.2737 17.9004 16.699 17.9004 17.2237H15.9004ZM13.1558 12.5204C14.7967 13.4492 15.9004 15.2082 15.9004 17.2237H17.9004C17.9004 14.4587 16.3835 12.0492 14.141 10.7799L13.1558 12.5204ZM12.7592 11.0894C12.4736 11.5941 12.6511 12.2348 13.1558 12.5204L14.141 10.7799C14.5976 11.0384 14.7582 11.618 14.4997 12.0746L12.7592 11.0894ZM7.67734 12.6185C8.1714 12.3149 8.32576 11.6682 8.02214 11.1742L6.3182 12.2213C6.04349 11.7743 6.18315 11.1893 6.63016 10.9145L7.67734 12.6185ZM5.1 17.2231C5.1 15.2769 6.12887 13.5701 7.67734 12.6185L6.63016 10.9145C4.51437 12.2148 3.1 14.5534 3.1 17.2231H5.1ZM4.05 18.2731C4.62991 18.2731 5.1 17.803 5.1 17.2231H3.1C3.1 16.6984 3.52532 16.2731 4.05 16.2731V18.2731ZM3 17.2231C3 17.803 3.47009 18.2731 4.05 18.2731V16.2731C4.57468 16.2731 5 16.6984 5 17.2231H3ZM6.5778 10.8294C4.43367 12.1471 3 14.5172 3 17.2231H5C5 15.2408 6.04812 13.5024 7.62498 12.5333L6.5778 10.8294ZM8.02214 11.1741C7.7185 10.6801 7.07185 10.5257 6.5778 10.8294L7.62498 12.5333C7.17798 12.808 6.59291 12.6683 6.3182 12.2213L8.02214 11.1741Z" fill="#26D07C"/>
</svg>
