<svg width="24" height="24" viewBox="0 0 24 24" fill="none" xmlns="http://www.w3.org/2000/svg">
<path fill-rule="evenodd" clip-rule="evenodd" d="M16 6H8C6.89543 6 6 6.89543 6 8V16C6 17.1046 6.89543 18 8 18H16C17.1046 18 18 17.1046 18 16V8C18 6.89543 17.1046 6 16 6ZM8 4C5.79086 4 4 5.79086 4 8V16C4 18.2091 5.79086 20 8 20H16C18.2091 20 20 18.2091 20 16V8C20 5.79086 18.2091 4 16 4H8Z" fill="#2B3843"/>
<path fill-rule="evenodd" clip-rule="evenodd" d="M8.5 11C8.5 10.4477 8.94772 10 9.5 10H14.5C15.0523 10 15.5 10.4477 15.5 11C15.5 11.5523 15.0523 12 14.5 12H9.5C8.94772 12 8.5 11.5523 8.5 11Z" fill="#2B3843"/>
<path fill-rule="evenodd" clip-rule="evenodd" d="M8.5 14C8.5 13.4477 8.94772 13 9.5 13H11.5C12.0523 13 12.5 13.4477 12.5 14C12.5 14.5523 12.0523 15 11.5 15H9.5C8.94772 15 8.5 14.5523 8.5 14Z" fill="#2B3843"/>
</svg>
