<svg width="26" height="24" viewBox="0 0 26 24" fill="none" xmlns="http://www.w3.org/2000/svg">
<path fill-rule="evenodd" clip-rule="evenodd" d="M2.1155 8.49662C2.23262 8.80232 2.53037 9.00042 2.85758 8.99035C3.1848 8.98027 3.4698 8.76424 3.56789 8.45191C4.46691 5.58954 6.57855 3.26156 9.3008 2.07216C9.69014 1.90204 9.86787 1.44851 9.69776 1.05916C9.52764 0.669814 9.07411 0.49209 8.68476 0.662203C6.16895 1.76141 4.10755 3.70614 2.85973 6.13839L2.48795 5.16797C2.33594 4.77121 1.89107 4.57279 1.4943 4.7248C1.09753 4.87681 0.899118 5.32168 1.05113 5.71845L2.1155 8.49662ZM5.93553 8.30935C5.59449 8.48538 5.38025 8.83707 5.38025 9.22085V15.091C5.38025 15.4776 5.59753 15.8313 5.94232 16.006L11.8218 18.9856V19.0293H11.9079L12.1398 19.1468C12.4313 19.2945 12.7757 19.2945 13.0672 19.1468L13.2991 19.0293H13.3218V19.0178L19.2647 16.006C19.6094 15.8313 19.8267 15.4776 19.8267 15.091V9.23121C19.8267 8.84201 19.6065 8.48633 19.258 8.31291L12.9377 5.16702C12.6451 5.02138 12.3005 5.0239 12.0101 5.17382L5.93553 8.30935ZM13.3218 17.2928L18.2881 14.776V10.3006L13.3218 12.8061V17.2928ZM11.8218 12.8037L6.91891 10.3077V14.776L11.8218 17.2607V12.8037ZM12.4848 6.66034L17.3186 9.0663L12.5739 11.46L7.84762 9.05392L12.4848 6.66034ZM23.142 15.0447C23.4692 15.0346 23.7669 15.2327 23.884 15.5384L24.9484 18.3166C25.1004 18.7133 24.902 19.1582 24.5052 19.3102C24.1085 19.4622 23.6636 19.2638 23.5116 18.867L23.1398 17.8966C21.892 20.3289 19.8306 22.2736 17.3148 23.3728C16.9254 23.5429 16.4719 23.3652 16.3018 22.9759C16.1317 22.5865 16.3094 22.133 16.6987 21.9629C19.421 20.7735 21.5326 18.4455 22.4317 15.5831C22.5297 15.2708 22.8147 15.0547 23.142 15.0447Z" fill="#2B3843"/>
<path fill-rule="evenodd" clip-rule="evenodd" d="M9.55995 1.11887C9.42301 0.805431 9.0579 0.662358 8.74447 0.799303C6.26047 1.88461 4.22494 3.80491 2.99284 6.20651C2.96583 6.25917 2.91037 6.29102 2.85128 6.28782C2.79218 6.28462 2.74049 6.24697 2.71931 6.1917L2.34752 5.22129C2.22515 4.90188 1.86702 4.74215 1.54761 4.86452C1.22821 4.98689 1.06848 5.34503 1.19085 5.66443L2.25523 8.4426C2.34951 8.6887 2.5892 8.84817 2.85262 8.84007C3.11603 8.83196 3.34546 8.65804 3.42443 8.40661C4.33656 5.50249 6.47873 3.14097 9.24039 1.93435C9.55383 1.79741 9.6969 1.4323 9.55995 1.11887ZM8.62436 0.524397C9.08962 0.321116 9.63158 0.533493 9.83486 0.998754C10.0381 1.46402 9.82576 2.00598 9.3605 2.20926C6.67768 3.38143 4.59655 5.67589 3.71065 8.49651C3.59343 8.86973 3.25286 9.12789 2.86185 9.13992C2.47084 9.15196 2.11504 8.91523 1.97508 8.54993L0.910706 5.77176C0.729058 5.29764 0.966159 4.76603 1.44029 4.58438C1.91441 4.40273 2.44602 4.63983 2.62767 5.11396L2.88147 5.77642C4.15718 3.45051 6.17863 1.59298 8.62436 0.524397ZM12.8705 5.30095C12.6207 5.17661 12.3265 5.17876 12.0785 5.30676L6.00398 8.44229C5.71281 8.59258 5.5299 8.89284 5.5299 9.2205V15.0907C5.5299 15.4207 5.71541 15.7227 6.00978 15.8719L11.8892 18.8515C11.9041 18.859 11.9174 18.8689 11.9287 18.8804C11.9449 18.8828 11.9607 18.8877 11.9754 18.8951L12.2072 19.0127C12.4561 19.1388 12.7502 19.1388 12.999 19.0127L13.2309 18.8951C13.2347 18.8932 13.2386 18.8915 13.2425 18.8899C13.2461 18.8877 13.2498 18.8856 13.2536 18.8836L19.1965 15.8719C19.4909 15.7227 19.6764 15.4207 19.6764 15.0907V9.23086C19.6764 8.89857 19.4883 8.5949 19.1908 8.44684L12.8705 5.30095ZM13.4332 19.1289L19.3321 16.1395C19.7273 15.9392 19.9764 15.5337 19.9764 15.0907V9.23086C19.9764 8.78475 19.7239 8.37706 19.3245 8.17827L13.0042 5.03238C12.6688 4.86544 12.2739 4.86834 11.9409 5.04018L5.86637 8.1757C5.47547 8.37748 5.2299 8.78059 5.2299 9.2205V15.0907C5.2299 15.5337 5.47896 15.9392 5.87416 16.1395L11.6812 19.0824C11.7027 19.1388 11.7574 19.1789 11.8214 19.1789H11.8717L12.0716 19.2803C12.4057 19.4496 12.8005 19.4496 13.1346 19.2803L13.3359 19.1783C13.3745 19.1746 13.4088 19.1563 13.4332 19.1289ZM12.4157 6.52669C12.4581 6.50477 12.5085 6.5044 12.5513 6.5257L17.3851 8.93166C17.4359 8.95696 17.4681 9.00877 17.4683 9.06554C17.4684 9.12231 17.4365 9.1743 17.3858 9.19987L12.6411 11.5936C12.5984 11.6151 12.5481 11.615 12.5055 11.5933L7.77921 9.18725C7.72907 9.16172 7.69742 9.11026 7.69727 9.05399C7.69711 8.99772 7.72846 8.94609 7.77847 8.92028L12.4157 6.52669ZM12.4857 6.82815L8.17608 9.05265L12.5738 11.2915L16.9834 9.06685L12.4857 6.82815ZM18.3664 10.1725C18.4107 10.1998 18.4377 10.2481 18.4377 10.3002V14.7756C18.4377 14.8321 18.4059 14.8839 18.3555 14.9094L13.3892 17.4263C13.3427 17.4498 13.2873 17.4476 13.2429 17.4203C13.1985 17.393 13.1714 17.3446 13.1714 17.2925V12.8058C13.1714 12.7491 13.2033 12.6973 13.2538 12.6718L18.2202 10.1663C18.2667 10.1428 18.322 10.1452 18.3664 10.1725ZM6.84016 10.1795C6.88465 10.1522 6.94011 10.15 6.98661 10.1737L11.8895 12.6697C11.9397 12.6953 11.9714 12.7469 11.9714 12.8033V17.2603C11.9714 17.3124 11.9443 17.3608 11.8999 17.3881C11.8555 17.4154 11.8001 17.4177 11.7536 17.3941L6.85075 14.9094C6.80033 14.8839 6.76856 14.8321 6.76856 14.7756V10.3073C6.76856 10.2552 6.79567 10.2067 6.84016 10.1795ZM13.4714 12.8981V17.0483L18.1377 14.6835V10.5439L13.4714 12.8981ZM7.06856 10.552V14.6835L11.6714 17.0161V12.8953L7.06856 10.552ZM23.137 14.8944C23.528 14.8824 23.8838 15.1191 24.0238 15.4844L25.0881 18.2626C25.2698 18.7367 25.0327 19.2683 24.5586 19.4499C24.0844 19.6316 23.5528 19.3945 23.3712 18.9204L23.1174 18.2579C21.8417 20.5838 19.8202 22.4413 17.3745 23.5099C16.9092 23.7132 16.3673 23.5008 16.164 23.0356C15.9607 22.5703 16.1731 22.0283 16.6383 21.8251C19.3212 20.6529 21.4023 18.3584 22.2882 15.5378C22.4054 15.1646 22.746 14.9064 23.137 14.8944ZM23.7436 15.5917C23.6493 15.3456 23.4096 15.1861 23.1462 15.1943C22.8828 15.2024 22.6534 15.3763 22.5744 15.6277C21.6623 18.5318 19.5201 20.8933 16.7585 22.1C16.445 22.2369 16.3019 22.602 16.4389 22.9155C16.5758 23.2289 16.9409 23.372 17.2544 23.235C19.7384 22.1497 21.7739 20.2294 23.006 17.8278C23.033 17.7752 23.0885 17.7433 23.1476 17.7465C23.2067 17.7497 23.2584 17.7873 23.2795 17.8426L23.6513 18.813C23.7737 19.1324 24.1318 19.2922 24.4512 19.1698C24.7706 19.0474 24.9304 18.6893 24.808 18.3699L23.7436 15.5917Z" fill="#2B3843"/>
</svg>
