<svg width="131" height="116" viewBox="0 0 131 116" fill="none" xmlns="http://www.w3.org/2000/svg">
<g clip-path="url(#clip0_12596_186651)">
<path d="M2.07487 34.9367C0.629215 28.4688 4.70049 22.0537 11.1683 20.608L65.8198 8.39264C72.2876 6.94698 78.7027 11.0183 80.1484 17.4861L95.6358 86.7763C97.0814 93.2442 93.0102 99.6593 86.5424 101.105L31.8909 113.32C25.4231 114.766 19.0079 110.695 17.5623 104.227L2.07487 34.9367Z" fill="#F4F4F4"/>
<path d="M41.061 10.9496C41.668 4.35 47.5102 -0.507876 54.1097 0.0991896L101.497 4.45811C104.632 4.74652 107.528 6.25559 109.561 8.65993L122.615 24.0992C124.692 26.5556 125.695 29.743 125.401 32.9461L119.738 94.5076C119.131 101.107 113.289 105.965 106.689 105.358L44.9498 99.6788C38.3502 99.0717 33.4924 93.2296 34.0994 86.63L41.061 10.9496Z" fill="white"/>
<path fill-rule="evenodd" clip-rule="evenodd" d="M125.224 34.8699L123.232 34.6867L123.409 32.7629C123.47 32.0987 123.464 31.4355 123.394 30.7823L125.383 30.5693C125.467 31.3533 125.474 32.1492 125.401 32.9461L125.224 34.8699ZM123.962 26.0573L122.21 27.0222C121.893 26.4468 121.518 25.8999 121.087 25.3905L120 24.1039L121.527 22.8126L122.615 24.0992C123.131 24.7104 123.582 25.3667 123.962 26.0573ZM119.351 20.2394L117.824 21.5307L115.648 18.9575L117.176 17.6662L119.351 20.2394ZM115 15.093L113.473 16.3843L111.297 13.811L112.825 12.5198L115 15.093ZM110.649 9.94654L109.122 11.2378L108.034 9.95122C107.612 9.45255 107.146 9.00021 106.644 8.59825L107.893 7.03636C108.496 7.51877 109.055 8.06163 109.561 8.65993L110.649 9.94654ZM56.0842 0.280812L55.901 2.2724L53.9265 2.09078C53.2589 2.02937 52.6026 2.03497 51.9635 2.1014L51.7567 0.112118C52.5247 0.0322839 53.3117 0.0257798 54.1097 0.0991896L56.0842 0.280812ZM47.2852 1.50118L48.2409 3.25805C47.0872 3.88567 46.065 4.73567 45.2374 5.75553L43.6844 4.49534C44.6767 3.27247 45.9018 2.25373 47.2852 1.50118ZM34.2735 84.738L36.2651 84.9212L36.091 86.8132C36.0296 87.4808 36.0352 88.1372 36.1016 88.7763L34.1124 88.9831C34.0325 88.2151 34.026 87.4281 34.0994 86.63L34.2735 84.738ZM35.5014 93.4545L37.2583 92.4988C37.8859 93.6525 38.7359 94.6748 39.7558 95.5023L38.4956 97.0553C37.2727 96.0631 36.254 94.8379 35.5014 93.4545ZM104.76 105.18L104.943 103.189L106.872 103.366C107.54 103.428 108.196 103.422 108.835 103.356L109.042 105.345C108.274 105.425 107.487 105.431 106.689 105.358L104.76 105.18ZM113.514 103.956L112.558 102.199C113.712 101.571 114.734 100.721 115.561 99.7016L117.114 100.962C116.122 102.185 114.897 103.203 113.514 103.956ZM124.87 38.7175L122.878 38.5343L122.524 42.3819L124.516 42.5651L124.87 38.7175ZM124.162 46.4127L122.17 46.2295L121.816 50.0771L123.808 50.2603L124.162 46.4127ZM123.454 54.1079L121.462 53.9247L121.109 57.7723L123.1 57.9555L123.454 54.1079ZM122.746 61.8031L120.755 61.6199L120.401 65.4675L122.392 65.6507L122.746 61.8031ZM122.038 69.4982L120.047 69.315L119.693 73.1626L121.684 73.3458L122.038 69.4982ZM121.331 77.1934L119.339 77.0102L118.985 80.8578L120.977 81.041L121.331 77.1934ZM120.623 84.8886L118.631 84.7054L118.277 88.553L120.269 88.7362L120.623 84.8886ZM119.915 92.5838L117.923 92.4006L117.746 94.3244C117.685 94.992 117.56 95.6363 117.378 96.2525L119.296 96.8187C119.515 96.0782 119.664 95.3056 119.738 94.5076L119.915 92.5838ZM100.901 104.826L101.084 102.834L97.2256 102.479L97.0424 104.471L100.901 104.826ZM93.1837 104.116L93.3669 102.124L89.5082 101.769L89.325 103.761L93.1837 104.116ZM85.4662 103.406L85.6494 101.414L81.7907 101.059L81.6075 103.051L85.4662 103.406ZM77.7488 102.696L77.932 100.704L74.0733 100.349L73.8901 102.341L77.7488 102.696ZM70.0314 101.986L70.2146 99.9943L66.3559 99.6394L66.1727 101.631L70.0314 101.986ZM62.314 101.276L62.4972 99.2845L58.6385 98.9295L58.4553 100.921L62.314 101.276ZM54.5966 100.566L54.7798 98.5746L50.9211 98.2196L50.7379 100.211L54.5966 100.566ZM46.8791 99.8563L47.0623 97.8647L45.133 97.6872C44.4654 97.6258 43.8211 97.5005 43.2048 97.3186L42.6386 99.2368C43.3792 99.4554 44.1517 99.6054 44.9498 99.6788L46.8791 99.8563ZM34.6215 80.954L36.6131 81.1372L36.9612 77.3532L34.9696 77.17L34.6215 80.954ZM35.3177 73.386L37.3093 73.5692L37.6574 69.7851L35.6658 69.6019L35.3177 73.386ZM36.0139 65.8179L38.0054 66.0011L38.3535 62.2171L36.3619 62.0339L36.0139 65.8179ZM36.71 58.2499L38.7016 58.4331L39.0497 54.649L37.0581 54.4658L36.71 58.2499ZM37.4062 50.6818L39.3978 50.865L39.7458 47.081L37.7542 46.8978L37.4062 50.6818ZM38.1023 43.1138L40.0939 43.297L40.442 39.5129L38.4504 39.3297L38.1023 43.1138ZM38.7985 35.5457L40.7901 35.7289L41.1381 31.9449L39.1465 31.7617L38.7985 35.5457ZM39.4946 27.9777L41.4862 28.1609L41.8343 24.3768L39.8427 24.1936L39.4946 27.9777ZM40.1908 20.4096L42.1824 20.5928L42.5304 16.8088L40.5389 16.6256L40.1908 20.4096ZM40.8869 12.8416L42.8785 13.0248L43.0526 11.1327C43.114 10.4652 43.2392 9.82083 43.4211 9.2046L41.5029 8.63838C41.2843 9.37891 41.1344 10.1515 41.061 10.9496L40.8869 12.8416ZM60.0331 0.644055L59.8499 2.63565L63.7988 2.99889L63.982 1.0073L60.0331 0.644055ZM67.9309 1.37054L67.7477 3.36213L71.6966 3.72538L71.8798 1.73379L67.9309 1.37054ZM75.8287 2.09703L75.6455 4.08862L79.5944 4.45187L79.7776 2.46027L75.8287 2.09703ZM83.7265 2.82352L83.5433 4.81511L87.4922 5.17835L87.6754 3.18676L83.7265 2.82352ZM91.6243 3.55L91.4411 5.5416L95.3901 5.90484L95.5732 3.91325L91.6243 3.55ZM99.5222 4.27649L99.339 6.26808L101.313 6.44971C101.964 6.50952 102.601 6.63232 103.219 6.8139L103.783 4.89516C103.042 4.67723 102.277 4.52988 101.497 4.45811L99.5222 4.27649Z" fill="#DDDDDD"/>
<path d="M85.1064 39.5167C87.4101 39.9274 89.181 40.8649 90.3712 42.3935C91.5676 43.8867 91.9731 45.7143 91.5876 47.8762C91.2716 49.6483 90.5518 51.0192 89.499 52.0016C89.1168 52.2992 87.9184 53.0728 85.9518 54.258C85.2254 54.6404 84.6573 55.1608 84.2245 55.7418C83.7437 56.3874 83.4275 57.1355 83.2758 57.9861L83.1874 58.4823L79.1117 57.7556L79.2001 57.2594C79.4403 55.9126 79.8615 54.781 80.5283 53.9126C81.1596 53.0378 82.8072 51.7957 85.4774 50.1509L85.9912 49.7306C86.7682 49.0646 87.2388 48.2709 87.3968 47.3849C87.6053 46.2154 87.4152 45.2307 86.8974 44.4436C86.3441 43.6501 85.444 43.1605 84.239 42.9457C82.7151 42.6739 81.5342 42.9388 80.6548 43.7693C79.9069 44.477 79.4149 45.596 79.1431 47.1199L75.1029 46.3995C75.5705 43.7769 76.6813 41.854 78.5061 40.6436C80.2955 39.4268 82.4838 39.049 85.1064 39.5167ZM80.8221 59.8524C81.6018 59.9914 82.231 60.3596 82.6741 60.9505C83.0818 61.5352 83.2516 62.2237 83.1126 63.0034C82.9735 63.7831 82.5699 64.4059 81.9853 64.8136C81.3298 65.2087 80.6476 65.343 79.8679 65.204C79.0882 65.0649 78.5008 64.6677 78.0931 64.083C77.6145 63.4857 77.4802 62.8036 77.6192 62.0239C77.7582 61.2442 78.1201 60.6505 78.7756 60.2554C79.3603 59.8477 80.0424 59.7134 80.8221 59.8524Z" fill="#DDDDDD"/>
<path fill-rule="evenodd" clip-rule="evenodd" d="M104.484 77.3773C117.646 65.9372 120.099 46.1285 109.656 31.755C98.6188 16.5636 77.3563 13.1958 62.1647 24.2332C46.9731 35.2705 43.6056 56.533 54.6428 71.7244C65.0858 86.0979 84.6828 89.8866 99.6303 80.904L120.867 110.134L125.721 106.608L104.484 77.3773ZM104.802 35.2817C113.891 47.7923 111.118 65.3028 98.6074 74.3922C86.0969 83.4816 68.5864 80.7083 59.4969 68.1977C50.4075 55.6872 53.1809 38.1767 65.6914 29.0873C78.2019 19.9978 95.7124 22.7712 104.802 35.2817Z" fill="#CCCCCC"/>
<path d="M103.776 88.689C103.126 87.7953 103.325 86.5446 104.218 85.8954L107.454 83.5442C108.348 82.895 109.599 83.0931 110.248 83.9867L127.294 107.448C128.592 109.235 128.196 111.737 126.409 113.035C124.621 114.334 122.12 113.938 120.821 112.15L103.776 88.689Z" fill="#ADADAD"/>
</g>
<defs>
<clipPath id="clip0_12596_186651">
<rect width="130" height="115" fill="white" transform="translate(0.5 0.25)"/>
</clipPath>
</defs>
</svg>
