<svg width="204" height="145" viewBox="0 0 204 145" fill="none" xmlns="http://www.w3.org/2000/svg">
<path d="M102 145C157.982 145 203.364 136.669 203.364 126.393C203.364 116.117 157.982 107.787 102 107.787C46.0181 107.787 0.635742 116.117 0.635742 126.393C0.635742 136.669 46.0181 145 102 145Z" fill="#EFEFEF"/>
<path d="M50.3335 113.585L50.6936 118.987H54.8951L55.1352 113.945L50.3335 113.585Z" fill="#F2F2F2"/>
<path d="M55.0152 118.027C55.0152 118.027 55.9756 119.707 58.9767 121.868C61.9777 124.029 62.818 123.548 62.818 124.389C62.9381 125.229 50.4536 124.869 50.4536 124.869V117.906C50.5737 117.906 55.0152 117.786 55.0152 118.027Z" fill="#C1C1C1"/>
<path d="M35.8081 114.305L35.9281 117.786L40.4898 118.026V114.545L35.8081 114.305Z" fill="#F2F2F2"/>
<path d="M40.6102 117.786C40.6102 117.786 41.3305 119.587 44.3316 121.867C47.3327 124.148 48.1729 123.668 48.1729 124.508C48.293 125.349 35.6885 124.628 35.6885 124.628L35.9286 117.666C35.8085 117.546 40.6102 117.666 40.6102 117.786Z" fill="#C1C1C1"/>
<path d="M41.8102 54.5228C41.8102 54.5228 39.5294 59.6846 47.2121 84.0533C47.2121 84.0533 46.852 92.6964 48.5326 115.024H56.2154C56.2154 115.024 57.0557 88.735 57.4158 83.4531C57.7759 78.0512 53.3343 53.4424 53.3343 53.4424L41.8102 54.5228Z" fill="#C1C1C1"/>
<path d="M31.7272 54.5234C31.7272 54.5234 28.366 62.6863 34.3681 83.6939C34.3681 83.6939 33.888 99.5395 34.4882 115.025H42.1709C42.1709 115.025 44.6918 89.0958 45.052 83.6939C45.4121 78.2919 46.9726 53.6831 46.9726 53.6831L31.7272 54.5234Z" fill="#CCCCCC"/>
<path d="M55.8556 16.4698C55.8556 16.4698 61.1375 15.0293 61.1375 14.9092C61.1375 14.309 51.2939 10.1075 51.2939 10.1075L52.8545 7.10645C52.8545 7.10645 62.8181 10.4676 64.7388 11.308C66.6595 12.0282 68.8202 12.8685 68.7002 16.1097C68.5801 19.2308 58.3765 23.5523 58.3765 23.5523L55.8556 16.4698Z" fill="#F2F2F2"/>
<path d="M51.0538 6.26611L52.8544 7.10641L51.2939 10.1075L49.6133 9.0271" fill="#F2F2F2"/>
<path d="M59.5765 23.792C58.7362 24.1521 58.0159 24.5122 57.1756 24.7523C55.9752 25.2325 54.8948 25.7127 53.9344 26.0728C52.1338 26.7931 50.9334 27.2732 50.9334 27.2732L49.2528 23.912L46.6118 18.6301C46.6118 18.6301 46.9719 18.5101 47.6922 18.27C48.6525 18.0299 50.2131 17.5497 51.7737 17.0696C52.9741 16.7094 54.2946 16.3493 55.1349 16.1092C55.615 15.9892 55.9752 15.8691 56.2153 15.8691L59.5765 23.792Z" fill="#CCCCCC"/>
<path d="M49.7332 8.78731L49.4931 9.0274L48.0526 9.14744C47.6925 9.14744 47.3324 9.14744 46.9722 9.0274L45.6518 8.06705C45.6518 8.06705 45.5317 7.58688 46.4921 7.94701C46.7321 8.06705 47.0923 7.94701 47.4524 7.94701L46.6121 7.46684L44.6914 6.14636C44.2112 5.78623 43.8511 5.06598 44.2112 4.46576C44.2112 4.46576 44.8115 3.7455 45.8918 3.86555L47.4524 3.98559C48.1727 4.22568 48.8929 4.22568 49.4931 4.70585L51.0537 6.26641L49.7332 8.78731Z" fill="#F2F2F2"/>
<path d="M54.2953 56.8036C53.3349 58.8443 30.1666 59.8046 30.1666 59.2044V57.7639C30.2867 56.3234 30.4067 54.8829 30.5267 53.5624C30.6468 52.362 30.7668 51.2816 30.8869 50.2012V49.721C31.0069 48.2805 31.127 46.84 31.127 45.3995V41.198C31.127 39.7575 31.0069 38.3169 31.0069 36.8764C30.8869 35.4359 30.8869 33.9954 30.7668 32.5549C30.7668 32.1947 30.7668 31.7146 30.6468 31.3544V30.8743C30.5267 29.9139 30.5267 29.0736 30.4067 28.3534V28.2333C30.4067 27.7532 30.2867 27.273 30.2867 27.0329C30.2867 26.7928 30.1666 26.6728 30.1666 26.4327C30.0466 25.7124 29.9265 24.9922 29.8065 24.3919C29.6864 23.4316 29.5664 22.7113 29.5664 22.2312C29.5664 21.3909 30.0466 20.7907 30.8869 20.3105C32.6875 19.1101 35.9287 18.6299 37.3692 18.6299H38.3295L45.4121 19.1101C45.4121 18.99 45.8923 18.87 45.8923 18.87C46.8526 18.6299 47.933 19.3501 48.6532 20.1904C48.8933 20.5506 49.2535 20.7907 49.3735 21.1508C49.8537 21.871 50.2138 22.9514 50.4539 24.0318C50.694 24.7521 50.814 25.4723 50.814 26.0725C50.814 26.3126 50.9341 26.6728 50.9341 27.393C51.0541 28.4734 51.1741 29.9139 51.2942 31.8346C51.4142 33.035 51.4142 34.3555 51.5343 35.676C51.6543 37.1165 51.7744 38.6771 51.8944 40.1176C52.0145 41.4381 52.1345 42.7585 52.1345 44.079C52.2545 45.6396 52.3746 47.2001 52.4946 48.5206C52.4946 48.8807 52.6147 49.2409 52.6147 49.601C52.7347 50.3212 52.7347 51.0415 52.8548 51.6417C53.2149 53.4424 53.575 55.0029 53.8151 55.9633C54.2953 56.3234 54.4153 56.6835 54.2953 56.8036Z" fill="#E5E5E5"/>
<path d="M38.4494 18.5111C42.2908 20.912 46.2522 18.7512 46.2522 18.7512C45.772 18.3911 45.4119 18.151 45.1718 17.7908C44.3315 16.8305 44.3315 15.8702 44.3315 15.8702C46.8524 15.7501 47.5727 10.2281 47.6927 9.0277C47.8127 8.1874 47.9328 6.02663 46.3722 4.8262L46.1321 4.58611C46.0121 4.70615 45.892 4.58611 45.772 4.58611C45.772 4.58611 45.652 4.58611 45.652 4.46607C45.4119 4.46607 45.2918 4.46607 45.1718 4.34602C45.1718 4.34602 45.0517 4.22598 45.0517 4.10594H44.8117C44.4515 4.22598 43.9714 4.46607 43.4912 4.10594C43.3711 4.10594 43.3711 3.9859 43.2511 3.86585C43.011 3.74581 42.5308 3.86585 42.6509 3.86585H42.4108C37.1289 4.70615 38.6895 10.9484 39.2897 13.4693C39.6498 16.3503 38.0893 18.271 38.4494 18.5111Z" fill="#F2F2F2"/>
<path d="M41.3301 15.0288L44.9314 18.8702L45.1715 17.7898C44.3311 16.8295 44.3312 15.8691 44.3312 15.8691C44.3312 15.8691 42.4105 15.7491 41.3301 15.0288Z" fill="#E1E3E5"/>
<path d="M48.5329 8.66658C48.5329 8.66658 43.1309 6.7459 42.4107 8.18641C41.8104 9.62693 42.0505 10.9474 41.5704 11.0674C41.0902 11.0674 40.61 8.54654 39.6497 9.2668C38.6893 9.98706 39.8898 12.2679 39.1695 13.5883C38.8094 14.0685 37.0087 9.02671 37.729 6.62585C38.5693 4.22499 39.7697 3.38469 43.251 3.26465C44.8115 3.26465 46.6122 3.50473 47.6926 4.22499C49.1331 5.18534 49.2531 7.70624 48.5329 8.66658Z" fill="#C1C1C1"/>
<path d="M44.8116 17.1904L43.3711 19.4712L45.2918 21.3919C45.2918 21.3919 46.8523 18.751 46.6123 18.751C46.4922 18.6309 44.8116 17.1904 44.8116 17.1904Z" fill="#CCCCCC"/>
<path d="M43.3711 19.3512L38.8095 17.1904L37.1289 18.5109L42.4108 21.8721L43.3711 19.3512Z" fill="#CCCCCC"/>
<path d="M32.207 32.7955C32.207 32.7955 34.4878 41.6786 38.2092 44.5597C41.9305 47.4407 58.8566 50.5618 58.8566 50.5618L60.177 46.8405C60.177 46.8405 42.6508 39.998 41.9305 39.1577C41.2103 38.3174 39.1695 30.5146 39.1695 30.5146L32.207 32.7955Z" fill="#F2F2F2"/>
<path d="M60.1769 46.8403L61.6174 47.4405L60.537 51.0418L58.8564 50.5617L60.1769 46.8403Z" fill="#F2F2F2"/>
<path d="M61.3774 47.8007L61.4975 47.4405L63.1781 46.9604C63.6582 46.8403 64.0184 46.8403 64.4985 46.8403L66.2992 47.6806C66.2992 47.6806 66.5393 48.2808 65.4589 48.0408C65.2188 48.0408 64.7386 48.1608 64.3785 48.2808L65.4589 48.641L67.9798 49.6013C68.58 49.8414 69.1802 50.6817 68.9401 51.522C68.9401 51.522 68.4599 52.6024 67.1395 52.6024L65.3388 52.8425C64.3785 52.8425 63.6582 52.9625 62.8179 52.4824L60.5371 51.1619L61.3774 47.8007Z" fill="#F2F2F2"/>
<path d="M39.4097 31.1158L31.4868 34.3569C30.8866 33.0365 30.4064 31.716 30.0463 30.3955C29.6862 29.1951 29.4461 28.1147 29.3261 27.0343C29.086 25.3537 29.086 23.7931 29.3261 22.7128C29.6862 21.5123 30.2864 20.552 31.2467 20.3119C32.6873 19.8317 33.7677 20.1919 34.728 20.9121C35.6883 21.7524 36.4086 22.9528 37.1289 24.5134C37.609 25.5938 37.9692 26.9143 38.3293 27.9947C38.8095 29.075 39.1696 30.1554 39.4097 31.1158Z" fill="#CCCCCC"/>
<path fill-rule="evenodd" clip-rule="evenodd" d="M134.364 92.1811C134.364 100.824 127.401 107.787 118.758 107.787C110.115 107.787 103.153 100.824 103.153 92.1811V91.3408H69.5405L81.0647 57.3686C81.5448 55.9281 82.9853 54.9678 84.4259 54.9678H153.09C154.651 54.9678 155.971 55.9281 156.452 57.3686L167.976 91.3408H134.364C134.364 91.5809 134.364 91.941 134.364 92.1811Z" fill="white"/>
<path fill-rule="evenodd" clip-rule="evenodd" d="M117.678 0C118.518 0 119.118 0.720258 119.118 1.44052V21.6077C119.118 22.448 118.398 23.0483 117.678 23.0483C116.838 23.0483 116.237 22.328 116.237 21.6077V1.44052C116.117 0.600215 116.838 0 117.678 0ZM85.3863 5.52198C85.9865 4.92176 86.9469 5.04181 87.5471 5.64202L100.752 20.5274C101.352 21.1276 101.232 22.0879 100.632 22.6881C100.032 23.2883 99.0712 23.1683 98.471 22.5681L85.2663 7.56271C84.666 6.96249 84.666 6.00215 85.3863 5.52198ZM149.849 5.52198C150.45 6.12219 150.57 6.96249 149.969 7.68275L136.645 22.6881C136.044 23.2883 135.204 23.4084 134.484 22.8082C133.884 22.208 133.764 21.3677 134.364 20.6474L147.689 5.64202C148.289 5.04181 149.249 4.92176 149.849 5.52198Z" fill="#EFEFEF"/>
<path fill-rule="evenodd" clip-rule="evenodd" d="M167.976 91.3408L156.452 57.3686C155.971 55.9281 154.531 54.9678 153.09 54.9678H84.4259C82.8653 54.9678 81.5448 55.9281 81.0647 57.3686L69.5405 91.1607V91.6769L72.4216 91.1727L83.8256 58.329C83.9457 58.0889 84.1858 57.9688 84.4259 57.9688H153.09C153.331 57.9688 153.571 58.0889 153.691 58.329L164.903 91.3408H167.976Z" fill="#CCCCCC"/>
<path d="M147.316 109.395H88.0151C86.2144 109.395 84.7739 107.955 84.7739 106.154V37.6093C84.7739 35.8087 86.2144 34.3682 88.0151 34.3682H147.316C149.117 34.3682 150.557 35.8087 150.557 37.6093V106.154C150.557 107.955 149.117 109.395 147.316 109.395Z" fill="#EFEFEF"/>
<path d="M147.316 110.596H142.514C141.854 110.596 141.314 110.056 141.314 109.395C141.314 108.735 141.854 108.195 142.514 108.195H147.316C147.976 108.195 148.517 108.735 148.517 109.395C148.517 110.056 147.976 110.596 147.316 110.596ZM135.3 110.596H130.498C129.838 110.596 129.298 110.056 129.298 109.395C129.298 108.735 129.838 108.195 130.498 108.195H135.3C135.96 108.195 136.5 108.735 136.5 109.395C136.5 110.056 135.96 110.596 135.3 110.596ZM123.295 110.596H118.494C117.834 110.596 117.293 110.056 117.293 109.395C117.293 108.735 117.834 108.195 118.494 108.195H123.295C123.956 108.195 124.496 108.735 124.496 109.395C124.496 110.056 123.956 110.596 123.295 110.596ZM111.279 110.596H106.477C105.817 110.596 105.277 110.056 105.277 109.395C105.277 108.735 105.817 108.195 106.477 108.195H111.279C111.939 108.195 112.48 108.735 112.48 109.395C112.48 110.056 111.939 110.596 111.279 110.596ZM99.2629 110.596H94.4612C93.8009 110.596 93.2607 110.056 93.2607 109.395C93.2607 108.735 93.8009 108.195 94.4612 108.195H99.2629C99.9231 108.195 100.463 108.735 100.463 109.395C100.463 110.056 99.9231 110.596 99.2629 110.596ZM87.2586 110.512C87.1625 110.512 87.0785 110.512 86.9825 110.476C84.9778 110.008 83.5732 108.231 83.5732 106.154V105.686C83.5732 105.026 84.1134 104.486 84.7737 104.486C85.4339 104.486 85.9741 105.026 85.9741 105.686V106.154C85.9741 107.102 86.6103 107.919 87.5347 108.135C88.1829 108.291 88.579 108.939 88.435 109.575C88.3029 110.128 87.8108 110.5 87.2706 110.5L87.2586 110.512ZM150.557 105.446C149.897 105.446 149.357 104.906 149.357 104.245V99.4437C149.357 98.7835 149.897 98.2433 150.557 98.2433C151.217 98.2433 151.758 98.7835 151.758 99.4437V104.245C151.758 104.906 151.217 105.446 150.557 105.446ZM84.7737 99.6718C84.1134 99.6718 83.5732 99.1316 83.5732 98.4714V93.6697C83.5732 93.0094 84.1134 92.4692 84.7737 92.4692C85.4339 92.4692 85.9741 93.0094 85.9741 93.6697V98.4714C85.9741 99.1316 85.4339 99.6718 84.7737 99.6718ZM150.557 93.4416C149.897 93.4416 149.357 92.9014 149.357 92.2411V87.4394C149.357 86.7792 149.897 86.239 150.557 86.239C151.217 86.239 151.758 86.7792 151.758 87.4394V92.2411C151.758 92.9014 151.217 93.4416 150.557 93.4416ZM84.7737 87.6675C84.1134 87.6675 83.5732 87.1273 83.5732 86.4671V81.6653C83.5732 81.0051 84.1134 80.4649 84.7737 80.4649C85.4339 80.4649 85.9741 81.0051 85.9741 81.6653V86.4671C85.9741 87.1273 85.4339 87.6675 84.7737 87.6675ZM150.557 81.4253C149.897 81.4253 149.357 80.8851 149.357 80.2248V75.4231C149.357 74.7629 149.897 74.2227 150.557 74.2227C151.217 74.2227 151.758 74.7629 151.758 75.4231V80.2248C151.758 80.8851 151.217 81.4253 150.557 81.4253ZM84.7737 75.6512C84.1134 75.6512 83.5732 75.111 83.5732 74.4508V69.649C83.5732 68.9888 84.1134 68.4486 84.7737 68.4486C85.4339 68.4486 85.9741 68.9888 85.9741 69.649V74.4508C85.9741 75.111 85.4339 75.6512 84.7737 75.6512ZM150.557 69.409C149.897 69.409 149.357 68.8688 149.357 68.2085V63.4068C149.357 62.7466 149.897 62.2064 150.557 62.2064C151.217 62.2064 151.758 62.7466 151.758 63.4068V68.2085C151.758 68.8688 151.217 69.409 150.557 69.409ZM84.7737 63.6349C84.1134 63.6349 83.5732 63.0947 83.5732 62.4345V57.6327C83.5732 56.9725 84.1134 56.4323 84.7737 56.4323C85.4339 56.4323 85.9741 56.9725 85.9741 57.6327V62.4345C85.9741 63.0947 85.4339 63.6349 84.7737 63.6349ZM150.557 57.4047C149.897 57.4047 149.357 56.8645 149.357 56.2042V51.4025C149.357 50.7423 149.897 50.2021 150.557 50.2021C151.217 50.2021 151.758 50.7423 151.758 51.4025V56.2042C151.758 56.8645 151.217 57.4047 150.557 57.4047ZM84.7737 51.6306C84.1134 51.6306 83.5732 51.0904 83.5732 50.4302V45.6284C83.5732 44.9682 84.1134 44.428 84.7737 44.428C85.4339 44.428 85.9741 44.9682 85.9741 45.6284V50.4302C85.9741 51.0904 85.4339 51.6306 84.7737 51.6306ZM150.557 45.3884C149.897 45.3884 149.357 44.8482 149.357 44.1879V39.3862C149.357 38.726 149.897 38.1858 150.557 38.1858C151.217 38.1858 151.758 38.726 151.758 39.3862V44.1879C151.758 44.8482 151.217 45.3884 150.557 45.3884ZM84.7737 39.6143C84.1134 39.6143 83.5732 39.0741 83.5732 38.4138V37.6096C83.5732 35.7129 84.7617 34.0323 86.5383 33.4201C87.1625 33.204 87.8468 33.5281 88.0629 34.1643C88.2789 34.7885 87.9548 35.4728 87.3186 35.6889C86.5023 35.977 85.9621 36.7453 85.9621 37.6216V38.4259C85.9621 39.0861 85.4219 39.6263 84.7617 39.6263L84.7737 39.6143ZM146.98 35.5688H142.178C141.518 35.5688 140.978 35.0286 140.978 34.3684C140.978 33.7082 141.518 33.168 142.178 33.168H146.98C147.64 33.168 148.18 33.7082 148.18 34.3684C148.18 35.0286 147.64 35.5688 146.98 35.5688ZM134.964 35.5688H130.162C129.502 35.5688 128.962 35.0286 128.962 34.3684C128.962 33.7082 129.502 33.168 130.162 33.168H134.964C135.624 33.168 136.164 33.7082 136.164 34.3684C136.164 35.0286 135.624 35.5688 134.964 35.5688ZM122.959 35.5688H118.158C117.497 35.5688 116.957 35.0286 116.957 34.3684C116.957 33.7082 117.497 33.168 118.158 33.168H122.959C123.62 33.168 124.16 33.7082 124.16 34.3684C124.16 35.0286 123.62 35.5688 122.959 35.5688ZM110.943 35.5688H106.141C105.481 35.5688 104.941 35.0286 104.941 34.3684C104.941 33.7082 105.481 33.168 106.141 33.168H110.943C111.603 33.168 112.143 33.7082 112.143 34.3684C112.143 35.0286 111.603 35.5688 110.943 35.5688ZM98.9267 35.5688H94.125C93.4648 35.5688 92.9246 35.0286 92.9246 34.3684C92.9246 33.7082 93.4648 33.168 94.125 33.168H98.9267C99.587 33.168 100.127 33.7082 100.127 34.3684C100.127 35.0286 99.587 35.5688 98.9267 35.5688Z" fill="#CCCCCC"/>
<path d="M138.619 41.75H96.3813C93.6854 41.75 91.5 43.8934 91.5 46.5374V87.9626C91.5 90.6066 93.6854 92.75 96.3813 92.75H138.619C141.315 92.75 143.5 90.6066 143.5 87.9626V46.5374C143.5 43.8934 141.315 41.75 138.619 41.75Z" fill="#C1C1C1"/>
<path d="M138.619 41.75H96.3813C93.6854 41.75 91.5 43.8934 91.5 46.5374V87.9626C91.5 90.6066 93.6854 92.75 96.3813 92.75H138.619C141.315 92.75 143.5 90.6066 143.5 87.9626V46.5374C143.5 43.8934 141.315 41.75 138.619 41.75Z" fill="url(#paint0_linear_12479_15329)"/>
<path fill-rule="evenodd" clip-rule="evenodd" d="M103.753 91.3403C103.633 91.9405 104.353 93.6212 104.353 93.6212C104.353 101.424 110.835 107.666 118.758 107.666C126.681 107.666 133.163 101.424 133.163 93.6212C133.163 92.9009 133.163 91.9405 133.043 91.3403H167.976V122.912C167.976 124.832 166.415 126.393 164.374 126.393H73.1418C71.1011 126.393 69.5405 124.832 69.5405 122.912V91.3403H103.753Z" fill="white"/>
<path fill-rule="evenodd" clip-rule="evenodd" d="M69.5405 91.1603V122.792C69.5405 124.832 71.1011 126.393 73.1418 126.393H164.374C166.415 126.393 167.976 124.832 167.976 122.792V91.3404L167.135 88.8555H135.384C134.004 88.9395 133.007 89.5037 132.455 90.5001C131.975 91.3404 131.975 92.3007 131.975 92.6608C131.975 99.7434 126.093 105.625 118.77 105.625C111.448 105.625 105.565 99.8634 105.565 92.6608C105.565 92.3007 105.565 91.3404 105.085 90.5001C104.533 89.4917 103.441 88.9275 102.144 88.8555H86.2145C85.4582 88.9395 84.918 89.5877 84.918 90.26C84.918 90.9802 85.6383 91.7005 86.3586 91.7005H101.604C101.964 91.7005 102.204 91.8205 102.204 91.8205C102.204 91.8205 102.204 91.9406 102.324 92.0606V92.5408C102.324 101.304 109.647 108.386 118.53 108.386C127.413 108.386 134.736 101.304 134.736 92.5408V92.0606C134.736 91.9406 134.736 91.8205 134.856 91.8205C134.856 91.8205 135.096 91.7005 135.456 91.7005H164.867V122.672C164.867 123.032 164.627 123.272 164.266 123.272H73.0218C72.6616 123.272 72.4216 123.032 72.4216 122.672V91.1723H69.5405V91.1603Z" fill="#CCCCCC"/>
<path d="M77.379 88.6992C76.5387 88.6992 75.9385 89.4195 75.9385 90.1397C75.9385 90.86 76.6587 91.5803 77.379 91.5803H80.26C81.1003 91.5803 81.7005 90.86 81.7005 90.1397C81.7005 89.4195 80.9803 88.6992 80.26 88.6992H77.379Z" fill="#CCCCCC"/>
<defs>
<linearGradient id="paint0_linear_12479_15329" x1="91.7886" y1="44.1501" x2="142.325" y2="91.2786" gradientUnits="userSpaceOnUse">
<stop offset="0.06" stop-color="white" stop-opacity="0.1"/>
<stop offset="0.71" stop-color="white" stop-opacity="0.6"/>
<stop offset="1" stop-color="white" stop-opacity="0.2"/>
</linearGradient>
</defs>
</svg>
