<?xml version="1.0" standalone="no"?>
<svg xmlns:xlink="http://www.w3.org/1999/xlink" id="barcode-svg" width="412px" height="116px" x="0px" y="0px" viewBox="0 0 412 116" xmlns="http://www.w3.org/2000/svg" version="1.1" style="transform: translate(0,0)"><rect x="0" y="0" width="412" height="116" style="fill:#FFFFFF;"/><g transform="translate(14, 14)" style="fill:#000000;"><rect x="0" y="0" width="1" height="88"/><rect x="4" y="0" width="1" height="88"/><rect x="6" y="0" width="3" height="88"/><rect x="10" y="0" width="3" height="88"/><rect x="14" y="0" width="1" height="88"/><rect x="16" y="0" width="3" height="88"/><rect x="20" y="0" width="1" height="88"/><rect x="24" y="0" width="1" height="88"/><rect x="26" y="0" width="1" height="88"/><rect x="28" y="0" width="3" height="88"/><rect x="32" y="0" width="3" height="88"/><rect x="36" y="0" width="3" height="88"/><rect x="42" y="0" width="1" height="88"/><rect x="44" y="0" width="1" height="88"/><rect x="46" y="0" width="1" height="88"/><rect x="48" y="0" width="3" height="88"/><rect x="52" y="0" width="1" height="88"/><rect x="56" y="0" width="3" height="88"/><rect x="60" y="0" width="1" height="88"/><rect x="62" y="0" width="1" height="88"/><rect x="64" y="0" width="1" height="88"/><rect x="66" y="0" width="1" height="88"/><rect x="70" y="0" width="3" height="88"/><rect x="74" y="0" width="3" height="88"/><rect x="78" y="0" width="1" height="88"/><rect x="80" y="0" width="1" height="88"/><rect x="82" y="0" width="3" height="88"/><rect x="88" y="0" width="1" height="88"/><rect x="90" y="0" width="3" height="88"/><rect x="94" y="0" width="1" height="88"/><rect x="96" y="0" width="1" height="88"/><rect x="98" y="0" width="1" height="88"/><rect x="102" y="0" width="3" height="88"/><rect x="106" y="0" width="1" height="88"/><rect x="108" y="0" width="3" height="88"/><rect x="112" y="0" width="1" height="88"/><rect x="114" y="0" width="1" height="88"/><rect x="118" y="0" width="1" height="88"/><rect x="120" y="0" width="3" height="88"/><rect x="124" y="0" width="3" height="88"/><rect x="128" y="0" width="3" height="88"/><rect x="132" y="0" width="1" height="88"/><rect x="136" y="0" width="1" height="88"/><rect x="138" y="0" width="3" height="88"/><rect x="142" y="0" width="1" height="88"/><rect x="144" y="0" width="1" height="88"/><rect x="146" y="0" width="3" height="88"/><rect x="152" y="0" width="1" height="88"/><rect x="154" y="0" width="1" height="88"/><rect x="156" y="0" width="3" height="88"/><rect x="160" y="0" width="1" height="88"/><rect x="162" y="0" width="1" height="88"/><rect x="166" y="0" width="3" height="88"/><rect x="170" y="0" width="3" height="88"/><rect x="174" y="0" width="1" height="88"/><rect x="176" y="0" width="1" height="88"/><rect x="178" y="0" width="3" height="88"/><rect x="184" y="0" width="3" height="88"/><rect x="188" y="0" width="1" height="88"/><rect x="190" y="0" width="1" height="88"/><rect x="192" y="0" width="3" height="88"/><rect x="196" y="0" width="3" height="88"/><rect x="202" y="0" width="1" height="88"/><rect x="204" y="0" width="1" height="88"/><rect x="206" y="0" width="1" height="88"/><rect x="208" y="0" width="3" height="88"/><rect x="212" y="0" width="1" height="88"/><rect x="216" y="0" width="1" height="88"/><rect x="218" y="0" width="3" height="88"/><rect x="222" y="0" width="1" height="88"/><rect x="224" y="0" width="3" height="88"/><rect x="228" y="0" width="1" height="88"/><rect x="232" y="0" width="1" height="88"/><rect x="234" y="0" width="1" height="88"/><rect x="236" y="0" width="3" height="88"/><rect x="240" y="0" width="1" height="88"/><rect x="242" y="0" width="3" height="88"/><rect x="248" y="0" width="1" height="88"/><rect x="250" y="0" width="1" height="88"/><rect x="252" y="0" width="3" height="88"/><rect x="256" y="0" width="1" height="88"/><rect x="258" y="0" width="1" height="88"/><rect x="262" y="0" width="1" height="88"/><rect x="264" y="0" width="3" height="88"/><rect x="268" y="0" width="3" height="88"/><rect x="272" y="0" width="1" height="88"/><rect x="274" y="0" width="1" height="88"/><rect x="278" y="0" width="3" height="88"/><rect x="282" y="0" width="1" height="88"/><rect x="284" y="0" width="3" height="88"/><rect x="288" y="0" width="1" height="88"/><rect x="290" y="0" width="3" height="88"/><rect x="296" y="0" width="1" height="88"/><rect x="298" y="0" width="3" height="88"/><rect x="302" y="0" width="1" height="88"/><rect x="304" y="0" width="1" height="88"/><rect x="306" y="0" width="3" height="88"/><rect x="312" y="0" width="1" height="88"/><rect x="314" y="0" width="3" height="88"/><rect x="318" y="0" width="1" height="88"/><rect x="320" y="0" width="1" height="88"/><rect x="322" y="0" width="1" height="88"/><rect x="326" y="0" width="3" height="88"/><rect x="330" y="0" width="3" height="88"/><rect x="334" y="0" width="1" height="88"/><rect x="336" y="0" width="1" height="88"/><rect x="338" y="0" width="3" height="88"/><rect x="344" y="0" width="3" height="88"/><rect x="348" y="0" width="1" height="88"/><rect x="350" y="0" width="1" height="88"/><rect x="352" y="0" width="1" height="88"/><rect x="354" y="0" width="1" height="88"/><rect x="358" y="0" width="1" height="88"/><rect x="360" y="0" width="3" height="88"/><rect x="364" y="0" width="3" height="88"/><rect x="368" y="0" width="1" height="88"/><rect x="372" y="0" width="1" height="88"/><rect x="374" y="0" width="3" height="88"/><rect x="378" y="0" width="3" height="88"/><rect x="382" y="0" width="1" height="88"/></g></svg>