<svg width="154" height="148" viewBox="0 0 154 148" fill="none" xmlns="http://www.w3.org/2000/svg">
<circle opacity="0.199014" cx="81.4033" cy="75.1641" r="71.8486" fill="#FF9500"/>
<circle opacity="0.197992" cx="81.4035" cy="75.1642" r="57.8781" fill="url(#paint0_radial_15159_167156)"/>
<g filter="url(#filter0_d_15159_167156)">
<path fill-rule="evenodd" clip-rule="evenodd" d="M63.066 48.727C60.7633 46.4243 57.0298 46.4243 54.7271 48.727C52.4244 51.0298 52.4244 54.7632 54.7271 57.066L72.4473 74.7861L54.727 92.5064C52.4243 94.8091 52.4243 98.5426 54.727 100.845C57.0298 103.148 60.7632 103.148 63.066 100.845L80.7862 83.125L98.5064 100.845C100.809 103.148 104.543 103.148 106.845 100.845C109.148 98.5425 109.148 94.8091 106.845 92.5064L89.1251 74.7861L106.845 57.066C109.148 54.7633 109.148 51.0298 106.845 48.7271C104.543 46.4243 100.809 46.4243 98.5064 48.7271L80.7862 66.4472L63.066 48.727Z" fill="white"/>
</g>
<path fill-rule="evenodd" clip-rule="evenodd" d="M12.2777 0L3.00977 9.77381L32.3891 32.083L34.9275 29.1977L12.2777 0Z" fill="#FF9500"/>
<path fill-rule="evenodd" clip-rule="evenodd" d="M2.89976 29.5273L0 39.4513L23.3335 42.4896L24.5543 39.2173L2.89976 29.5273Z" fill="#FF9500"/>
<defs>
<filter id="filter0_d_15159_167156" x="43" y="37" width="75.5723" height="75.5723" filterUnits="userSpaceOnUse" color-interpolation-filters="sRGB">
<feFlood flood-opacity="0" result="BackgroundImageFix"/>
<feColorMatrix in="SourceAlpha" type="matrix" values="0 0 0 0 0 0 0 0 0 0 0 0 0 0 0 0 0 0 127 0" result="hardAlpha"/>
<feOffset/>
<feGaussianBlur stdDeviation="5"/>
<feColorMatrix type="matrix" values="0 0 0 0 1 0 0 0 0 0.584314 0 0 0 0 0 0 0 0 1 0"/>
<feBlend mode="normal" in2="BackgroundImageFix" result="effect1_dropShadow_15159_167156"/>
<feBlend mode="normal" in="SourceGraphic" in2="effect1_dropShadow_15159_167156" result="shape"/>
</filter>
<radialGradient id="paint0_radial_15159_167156" cx="0" cy="0" r="1" gradientUnits="userSpaceOnUse" gradientTransform="translate(81.4035 75.1642) rotate(90) scale(57.8781 56.9881)">
<stop stop-color="white"/>
<stop offset="0.474295" stop-color="#FFD18F"/>
<stop offset="1" stop-color="#FF9500"/>
</radialGradient>
</defs>
</svg>
