<svg width="375" height="266" viewBox="0 0 375 266" fill="none" xmlns="http://www.w3.org/2000/svg">
<mask id="mask0_5600_222308" style="mask-type:alpha" maskUnits="userSpaceOnUse" x="0" y="0" width="375" height="266">
<rect width="375" height="266" fill="#C4C4C4"/>
</mask>
<g mask="url(#mask0_5600_222308)">
<path d="M185.005 -47.8135C186.978 -48.5038 186.811 -49.3758 188.179 -50.1914C189.645 -50.844 191.426 -50.6698 192.456 -51.2392C193.485 -51.8086 195.349 -53.2731 194.116 -56.3792C192.883 -59.4854 189.37 -61.4534 184.348 -58.9898C179.326 -56.5263 179.943 -51.8609 180.596 -50.3955C181.249 -48.9302 183.032 -47.1233 185.005 -47.8135Z" fill="#F3F6F8"/>
<path d="M23.1585 19.8512C21.2832 20.774 21.5536 21.6197 20.2935 22.5941C18.9174 23.4185 17.1277 23.4601 16.1744 24.1493C15.2211 24.8385 13.5466 26.517 15.145 29.452C16.7435 32.3869 20.468 33.9175 25.1567 30.867C29.8455 27.8166 28.6707 23.2595 27.8463 21.8834C27.0219 20.5073 25.0338 18.9284 23.1585 19.8512Z" fill="#F3F6F8"/>
<path d="M241.515 82.3653C242.372 80.4592 241.625 79.9797 241.975 78.4258C242.511 76.9136 243.864 75.7413 244.159 74.6028C244.455 73.4642 244.676 71.1036 241.574 69.8599C238.472 68.6161 234.626 69.8094 232.956 75.1479C231.286 80.4864 235.094 83.2503 236.607 83.7857C238.119 84.3211 240.657 84.2714 241.515 82.3653Z" fill="#F3F6F8"/>
<path d="M-0.788744 200.186C0.068727 198.28 -0.678471 197.801 -0.328081 196.247C0.207302 194.735 1.56024 193.562 1.85585 192.424C2.15147 191.285 2.37274 188.925 -0.729221 187.681C-3.83118 186.437 -7.67708 187.631 -9.34741 192.969C-11.0177 198.308 -7.20886 201.071 -5.69669 201.607C-4.18452 202.142 -1.64621 202.093 -0.788744 200.186Z" fill="#F3F6F8"/>
<path d="M387.211 155.186C388.069 153.28 387.321 152.801 387.672 151.247C388.207 149.735 389.56 148.563 389.856 147.424C390.151 146.285 390.373 143.925 387.271 142.681C384.169 141.437 380.323 142.631 378.652 147.969C376.982 153.308 380.791 156.071 382.303 156.607C383.815 157.142 386.354 157.093 387.211 155.186Z" fill="#F3F6F8"/>
<path d="M361.198 56.781C362.251 58.5869 363.075 58.2577 364.136 59.4462C365.055 60.761 365.222 62.5433 365.977 63.4458C366.731 64.3483 368.523 65.9007 371.338 64.1001C374.154 62.2994 375.419 58.4765 372.047 54.0137C368.674 49.5509 364.211 51.043 362.896 51.962C361.581 52.8811 360.146 54.9752 361.198 56.781Z" fill="#F3F6F8"/>
<path d="M174.605 137.166L165.838 134.114L167.49 142.701L174.605 137.166Z" fill="#F3F6F8"/>
<path d="M40.6048 111.166L31.8377 108.114L33.49 116.701L40.6048 111.166Z" fill="#F3F6F8"/>
<path d="M277.605 118.166L268.838 115.114L270.49 123.701L277.605 118.166Z" fill="#F3F6F8"/>
<path d="M316.605 187.166L307.838 184.114L309.49 192.701L316.605 187.166Z" fill="#F3F6F8"/>
<path d="M344.605 44.1664L335.838 41.1143L337.49 49.7008L344.605 44.1664Z" fill="#F3F6F8"/>
<path d="M183.605 -29.8336L174.838 -32.8857L176.49 -24.2992L183.605 -29.8336Z" fill="#F3F6F8"/>
<path d="M-4.39522 0.166359L-13.1623 -2.88567L-11.51 5.70075L-4.39522 0.166359Z" fill="#F3F6F8"/>
<path d="M275.605 -89.8338L266.838 -92.8858L268.49 -84.2994L275.605 -89.8338Z" fill="#F3F6F8"/>
<path d="M195.936 90.7643L204.133 82.0001L212.897 90.197L204.7 98.9612L195.936 90.7643Z" fill="#F3F6F8"/>
<path d="M14.9359 174.764L23.1328 166L31.897 174.197L23.7001 182.961L14.9359 174.764Z" fill="#F3F6F8"/>
<path d="M234.936 19.7643L243.133 11.0001L251.897 19.197L243.7 27.9612L234.936 19.7643Z" fill="#F3F6F8"/>
<path d="M340.936 -64.2358L349.133 -73L357.897 -64.8031L349.7 -56.0389L340.936 -64.2358Z" fill="#F3F6F8"/>
<path d="M89.9359 164.764L98.1328 156L106.897 164.197L98.7001 172.961L89.9359 164.764Z" fill="#F3F6F8"/>
<path d="M230.936 -60.2357L239.133 -68.9999L247.897 -60.803L239.7 -52.0388L230.936 -60.2357Z" fill="#F3F6F8"/>
<path d="M-11.0641 92.7643L-2.86719 84.0001L5.89701 92.197L-2.29986 100.961L-11.0641 92.7643Z" fill="#F3F6F8"/>
<path d="M81.9359 22.7643L90.1328 14.0001L98.897 22.197L90.7001 30.9612L81.9359 22.7643Z" fill="#F3F6F8"/>
<path d="M77.9359 -95.2358L86.1328 -104L94.897 -95.8031L86.7001 -87.0389L77.9359 -95.2358Z" fill="#F3F6F8"/>
<path d="M13.1034 -102L20.6512 -101.832L20.4837 -94.2846L12.9359 -94.452L13.1034 -102Z" fill="#F3F6F8"/>
<path d="M305.936 25.3385L311.274 20.0001L316.613 25.3385L311.274 30.677L305.936 25.3385Z" fill="#F3F6F8"/>
<path d="M385.936 -72.6616L391.274 -78L396.613 -72.6616L391.274 -67.3232L385.936 -72.6616Z" fill="#F3F6F8"/>
<path d="M350.936 140.339L356.274 135L361.613 140.339L356.274 145.677L350.936 140.339Z" fill="#F3F6F8"/>
<path d="M382.936 -15.6615L388.274 -20.9999L393.613 -15.6615L388.274 -10.323L382.936 -15.6615Z" fill="#F3F6F8"/>
<path d="M74.1034 55.0002L81.6512 55.1676L81.4837 62.7155L73.9359 62.548L74.1034 55.0002Z" fill="#F3F6F8"/>
<path fill-rule="evenodd" clip-rule="evenodd" d="M140.046 -25.0855C137.488 -25.6917 136.258 -26.8911 135.655 -28.0777C135.034 -29.3009 135.021 -30.6253 135.118 -31.5473C135.205 -32.368 135.667 -33.2989 136.271 -34.4958L136.272 -34.498C136.847 -35.6362 137.517 -36.9645 137.798 -38.4111L137.806 -38.4548L137.809 -38.4992C137.899 -39.7191 137.688 -40.5913 137.509 -41.3332C137.471 -41.4907 137.434 -41.6425 137.402 -41.7903C137.227 -42.5987 137.127 -43.4758 137.567 -45.0421C137.96 -46.4391 139.024 -47.3205 140.378 -47.805C141.744 -48.294 143.327 -48.3424 144.54 -48.1072C145.719 -47.8786 147.995 -46.9118 149.791 -44.8968C151.558 -42.9149 152.887 -39.8918 152.196 -35.4535C151.492 -30.9355 149.677 -28.0653 147.478 -26.4677C145.278 -24.8695 142.605 -24.4794 140.046 -25.0855ZM133.626 -31.705C133.515 -30.6525 133.508 -28.9919 134.317 -27.3985C135.145 -25.7685 136.77 -24.32 139.701 -23.6259C142.631 -22.9317 145.763 -23.3683 148.359 -25.2541C150.956 -27.1406 152.928 -30.4118 153.678 -35.2227C154.439 -40.1133 152.97 -43.5852 150.911 -45.8949C148.881 -48.1715 146.304 -49.2929 144.825 -49.5798C143.38 -49.8601 141.521 -49.8073 139.872 -49.2173C138.211 -48.6227 136.685 -47.4471 136.123 -45.448C135.609 -43.6181 135.715 -42.4904 135.936 -41.4726C135.977 -41.2821 136.02 -41.103 136.062 -40.9293C136.231 -40.2185 136.38 -39.5972 136.317 -38.6531C136.077 -37.4586 135.514 -36.3246 134.932 -35.1716L134.875 -35.0587C134.331 -33.9813 133.744 -32.8197 133.626 -31.705ZM138.601 -34.4933C138.568 -34.4842 138.547 -34.4789 138.515 -34.4986C138.552 -34.5885 138.623 -34.7267 138.749 -34.9542L138.787 -35.0239C139.119 -35.6211 139.619 -36.5223 139.745 -37.7584C139.855 -38.8401 139.656 -39.7844 139.516 -40.4479C139.494 -40.5535 139.473 -40.6521 139.456 -40.7428C139.385 -41.1033 139.375 -41.2744 139.39 -41.3622C139.397 -41.3659 139.406 -41.3704 139.417 -41.3755L139.418 -41.376C139.438 -41.3846 139.479 -41.4026 139.587 -41.3368C139.716 -41.2585 139.896 -41.0787 140.065 -40.7546C140.4 -40.1135 140.604 -39.0687 140.368 -37.8191C140.123 -36.5162 139.631 -35.4853 139.143 -34.9172C138.895 -34.6285 138.702 -34.5205 138.601 -34.4933ZM138.253 -37.9106C138.158 -36.9844 137.787 -36.3141 137.456 -35.7162L137.422 -35.655C137.275 -35.3895 137.082 -35.0409 137.012 -34.6999C136.972 -34.501 136.962 -34.2622 137.046 -34.0127C137.128 -33.7712 137.276 -33.5805 137.452 -33.4329C137.892 -33.0261 138.445 -32.8966 138.994 -33.0456C139.499 -33.1826 139.933 -33.5342 140.281 -33.9399C140.986 -34.7608 141.563 -36.0586 141.843 -37.5414C142.132 -39.0776 141.905 -40.4713 141.395 -41.4485C141.142 -41.9336 140.796 -42.3578 140.365 -42.6195C139.915 -42.8923 139.359 -42.9881 138.814 -42.7489C138.584 -42.648 138.375 -42.5032 138.211 -42.2992C138.047 -42.0941 137.958 -41.8664 137.917 -41.6446C137.841 -41.2398 137.916 -40.8025 137.984 -40.4548C138.006 -40.3409 138.03 -40.2265 138.054 -40.1109C138.192 -39.4442 138.337 -38.7423 138.253 -37.9106Z" fill="#F3F6F8"/>
<path fill-rule="evenodd" clip-rule="evenodd" d="M219.203 -94.0364C219.749 -96.6087 220.92 -97.8665 222.092 -98.4968C223.3 -99.1466 224.624 -99.1907 225.548 -99.1149C226.37 -99.0474 227.312 -98.6068 228.523 -98.031L228.525 -98.0299C229.676 -97.4823 231.02 -96.8433 232.473 -96.5967L232.517 -96.5893L232.561 -96.5871C233.783 -96.5264 234.65 -96.7576 235.387 -96.9542C235.544 -96.9959 235.695 -97.0362 235.842 -97.0717C236.646 -97.2658 237.52 -97.3861 239.096 -96.9827C240.502 -96.6229 241.408 -95.5798 241.924 -94.2377C242.445 -92.8829 242.531 -91.3019 242.324 -90.084C242.123 -88.9 241.21 -86.6015 239.238 -84.7585C237.298 -82.9457 234.307 -81.5465 229.853 -82.1335C225.32 -82.7311 222.408 -84.4782 220.759 -86.6394C219.11 -88.8015 218.657 -91.4644 219.203 -94.0364ZM225.671 -100.61C224.616 -100.696 222.956 -100.664 221.382 -99.8179C219.771 -98.952 218.361 -97.2935 217.736 -94.3479C217.111 -91.4019 217.621 -88.2807 219.567 -85.7296C221.514 -83.1777 224.83 -81.2827 229.657 -80.6464C234.565 -79.9995 238.001 -81.5498 240.262 -83.6625C242.49 -85.7448 243.551 -88.3476 243.803 -89.833C244.049 -91.2845 243.953 -93.1415 243.325 -94.7761C242.691 -96.4233 241.48 -97.9209 239.468 -98.4358C237.627 -98.9072 236.502 -98.7742 235.49 -98.5298C235.3 -98.484 235.122 -98.4371 234.95 -98.3915C234.243 -98.2051 233.625 -98.0421 232.68 -98.0832C231.48 -98.2949 230.333 -98.8309 229.167 -99.3856L229.053 -99.4399C227.963 -99.9588 226.788 -100.518 225.671 -100.61ZM228.575 -95.7017C228.565 -95.7348 228.559 -95.7553 228.578 -95.7882C228.669 -95.7531 228.809 -95.6857 229.039 -95.5651L229.11 -95.5281C229.714 -95.2108 230.627 -94.7319 231.866 -94.6349C232.95 -94.55 233.889 -94.771 234.549 -94.9262C234.654 -94.951 234.752 -94.974 234.843 -94.9939C235.201 -95.0729 235.372 -95.0869 235.46 -95.0743C235.464 -95.0676 235.469 -95.0588 235.474 -95.0472L235.475 -95.0461C235.484 -95.0268 235.503 -94.9865 235.44 -94.8764C235.364 -94.7455 235.189 -94.5615 234.869 -94.3848C234.236 -94.0354 233.196 -93.8067 231.941 -94.0128C230.633 -94.2277 229.591 -94.6953 229.011 -95.1697C228.717 -95.4109 228.604 -95.6018 228.575 -95.7017ZM231.983 -96.1303C231.055 -96.203 230.376 -96.5583 229.771 -96.8753L229.709 -96.9077C229.44 -97.0485 229.087 -97.2334 228.744 -97.2948C228.544 -97.3306 228.305 -97.3346 228.058 -97.2448C227.818 -97.1579 227.631 -97.005 227.488 -96.826C227.091 -96.3767 226.975 -95.8208 227.137 -95.2753C227.286 -94.7734 227.647 -94.348 228.061 -94.0092C228.898 -93.3237 230.209 -92.7771 231.698 -92.5326C233.241 -92.2793 234.629 -92.539 235.594 -93.0716C236.073 -93.336 236.489 -93.6914 236.74 -94.1292C237.002 -94.5855 237.085 -95.1436 236.833 -95.6825C236.727 -95.9097 236.577 -96.1156 236.369 -96.2745C236.161 -96.4342 235.931 -96.5174 235.708 -96.5538C235.302 -96.6202 234.866 -96.535 234.52 -96.4589C234.407 -96.4339 234.293 -96.4075 234.178 -96.3808C233.515 -96.227 232.816 -96.065 231.983 -96.1303Z" fill="#F3F6F8"/>
<path fill-rule="evenodd" clip-rule="evenodd" d="M346.203 -32.0364C346.749 -34.6087 347.92 -35.8665 349.092 -36.4968C350.3 -37.1466 351.624 -37.1907 352.548 -37.1149C353.37 -37.0474 354.312 -36.6068 355.523 -36.031L355.525 -36.0299C356.676 -35.4823 358.02 -34.8433 359.473 -34.5967L359.517 -34.5893L359.561 -34.5871C360.783 -34.5264 361.65 -34.7576 362.387 -34.9542C362.544 -34.996 362.695 -35.0362 362.842 -35.0717C363.646 -35.2658 364.52 -35.3861 366.096 -34.9827C367.502 -34.6229 368.408 -33.5798 368.924 -32.2377C369.445 -30.8829 369.531 -29.3019 369.324 -28.084C369.123 -26.9 368.21 -24.6015 366.238 -22.7585C364.298 -20.9457 361.307 -19.5465 356.853 -20.1335C352.32 -20.7311 349.408 -22.4782 347.759 -24.6394C346.11 -26.8015 345.657 -29.4644 346.203 -32.0364ZM352.671 -38.6099C351.616 -38.6964 349.956 -38.6644 348.382 -37.8179C346.771 -36.952 345.361 -35.2935 344.736 -32.3479C344.111 -29.4019 344.621 -26.2807 346.567 -23.7296C348.514 -21.1777 351.83 -19.2827 356.657 -18.6464C361.565 -17.9995 365.001 -19.5498 367.262 -21.6625C369.49 -23.7448 370.551 -26.3476 370.803 -27.833C371.049 -29.2845 370.953 -31.1415 370.325 -32.7761C369.691 -34.4233 368.48 -35.9209 366.468 -36.4358C364.627 -36.9072 363.502 -36.7742 362.49 -36.5298C362.3 -36.484 362.122 -36.4371 361.95 -36.3915C361.243 -36.2051 360.625 -36.0421 359.68 -36.0832C358.48 -36.2949 357.333 -36.8309 356.167 -37.3856L356.053 -37.4399C354.963 -37.9588 353.788 -38.5182 352.671 -38.6099ZM355.575 -33.7017C355.565 -33.7348 355.559 -33.7553 355.578 -33.7882C355.669 -33.7531 355.809 -33.6857 356.039 -33.5651L356.11 -33.5281C356.714 -33.2108 357.627 -32.7319 358.866 -32.6349C359.95 -32.55 360.889 -32.771 361.549 -32.9262C361.654 -32.951 361.752 -32.974 361.843 -32.9939C362.201 -33.0729 362.372 -33.0869 362.46 -33.0743C362.464 -33.0677 362.469 -33.0588 362.474 -33.0472L362.475 -33.0461C362.484 -33.0268 362.503 -32.9865 362.44 -32.8764C362.364 -32.7455 362.189 -32.5615 361.869 -32.3848C361.236 -32.0354 360.196 -31.8067 358.941 -32.0128C357.633 -32.2277 356.591 -32.6953 356.011 -33.1697C355.717 -33.4109 355.604 -33.6019 355.575 -33.7017ZM358.983 -34.1303C358.055 -34.203 357.376 -34.5583 356.771 -34.8753L356.709 -34.9077C356.44 -35.0485 356.087 -35.2334 355.744 -35.2948C355.544 -35.3306 355.305 -35.3346 355.058 -35.2448C354.818 -35.1579 354.631 -35.005 354.488 -34.826C354.091 -34.3767 353.975 -33.8208 354.137 -33.2753C354.286 -32.7734 354.647 -32.348 355.061 -32.0092C355.898 -31.3237 357.209 -30.7771 358.698 -30.5326C360.241 -30.2793 361.629 -30.539 362.594 -31.0716C363.073 -31.336 363.489 -31.6914 363.74 -32.1292C364.002 -32.5855 364.085 -33.1436 363.833 -33.6825C363.727 -33.9097 363.577 -34.1156 363.369 -34.2745C363.161 -34.4342 362.931 -34.5174 362.708 -34.5538C362.302 -34.6202 361.866 -34.535 361.52 -34.4589C361.407 -34.4339 361.293 -34.4075 361.178 -34.3808C360.515 -34.227 359.816 -34.065 358.983 -34.1303Z" fill="#F3F6F8"/>
<path fill-rule="evenodd" clip-rule="evenodd" d="M276.77 11.5488C279.377 11.1994 280.954 11.8794 281.942 12.7718C282.959 13.6917 283.446 14.9239 283.684 15.8197C283.897 16.6171 283.798 17.6518 283.662 18.9856L283.662 18.9881C283.533 20.2564 283.382 21.7367 283.638 23.1879L283.645 23.2317L283.658 23.2743C284.011 24.4454 284.52 25.1845 284.953 25.8131C285.045 25.9466 285.134 26.0752 285.216 26.2018C285.669 26.894 286.076 27.6774 286.225 29.2975C286.359 30.7425 285.68 31.9462 284.589 32.883C283.488 33.8286 282.028 34.44 280.811 34.6543C279.628 34.8625 277.157 34.7742 274.758 33.5352C272.4 32.3167 270.077 29.9691 269.135 25.5773C268.175 21.1065 268.843 17.777 270.325 15.4983C271.808 13.2187 274.164 11.8982 276.77 11.5488ZM285.134 15.4332C284.861 14.4106 284.273 12.8574 282.948 11.659C281.591 10.4332 279.556 9.66197 276.571 10.0621C273.586 10.4623 270.817 11.9907 269.068 14.6805C267.318 17.3711 266.647 21.1314 267.668 25.892C268.707 30.7314 271.321 33.4477 274.07 34.8679C276.78 36.2677 279.587 36.3929 281.071 36.1315C282.521 35.8761 284.238 35.1619 285.567 34.021C286.906 32.8713 287.91 31.2277 287.719 29.1598C287.545 27.267 287.042 26.2521 286.472 25.3806C286.365 25.2175 286.261 25.0656 286.16 24.9182C285.747 24.3152 285.386 23.7882 285.107 22.884C284.904 21.6827 285.024 20.4225 285.155 19.1376L285.167 19.0117C285.29 17.8109 285.423 16.5163 285.134 15.4332ZM281.486 19.8168C281.514 19.7965 281.531 19.7841 281.568 19.7909C281.566 19.8881 281.549 20.0425 281.513 20.3L281.502 20.3789C281.406 21.0552 281.261 22.0756 281.586 23.275C281.87 24.3246 282.394 25.1352 282.761 25.7047C282.82 25.7954 282.875 25.88 282.924 25.9584C283.119 26.2699 283.189 26.426 283.207 26.5132C283.202 26.5191 283.195 26.5265 283.186 26.5354L283.185 26.5363C283.17 26.5513 283.138 26.5827 283.013 26.5601C282.865 26.5332 282.633 26.4297 282.359 26.1875C281.817 25.7085 281.253 24.8059 281.025 23.5549C280.788 22.2503 280.879 21.1117 281.131 20.4066C281.26 20.0483 281.402 19.8783 281.486 19.8168ZM283.034 22.8832C282.791 21.9845 282.898 21.2258 282.993 20.549L283.002 20.4798C283.045 20.1792 283.1 19.7846 283.043 19.4414C283.01 19.2412 282.933 19.0147 282.766 18.8118C282.603 18.6154 282.397 18.4904 282.18 18.4154C281.623 18.1929 281.061 18.2699 280.601 18.6054C280.178 18.9141 279.899 19.3976 279.719 19.9012C279.354 20.9199 279.28 22.3383 279.549 23.8229C279.829 25.361 280.539 26.5812 281.365 27.3113C281.775 27.6737 282.25 27.9462 282.746 28.0361C283.264 28.1298 283.818 28.0203 284.241 27.6021C284.419 27.4257 284.563 27.2156 284.643 26.9665C284.723 26.7161 284.724 26.4718 284.684 26.2498C284.61 25.8447 284.383 25.4632 284.195 25.1628C284.134 25.0644 284.071 24.966 284.007 24.8667C283.639 24.2936 283.252 23.6903 283.034 22.8832Z" fill="#F3F6F8"/>
<path fill-rule="evenodd" clip-rule="evenodd" d="M255.909 134.38C256.635 136.907 256.193 138.567 255.455 139.674C254.694 140.815 253.546 141.476 252.695 141.844C251.937 142.171 250.899 142.224 249.559 142.285L249.557 142.285C248.283 142.342 246.797 142.41 245.399 142.875L245.356 142.889L245.316 142.908C244.209 143.428 243.553 144.04 242.994 144.56C242.875 144.67 242.761 144.776 242.648 144.877C242.029 145.426 241.314 145.943 239.733 146.328C238.323 146.671 237.033 146.176 235.947 145.234C234.85 144.282 234.032 142.927 233.642 141.755C233.263 140.615 232.989 138.157 233.864 135.603C234.725 133.092 236.708 130.451 240.915 128.877C245.197 127.274 248.589 127.448 251.059 128.581C253.531 129.715 255.182 131.853 255.909 134.38ZM253.289 143.221C254.261 142.802 255.711 141.993 256.703 140.507C257.717 138.986 258.182 136.859 257.35 133.965C256.518 131.071 254.601 128.555 251.685 127.218C248.767 125.88 244.949 125.765 240.389 127.472C235.753 129.207 233.448 132.19 232.445 135.117C231.457 138.002 231.743 140.798 232.219 142.228C232.684 143.625 233.641 145.219 234.964 146.367C236.297 147.523 238.07 148.276 240.088 147.785C241.934 147.336 242.865 146.69 243.644 145.999C243.79 145.869 243.925 145.744 244.056 145.623C244.592 145.126 245.06 144.692 245.914 144.284C247.073 143.907 248.337 143.842 249.627 143.783L249.754 143.777C250.959 143.723 252.259 143.665 253.289 143.221ZM248.419 140.253C248.443 140.278 248.458 140.293 248.457 140.331C248.36 140.343 248.205 140.349 247.945 140.351L247.865 140.351C247.182 140.355 246.152 140.361 245.013 140.858C244.016 141.292 243.29 141.929 242.781 142.376C242.7 142.447 242.624 142.513 242.553 142.573C242.274 142.812 242.13 142.904 242.046 142.935C242.04 142.931 242.031 142.925 242.021 142.917L242.02 142.917C242.003 142.904 241.967 142.877 241.971 142.75C241.976 142.599 242.045 142.354 242.244 142.048C242.639 141.442 243.449 140.752 244.654 140.344C245.91 139.919 247.049 139.842 247.784 139.989C248.157 140.063 248.346 140.179 248.419 140.253ZM245.612 142.233C246.465 141.861 247.231 141.856 247.915 141.851L247.985 141.85C248.288 141.848 248.687 141.846 249.018 141.739C249.211 141.677 249.424 141.568 249.6 141.372C249.771 141.183 249.864 140.96 249.907 140.735C250.046 140.152 249.887 139.606 249.488 139.201C249.121 138.828 248.602 138.622 248.077 138.518C247.016 138.306 245.602 138.439 244.173 138.923C242.692 139.424 241.589 140.306 240.987 141.229C240.689 141.688 240.488 142.197 240.472 142.702C240.455 143.228 240.644 143.759 241.12 144.116C241.321 144.267 241.549 144.379 241.808 144.421C242.067 144.464 242.309 144.43 242.523 144.357C242.913 144.225 243.257 143.945 243.526 143.715C243.615 143.64 243.703 143.563 243.792 143.485C244.305 143.038 244.845 142.567 245.612 142.233Z" fill="#F3F6F8"/>
<path fill-rule="evenodd" clip-rule="evenodd" d="M324.166 146.877C321.757 147.929 320.053 147.709 318.858 147.123C317.626 146.518 316.82 145.468 316.344 144.672C315.921 143.964 315.731 142.942 315.495 141.622L315.494 141.62C315.27 140.365 315.008 138.9 314.363 137.575L314.343 137.535L314.319 137.498C313.658 136.469 312.965 135.898 312.376 135.413C312.251 135.31 312.13 135.211 312.016 135.112C311.39 134.571 310.784 133.929 310.194 132.413C309.669 131.06 309.99 129.716 310.781 128.516C311.58 127.304 312.816 126.314 313.927 125.773C315.006 125.248 317.407 124.653 320.054 125.185C322.657 125.707 325.535 127.326 327.649 131.289C329.801 135.324 330.075 138.708 329.276 141.307C328.478 143.906 326.576 145.824 324.166 146.877ZM315.057 145.442C315.6 146.35 316.593 147.682 318.197 148.47C319.838 149.275 322.007 149.457 324.767 148.251C327.526 147.045 329.768 144.815 330.71 141.747C331.653 138.679 331.264 134.879 328.973 130.583C326.643 126.216 323.383 124.323 320.349 123.714C317.359 123.113 314.625 123.765 313.27 124.425C311.946 125.069 310.492 126.228 309.529 127.69C308.558 129.164 308.044 131.02 308.796 132.956C309.484 134.728 310.247 135.565 311.035 136.246C311.182 136.374 311.324 136.491 311.462 136.605C312.025 137.071 312.517 137.479 313.033 138.271C313.559 139.37 313.791 140.615 314.018 141.886L314.041 142.011C314.253 143.199 314.482 144.48 315.057 145.442ZM317.359 140.224C317.338 140.252 317.324 140.268 317.286 140.272C317.262 140.178 317.236 140.025 317.2 139.767L317.189 139.688C317.095 139.012 316.953 137.991 316.311 136.927C315.75 135.996 315.023 135.361 314.513 134.914C314.432 134.843 314.356 134.777 314.287 134.715C314.014 134.469 313.903 134.338 313.862 134.26C313.866 134.252 313.87 134.244 313.876 134.232L313.877 134.231C313.887 134.213 313.909 134.174 314.035 134.161C314.186 134.146 314.437 134.182 314.767 134.339C315.42 134.651 316.211 135.363 316.773 136.504C317.36 137.693 317.586 138.812 317.537 139.56C317.513 139.94 317.423 140.142 317.359 140.224ZM315.027 137.702C315.508 138.499 315.614 139.258 315.709 139.935L315.718 140.004C315.76 140.305 315.815 140.699 315.965 141.014C316.052 141.197 316.188 141.394 316.405 141.543C316.615 141.687 316.848 141.75 317.077 141.763C317.673 141.823 318.193 141.595 318.542 141.146C318.864 140.733 318.999 140.191 319.034 139.657C319.105 138.578 318.786 137.193 318.119 135.84C317.427 134.438 316.408 133.461 315.414 132.986C314.92 132.75 314.389 132.618 313.886 132.669C313.363 132.721 312.861 132.979 312.569 133.497C312.446 133.716 312.366 133.957 312.357 134.219C312.349 134.481 312.415 134.717 312.515 134.919C312.697 135.288 313.02 135.593 313.283 135.83C313.37 135.907 313.457 135.985 313.546 136.063C314.057 136.512 314.595 136.986 315.027 137.702Z" fill="#F3F6F8"/>
<path fill-rule="evenodd" clip-rule="evenodd" d="M13.5397 139.991C13.2865 142.608 12.2651 143.99 11.1713 144.748C10.0439 145.53 8.73343 145.722 7.80678 145.751C6.98193 145.776 5.99683 145.445 4.72902 145.009L4.72669 145.008C3.52105 144.593 2.11397 144.109 0.642698 144.028L0.59828 144.025L0.553881 144.028C-0.666893 144.105 -1.50237 144.433 -2.21305 144.711C-2.36399 144.77 -2.50932 144.827 -2.65149 144.879C-3.42856 145.162 -4.28403 145.38 -5.89556 145.157C-7.33293 144.957 -8.35065 144.023 -9.01443 142.747C-9.68449 141.46 -9.94728 139.898 -9.87892 138.665C-9.81247 137.466 -9.16366 135.079 -7.4112 133.026C-5.68757 131.006 -2.87284 129.279 1.61819 129.362C6.18994 129.446 9.27992 130.854 11.1613 132.816C13.0435 134.779 13.7928 137.374 13.5397 139.991ZM7.85309 147.25C8.91096 147.218 10.5571 146.999 12.0259 145.981C13.5283 144.939 14.7428 143.133 15.0327 140.135C15.3227 137.138 14.4648 134.094 12.244 131.778C10.0224 129.461 6.51374 127.951 1.64568 127.862C-3.3031 127.771 -6.54331 129.698 -8.55213 132.052C-10.5321 134.372 -11.2933 137.077 -11.3766 138.582C-11.4581 140.052 -11.1534 141.886 -10.345 143.44C-9.53036 145.005 -8.15858 146.357 -6.10165 146.642C-4.21887 146.903 -3.11606 146.645 -2.13762 146.288C-1.95455 146.221 -1.78294 146.155 -1.61646 146.09C-0.935245 145.825 -0.339886 145.594 0.60404 145.528C1.82006 145.604 3.0199 146.007 4.24128 146.427L4.36091 146.468C5.50221 146.861 6.73266 147.285 7.85309 147.25ZM4.41519 142.7C4.42866 142.732 4.43673 142.751 4.42165 142.786C4.32756 142.762 4.18105 142.71 3.93853 142.616L3.86426 142.588C3.22753 142.34 2.26685 141.967 1.02503 142.01C-0.061658 142.048 -0.970202 142.373 -1.60853 142.602C-1.71011 142.638 -1.80499 142.672 -1.89251 142.702C-2.24011 142.821 -2.40826 142.854 -2.49717 142.851C-2.50174 142.845 -2.50742 142.837 -2.51408 142.826L-2.51471 142.825C-2.5259 142.807 -2.54926 142.769 -2.49879 142.652C-2.43882 142.514 -2.28507 142.311 -1.98696 142.1C-1.39721 141.681 -0.389778 141.337 0.88018 141.401C2.20439 141.467 3.29252 141.814 3.9216 142.22C4.24133 142.427 4.37453 142.604 4.41519 142.7ZM1.07687 143.509C2.00731 143.477 2.72179 143.754 3.35911 144.001L3.42431 144.026C3.70733 144.136 4.07892 144.28 4.42617 144.302C4.62873 144.315 4.86665 144.292 5.1024 144.175C5.33061 144.062 5.49941 143.889 5.62182 143.695C5.96514 143.204 6.01829 142.638 5.7962 142.114C5.59187 141.633 5.18461 141.251 4.73532 140.96C3.82634 140.373 2.46218 139.978 0.955185 139.902C-0.606064 139.824 -1.95602 140.238 -2.85495 140.876C-3.30117 141.193 -3.67459 141.593 -3.87524 142.056C-4.08441 142.539 -4.10377 143.103 -3.79284 143.61C-3.66173 143.824 -3.48985 144.012 -3.2655 144.146C-3.03995 144.281 -2.80234 144.338 -2.57696 144.349C-2.16562 144.369 -1.74257 144.236 -1.40733 144.121C-1.29749 144.084 -1.1873 144.045 -1.0761 144.005C-0.43428 143.778 0.241285 143.538 1.07687 143.509Z" fill="#F3F6F8"/>
<path fill-rule="evenodd" clip-rule="evenodd" d="M46.5518 143.006C46.1738 140.404 46.8365 138.818 47.7181 137.821C48.6268 136.794 49.8535 136.294 50.7466 136.045C51.5416 135.824 52.5774 135.912 53.9126 136.033L53.9151 136.033C55.1848 136.148 56.6666 136.283 58.1149 136.011L58.1586 136.003L58.2011 135.99C59.3683 135.624 60.1017 135.107 60.7255 134.667C60.858 134.574 60.9856 134.484 61.1113 134.4C61.7985 133.939 62.5774 133.524 64.1957 133.357C65.6392 133.208 66.8503 133.873 67.799 134.953C68.7566 136.044 69.384 137.498 69.6115 138.712C69.8328 139.892 69.7715 142.365 68.559 144.777C67.3663 147.149 65.0443 149.497 60.6631 150.487C56.2031 151.496 52.8665 150.864 50.5717 149.407C48.276 147.95 46.9297 145.608 46.5518 143.006ZM50.3443 134.6C49.3247 134.884 47.7781 135.489 46.5943 136.828C45.3834 138.197 44.6345 140.241 45.0674 143.221C45.5002 146.202 47.0589 148.954 49.7677 150.673C52.4774 152.394 56.2448 153.024 60.9939 151.95C65.8216 150.859 68.5092 148.215 69.8991 145.45C71.2691 142.726 71.3635 139.917 71.0859 138.436C70.8146 136.989 70.0816 135.28 68.9262 133.964C67.7619 132.638 66.1074 131.652 64.0417 131.865C62.151 132.06 61.1416 132.574 60.2764 133.154C60.1145 133.262 59.9637 133.368 59.8175 133.47C59.219 133.89 58.696 134.256 57.7949 134.545C56.5959 134.762 55.3345 134.656 54.0482 134.539L53.9222 134.527C52.7201 134.418 51.4242 134.3 50.3443 134.6ZM54.7676 138.2C54.747 138.172 54.7344 138.155 54.7408 138.118C54.838 138.119 54.9925 138.134 55.2504 138.168L55.3294 138.178C56.0068 138.266 57.0287 138.4 58.2245 138.062C59.2709 137.766 60.0757 137.234 60.6412 136.86C60.7312 136.8 60.8152 136.745 60.8931 136.695C61.2024 136.497 61.3577 136.424 61.4447 136.406C61.4506 136.411 61.4581 136.417 61.4672 136.426L61.468 136.427C61.4832 136.442 61.515 136.473 61.4937 136.599C61.4685 136.747 61.3675 136.981 61.1284 137.257C60.6554 137.804 59.759 138.379 58.5105 138.62C57.2086 138.871 56.069 138.793 55.3613 138.548C55.0015 138.424 54.83 138.284 54.7676 138.2ZM57.8168 136.618C56.9209 136.871 56.161 136.773 55.4833 136.685L55.4139 136.676C55.1129 136.637 54.7177 136.586 54.3751 136.647C54.1753 136.682 53.9497 136.761 53.7486 136.931C53.554 137.096 53.4313 137.304 53.3587 137.522C53.1423 138.08 53.2254 138.642 53.566 139.098C53.8793 139.517 54.3658 139.791 54.8713 139.966C55.894 140.319 57.3131 140.378 58.7947 140.092C60.3296 139.796 61.5419 139.072 62.2629 138.238C62.6208 137.825 62.8882 137.347 62.9726 136.849C63.0606 136.331 62.945 135.778 62.5222 135.36C62.3439 135.184 62.1322 135.042 61.8823 134.965C61.631 134.887 61.3867 134.889 61.1652 134.932C60.7609 135.01 60.3819 135.241 60.0836 135.432C59.9859 135.495 59.8882 135.559 59.7896 135.624C59.2205 135.998 58.6215 136.391 57.8168 136.618Z" fill="#F3F6F8"/>
<path fill-rule="evenodd" clip-rule="evenodd" d="M111.094 65.4989C112.169 63.0989 113.577 62.1154 114.856 61.7456C116.174 61.3645 117.477 61.5997 118.365 61.8681C119.155 62.1071 119.982 62.7358 121.045 63.5533L121.047 63.5549C122.057 64.3323 123.237 65.2396 124.605 65.7861L124.646 65.8026L124.689 65.8141C125.871 66.1303 126.767 66.0867 127.53 66.0495C127.691 66.0416 127.847 66.034 127.999 66.0303C128.825 66.0095 129.706 66.0758 131.162 66.8017C132.461 67.4491 133.127 68.6593 133.349 70.0799C133.574 71.514 133.325 73.0776 132.867 74.2248C132.421 75.3401 131.045 77.3952 128.729 78.7823C126.452 80.1465 123.233 80.8855 119.003 79.3752C114.697 77.8377 112.217 75.5173 111.06 73.0577C109.902 70.5972 110.019 67.8986 111.094 65.4989ZM118.799 60.4324C117.786 60.1259 116.156 59.8081 114.439 60.3047C112.683 60.8126 110.956 62.1376 109.725 64.8858C108.494 67.6344 108.336 70.7931 109.703 73.6964C111.069 76.6006 113.913 79.1507 118.499 80.7878C123.16 82.4521 126.846 81.6591 129.5 80.0691C132.117 78.5019 133.701 76.1804 134.26 74.7812C134.806 73.4139 135.102 71.5782 134.831 69.848C134.559 68.1045 133.69 66.3857 131.831 65.4592C130.13 64.6112 129.002 64.5046 127.961 64.5307C127.766 64.5356 127.582 64.5441 127.404 64.5523C126.674 64.586 126.036 64.6154 125.12 64.3765C123.992 63.9172 122.983 63.1521 121.96 62.3645L121.859 62.2873C120.903 61.5509 119.872 60.7569 118.799 60.4324ZM120.606 65.8415C120.603 65.8071 120.602 65.7858 120.627 65.7576C120.709 65.811 120.831 65.9063 121.031 66.0726L121.092 66.1236C121.617 66.5611 122.409 67.2211 123.599 67.5765C124.641 67.8875 125.606 67.8689 126.284 67.8559C126.392 67.8538 126.492 67.8519 126.585 67.8515C126.952 67.8497 127.122 67.8719 127.206 67.9027C127.208 67.9101 127.211 67.9197 127.214 67.9321L127.214 67.9333C127.219 67.9541 127.229 67.9975 127.144 68.0919C127.043 68.204 126.832 68.347 126.482 68.4524C125.79 68.6609 124.725 68.6658 123.542 68.2005C122.308 67.7153 121.388 67.039 120.921 66.4534C120.684 66.1557 120.614 65.9453 120.606 65.8415ZM124.028 66.1391C123.136 65.8729 122.547 65.3828 122.022 64.9456L121.968 64.9008C121.735 64.7066 121.429 64.4517 121.107 64.3196C120.919 64.2426 120.686 64.1884 120.425 64.2242C120.173 64.2588 119.958 64.3689 119.78 64.5137C119.298 64.8696 119.067 65.3886 119.11 65.9559C119.15 66.4779 119.415 66.9698 119.748 67.3881C120.422 68.2343 121.589 69.0443 122.993 69.5965C124.448 70.1685 125.859 70.2065 126.915 69.8887C127.439 69.731 127.92 69.471 128.258 69.0959C128.61 68.7049 128.809 68.1766 128.676 67.5969C128.62 67.3524 128.517 67.1196 128.347 66.9206C128.176 66.7205 127.969 66.5909 127.759 66.5085C127.376 66.358 126.932 66.3498 126.578 66.3515C126.462 66.352 126.345 66.3539 126.227 66.3558C125.546 66.3667 124.829 66.3783 124.028 66.1391Z" fill="#F3F6F8"/>
<path fill-rule="evenodd" clip-rule="evenodd" d="M144.579 182.124C143.248 179.856 143.265 178.138 143.706 176.882C144.161 175.588 145.109 174.663 145.843 174.097C146.496 173.592 147.489 173.283 148.771 172.893L148.774 172.892C149.993 172.52 151.417 172.087 152.656 171.29L152.694 171.266L152.728 171.238C153.671 170.459 154.156 169.704 154.568 169.062C154.656 168.925 154.74 168.794 154.825 168.669C155.288 167.983 155.853 167.305 157.289 166.541C158.571 165.859 159.943 166.019 161.229 166.663C162.527 167.313 163.655 168.423 164.323 169.462C164.973 170.472 165.847 172.786 165.632 175.477C165.421 178.123 164.154 181.173 160.468 183.74C156.717 186.354 153.388 187.026 150.713 186.54C148.038 186.055 145.909 184.392 144.579 182.124ZM144.926 172.909C144.089 173.556 142.884 174.699 142.291 176.385C141.685 178.11 141.761 180.286 143.285 182.883C144.808 185.481 147.288 187.443 150.445 188.016C153.603 188.59 157.331 187.754 161.326 184.971C165.387 182.142 166.881 178.681 167.128 175.596C167.37 172.556 166.4 169.918 165.585 168.651C164.789 167.413 163.466 166.106 161.9 165.322C160.322 164.532 158.418 164.241 156.585 165.217C154.907 166.109 154.165 166.966 153.582 167.829C153.473 167.99 153.373 168.145 153.276 168.295C152.88 168.909 152.533 169.445 151.807 170.052C150.778 170.704 149.57 171.081 148.334 171.458L148.213 171.494C147.058 171.846 145.813 172.224 144.926 172.909ZM150.38 174.578C150.35 174.56 150.332 174.549 150.324 174.512C150.414 174.477 150.563 174.433 150.815 174.366L150.892 174.346C151.552 174.173 152.549 173.912 153.53 173.148C154.388 172.481 154.933 171.684 155.316 171.125C155.377 171.036 155.434 170.953 155.487 170.877C155.699 170.577 155.816 170.451 155.889 170.401C155.897 170.404 155.906 170.407 155.918 170.412L155.919 170.412C155.939 170.421 155.98 170.438 156.007 170.562C156.04 170.709 156.034 170.963 155.917 171.309C155.685 171.994 155.071 172.864 154.005 173.557C152.893 174.28 151.808 174.637 151.061 174.677C150.681 174.697 150.469 174.632 150.38 174.578ZM152.609 171.965C151.874 172.536 151.133 172.731 150.472 172.905L150.404 172.923C150.111 173 149.725 173.102 149.431 173.287C149.259 173.395 149.08 173.553 148.958 173.787C148.839 174.012 148.804 174.251 148.819 174.48C148.829 175.079 149.117 175.568 149.605 175.862C150.053 176.133 150.607 176.204 151.141 176.175C152.221 176.117 153.558 175.637 154.823 174.815C156.133 173.962 156.984 172.835 157.337 171.791C157.513 171.273 157.581 170.73 157.472 170.237C157.358 169.723 157.043 169.255 156.494 169.027C156.262 168.931 156.013 168.879 155.752 168.902C155.49 168.925 155.264 169.018 155.075 169.141C154.73 169.366 154.466 169.723 154.262 170.012C154.195 170.107 154.128 170.203 154.061 170.3C153.675 170.861 153.268 171.451 152.609 171.965Z" fill="#F3F6F8"/>
<path fill-rule="evenodd" clip-rule="evenodd" d="M-10.0722 -58.7248C-12.631 -59.3309 -13.861 -60.5304 -14.4637 -61.717C-15.0849 -62.9402 -15.098 -64.2646 -15.0006 -65.1866C-14.9138 -66.0073 -14.4512 -66.9382 -13.8472 -68.1351L-13.8461 -68.1373C-13.2717 -69.2755 -12.6013 -70.6038 -12.3208 -72.0504L-12.3123 -72.0941L-12.3091 -72.1384C-12.2198 -73.3584 -12.4306 -74.2306 -12.6098 -74.9725C-12.6479 -75.13 -12.6846 -75.2817 -12.7166 -75.4296C-12.8919 -76.238 -12.9916 -77.1151 -12.5514 -78.6814C-12.1587 -80.0784 -11.0947 -80.9598 -9.74088 -81.4442C-8.37424 -81.9333 -6.79164 -81.9817 -5.57893 -81.7465C-4.40001 -81.5179 -2.12353 -80.551 -0.327198 -78.536C1.43957 -76.5542 2.76833 -73.5311 2.07707 -69.0928C1.37338 -64.5748 -0.441529 -61.7046 -2.64077 -60.107C-4.84089 -58.5088 -7.51368 -58.1187 -10.0722 -58.7248ZM-16.4922 -65.3443C-16.6035 -64.2917 -16.6104 -62.6311 -15.801 -61.0377C-14.9732 -59.4078 -13.3481 -57.9593 -10.418 -57.2652C-7.4875 -56.5709 -4.35518 -57.0076 -1.75918 -58.8934C0.837684 -60.7799 2.8099 -64.0511 3.5592 -68.862C4.32092 -73.7526 2.85158 -77.2244 0.792475 -79.5342C-1.23707 -81.8108 -3.81422 -82.9322 -5.29336 -83.2191C-6.73871 -83.4993 -8.59744 -83.4466 -10.2463 -82.8565C-11.9079 -82.2619 -13.4335 -81.0864 -13.9954 -79.0873C-14.5098 -77.2574 -14.4032 -76.1297 -14.1826 -75.1118C-14.1413 -74.9214 -14.0985 -74.7423 -14.057 -74.5686C-13.8872 -73.8577 -13.7388 -73.2365 -13.802 -72.2924C-14.0418 -71.0979 -14.6044 -69.9639 -15.1863 -68.8109L-15.2434 -68.6979C-15.7876 -67.6205 -16.3744 -66.459 -16.4922 -65.3443ZM-11.5174 -68.1326C-11.5507 -68.1235 -11.5713 -68.1182 -11.6038 -68.1379C-11.5665 -68.2277 -11.4959 -68.3659 -11.3699 -68.5935L-11.3313 -68.6631C-10.9999 -69.2604 -10.4998 -70.1615 -10.3737 -71.3977C-10.2634 -72.4794 -10.4623 -73.4237 -10.6021 -74.0872C-10.6243 -74.1927 -10.6451 -74.2913 -10.6629 -74.3821C-10.7334 -74.7426 -10.7434 -74.9137 -10.7288 -75.0014C-10.722 -75.0051 -10.713 -75.0096 -10.7014 -75.0148L-10.7003 -75.0153C-10.6807 -75.0239 -10.64 -75.0419 -10.5314 -74.976C-10.4023 -74.8978 -10.2224 -74.718 -10.0533 -74.3939C-9.71885 -73.7528 -9.51462 -72.708 -9.75003 -71.4584C-9.99549 -70.1555 -10.4874 -69.1246 -10.9753 -68.5565C-11.2233 -68.2677 -11.4168 -68.1598 -11.5174 -68.1326ZM-11.866 -71.5498C-11.9604 -70.6237 -12.3316 -69.9534 -12.6626 -69.3554L-12.6965 -69.2943C-12.8436 -69.0288 -13.0366 -68.6802 -13.1061 -68.3392C-13.1465 -68.1403 -13.1561 -67.9014 -13.0722 -67.652C-12.9909 -67.4105 -12.8424 -67.2198 -12.6668 -67.0722C-12.227 -66.6654 -11.6739 -66.5359 -11.1248 -66.6848C-10.6196 -66.8219 -10.1858 -67.1735 -9.83735 -67.5792C-9.1324 -68.4001 -8.5553 -69.6979 -8.27596 -71.1807C-7.98656 -72.7169 -8.21362 -74.1106 -8.72347 -75.0878C-8.97656 -75.5729 -9.3221 -75.9971 -9.75387 -76.2588C-10.204 -76.5316 -10.7599 -76.6273 -11.3046 -76.3881C-11.5342 -76.2873 -11.7436 -76.1425 -11.9073 -75.9385C-12.0719 -75.7334 -12.1604 -75.5057 -12.202 -75.2839C-12.278 -74.8791 -12.203 -74.4418 -12.135 -74.0941C-12.1127 -73.9802 -12.0889 -73.8657 -12.065 -73.7502C-11.9267 -73.0834 -11.7812 -72.3816 -11.866 -71.5498Z" fill="#F3F6F8"/>
<path fill-rule="evenodd" clip-rule="evenodd" d="M97.2612 -12.0667C96.6291 -9.51415 95.4172 -8.29641 94.2246 -7.70576C92.9952 -7.09693 91.6707 -7.09728 90.7497 -7.20407C89.93 -7.29913 89.0038 -7.77112 87.8131 -8.38724L87.8109 -8.38837C86.6786 -8.97428 85.3571 -9.65809 83.9134 -9.95327L83.8699 -9.96218L83.8255 -9.96588C82.6065 -10.0675 81.7323 -9.86561 80.9886 -9.69385C80.8307 -9.65737 80.6786 -9.62225 80.5304 -9.59169C79.7203 -9.42466 78.8422 -9.33379 77.2805 -9.78989C75.8875 -10.1967 75.0169 -11.2696 74.5462 -12.6283C74.0711 -13.9998 74.0387 -15.5828 74.2862 -16.7931C74.5267 -17.9696 75.5166 -20.2362 77.5497 -22.012C79.5493 -23.7586 82.5858 -25.0566 87.0168 -24.3204C91.5275 -23.571 94.3791 -21.7271 95.9543 -19.5117C97.5302 -17.2955 97.8932 -14.6189 97.2612 -12.0667ZM90.577 -5.71406C91.6283 -5.59215 93.2887 -5.56844 94.8903 -6.36157C96.5285 -7.1729 97.9934 -8.78318 98.7172 -11.7061C99.4411 -14.6294 99.0362 -17.766 97.1768 -20.381C95.3168 -22.9968 92.0657 -25.0021 87.2627 -25.8001C82.38 -26.6114 78.8934 -25.1773 76.5629 -23.1417C74.2659 -21.1353 73.1184 -18.5697 72.8166 -17.0935C72.5217 -15.6511 72.5556 -13.7919 73.1289 -12.1372C73.7066 -10.4697 74.8666 -8.93221 76.86 -8.35004C78.6846 -7.81717 79.8133 -7.91227 80.8333 -8.12259C81.0241 -8.16194 81.2036 -8.2029 81.3778 -8.24265C82.0903 -8.40526 82.713 -8.54738 83.6564 -8.47463C84.8485 -8.2227 85.9767 -7.64858 87.1238 -7.05502L87.2361 -6.99685C88.3079 -6.44169 89.4635 -5.84317 90.577 -5.71406ZM87.8392 -10.7169C87.8479 -10.6835 87.853 -10.6628 87.833 -10.6306C87.7435 -10.6688 87.6061 -10.7408 87.3798 -10.869L87.3106 -10.9084C86.7167 -11.2459 85.8207 -11.7551 84.5859 -11.8936C83.5053 -12.0149 82.559 -11.8256 81.8942 -11.6925C81.7884 -11.6714 81.6896 -11.6516 81.5986 -11.6347C81.2374 -11.5679 81.0662 -11.5596 80.9787 -11.5751C80.975 -11.5819 80.9706 -11.5909 80.9656 -11.6026L80.9652 -11.6038C80.9567 -11.6234 80.9392 -11.6643 81.0061 -11.7723C81.0856 -11.9005 81.2673 -12.0786 81.593 -12.2443C82.2375 -12.5723 83.2843 -12.766 84.5314 -12.5179C85.8318 -12.2592 86.8577 -11.7569 87.4208 -11.2633C87.707 -11.0124 87.813 -10.8177 87.8392 -10.7169ZM84.4186 -10.403C85.3438 -10.2992 86.0103 -9.92124 86.6048 -9.58414L86.6656 -9.54965C86.9296 -9.3999 87.2762 -9.20328 87.6165 -9.13042C87.815 -9.08792 88.0537 -9.0759 88.304 -9.15734C88.5463 -9.23618 88.7385 -9.38274 88.8879 -9.5568C89.2991 -9.99249 89.4342 -10.5442 89.2908 -11.0948C89.159 -11.6014 88.8117 -12.0387 88.4096 -12.3913C87.5959 -13.1045 86.304 -13.6947 84.8241 -13.9891C83.2909 -14.294 81.895 -14.0811 80.9127 -13.5812C80.4251 -13.333 79.9973 -12.9918 79.7313 -12.5627C79.4539 -12.1154 79.3526 -11.5604 79.5862 -11.0134C79.6848 -10.7827 79.8274 -10.5719 80.0298 -10.4061C80.2332 -10.2395 80.46 -10.1487 80.6813 -10.1048C81.0853 -10.0248 81.5233 -10.0953 81.8717 -10.1598C81.9858 -10.1809 82.1006 -10.2035 82.2163 -10.2263C82.8844 -10.3578 83.5877 -10.4962 84.4186 -10.403Z" fill="#F3F6F8"/>
<path fill-rule="evenodd" clip-rule="evenodd" d="M261.436 -74.2006L265.498 -69.1228L270.436 -74.0607L275.436 -69.0607L280.436 -74.0607L285.436 -69.0607L290.436 -74.0607L295.966 -68.5303L294.905 -67.4697L290.436 -71.9393L285.436 -66.9393L280.436 -71.9393L275.436 -66.9393L270.436 -71.9393L265.374 -66.8772L261.436 -71.7994L257.469 -66.8415L252.378 -72.4983L253.493 -73.5017L257.402 -69.1585L261.436 -74.2006Z" fill="#F3F6F8"/>
<path fill-rule="evenodd" clip-rule="evenodd" d="M19.4359 -44.2006L23.4981 -39.1228L28.4359 -44.0607L33.4359 -39.0607L38.4359 -44.0607L43.4359 -39.0607L48.4359 -44.0607L53.9662 -38.5303L52.9056 -37.4697L48.4359 -41.9393L43.4359 -36.9393L38.4359 -41.9393L33.4359 -36.9393L28.4359 -41.9393L23.3737 -36.8772L19.4359 -41.7994L15.4696 -36.8415L10.3784 -42.4983L11.4934 -43.5017L15.4023 -39.1585L19.4359 -44.2006Z" fill="#F3F6F8"/>
<path fill-rule="evenodd" clip-rule="evenodd" d="M161.4 -66.9491L167.824 -65.9414L168.138 -72.9174L175.202 -72.5997L175.52 -79.6636L182.584 -79.3459L182.902 -86.4098L190.715 -86.0584L190.647 -84.5599L184.333 -84.844L184.015 -77.78L176.951 -78.0977L176.633 -71.0338L169.569 -71.3515L169.248 -64.1998L163.02 -65.1767L163.437 -58.8411L155.863 -59.5822L156.009 -61.075L161.824 -60.5061L161.4 -66.9491Z" fill="#F3F6F8"/>
<path fill-rule="evenodd" clip-rule="evenodd" d="M90.4935 125.76L95.9114 122.164L91.4307 116.808L96.8542 112.27L92.3171 106.847L97.7407 102.31L93.2036 96.8862L99.2024 91.8679L100.165 93.0184L95.3166 97.0743L99.8537 102.498L94.4301 107.035L98.9672 112.458L93.5437 116.996L98.1372 122.487L92.8853 125.973L97.4721 130.363L91.3863 134.932L90.4856 133.733L95.1582 130.224L90.4935 125.76Z" fill="#F3F6F8"/>
<path fill-rule="evenodd" clip-rule="evenodd" d="M254.916 95.9669L260.079 92.0134L255.247 86.9719L260.352 82.0792L255.459 76.9742L260.564 72.0814L255.672 66.9764L261.318 61.5647L262.356 62.6477L257.792 67.0214L262.685 72.1265L257.58 77.0192L262.473 82.1242L257.368 87.0169L262.321 92.1855L257.317 96.0179L262.189 100.089L256.426 105.058L255.446 103.922L259.871 100.107L254.916 95.9669Z" fill="#F3F6F8"/>
<path fill-rule="evenodd" clip-rule="evenodd" d="M140.649 104.758L148.904 106.609L149.907 97.5204L159.084 98.5337L160.097 89.3575L169.273 90.3708L170.286 81.1946L180.208 82.2902L180.043 83.7811L171.613 82.8501L170.599 92.0264L161.423 91.0131L160.41 100.189L151.234 99.176L150.211 108.44L142.151 106.632L142.156 114.938L132.618 113.373L132.86 111.893L140.655 113.172L140.649 104.758Z" fill="#F3F6F8"/>
<path fill-rule="evenodd" clip-rule="evenodd" d="M168.386 196.047L172.632 200.972L177.385 195.857L182.565 200.67L187.379 195.49L192.559 200.303L197.372 195.123L203.101 200.447L202.08 201.546L197.45 197.243L192.636 202.423L187.456 197.61L182.643 202.79L177.463 197.976L172.59 203.221L168.474 198.446L164.692 203.546L159.397 198.08L160.475 197.036L164.54 201.233L168.386 196.047Z" fill="#F3F6F8"/>
<path fill-rule="evenodd" clip-rule="evenodd" d="M252.91 168.857L259.39 169.4L259.201 162.419L266.27 162.228L266.079 155.16L273.147 154.969L272.956 147.9L280.774 147.689L280.815 149.188L274.496 149.359L274.687 156.428L267.619 156.619L267.81 163.687L260.741 163.878L260.935 171.035L254.653 170.508L255.525 176.797L247.917 176.603L247.955 175.103L253.796 175.253L252.91 168.857Z" fill="#F3F6F8"/>
<path fill-rule="evenodd" clip-rule="evenodd" d="M152.186 -1.75V-6H153.686V-1.75H157.436V-0.25H153.686V4H152.186V-0.25H148.436V-1.75H152.186Z" fill="#F3F6F8"/>
<path fill-rule="evenodd" clip-rule="evenodd" d="M219.686 8.25V4H221.186V8.25H224.936V9.75H221.186V14H219.686V9.75H215.936V8.25H219.686Z" fill="#F3F6F8"/>
<path fill-rule="evenodd" clip-rule="evenodd" d="M159.686 -100.75V-105H161.186V-100.75H164.936V-99.25H161.186V-95H159.686V-99.25H155.936V-100.75H159.686Z" fill="#F3F6F8"/>
<path fill-rule="evenodd" clip-rule="evenodd" d="M183.686 56.25V52H185.186V56.25H188.936V57.75H185.186V62H183.686V57.75H179.936V56.25H183.686Z" fill="#F3F6F8"/>
<path fill-rule="evenodd" clip-rule="evenodd" d="M369.686 -97.7501V-102H371.186V-97.7501H374.936V-96.2501H371.186V-92.0001H369.686V-96.2501H365.936V-97.7501H369.686Z" fill="#F3F6F8"/>
<path fill-rule="evenodd" clip-rule="evenodd" d="M55.6859 16.25V12H57.1859V16.25H60.9359V17.75H57.1859V22H55.6859V17.75H51.9359V16.25H55.6859Z" fill="#F3F6F8"/>
<path fill-rule="evenodd" clip-rule="evenodd" d="M-14.3141 23.25V19H-12.8141V23.25H-9.06408V24.75H-12.8141V29H-14.3141V24.75H-18.0641V23.25H-14.3141Z" fill="#F3F6F8"/>
<path fill-rule="evenodd" clip-rule="evenodd" d="M55.6859 93.25V89H57.1859V93.25H60.9359V94.75H57.1859V99H55.6859V94.75H51.9359V93.25H55.6859Z" fill="#F3F6F8"/>
<path fill-rule="evenodd" clip-rule="evenodd" d="M231.686 96.25V92H233.186V96.25H236.936V97.75H233.186V102H231.686V97.75H227.936V96.25H231.686Z" fill="#F3F6F8"/>
<path fill-rule="evenodd" clip-rule="evenodd" d="M325.686 -0.75V-5H327.186V-0.75H330.936V0.75H327.186V5H325.686V0.75H321.936V-0.75H325.686Z" fill="#F3F6F8"/>
<path fill-rule="evenodd" clip-rule="evenodd" d="M333.686 74.25V70H335.186V74.25H338.936V75.75H335.186V80H333.686V75.75H329.936V74.25H333.686Z" fill="#F3F6F8"/>
<path fill-rule="evenodd" clip-rule="evenodd" d="M393.686 191.25V187H395.186V191.25H398.936V192.75H395.186V197H393.686V192.75H389.936V191.25H393.686Z" fill="#F3F6F8"/>
<path fill-rule="evenodd" clip-rule="evenodd" d="M229.686 190.25V186H231.186V190.25H234.936V191.75H231.186V196H229.686V191.75H225.936V190.25H229.686Z" fill="#F3F6F8"/>
<path fill-rule="evenodd" clip-rule="evenodd" d="M238.532 -43.0259L243.692 -39.0683L247.304 -45.0447L253.355 -41.3871L257.013 -47.4387L263.065 -43.7811L266.722 -49.8328L273.416 -45.7872L272.64 -44.5035L267.23 -47.7731L263.572 -41.7215L257.521 -45.3791L253.863 -39.3275L247.812 -42.985L244.109 -36.8581L239.107 -40.6945L236.814 -35.7333L235.452 -36.3627L238.532 -43.0259Z" fill="#F3F6F8"/>
<path fill-rule="evenodd" clip-rule="evenodd" d="M209.532 57.9741L214.692 61.9317L218.304 55.9553L224.356 59.6129L228.013 53.5613L234.065 57.2189L237.722 51.1672L244.416 55.2128L243.64 56.4965L238.23 53.2269L234.573 59.2785L228.521 55.6209L224.863 61.6725L218.812 58.015L215.109 64.1419L210.107 60.3055L207.814 65.2667L206.452 64.6373L209.532 57.9741Z" fill="#F3F6F8"/>
<path fill-rule="evenodd" clip-rule="evenodd" d="M368.592 8.59228L365.338 11.4869L368.765 14.5732L365.62 18.0654L369.112 21.2106L365.966 24.7027L369.459 27.848L365.811 31.8974L364.697 30.8936L367.34 27.9587L363.848 24.8135L366.993 21.3213L363.501 18.1761L366.646 14.684L363.089 11.4799L366.194 8.71762L363.499 6.78278L364.373 5.56416L368.592 8.59228Z" fill="#F3F6F8"/>
<path fill-rule="evenodd" clip-rule="evenodd" d="M62.5924 180.592L59.3381 183.487L62.7649 186.573L59.6197 190.065L63.1118 193.211L59.9666 196.703L63.4588 199.848L59.8116 203.897L58.6971 202.894L61.3403 199.959L57.8482 196.813L60.9934 193.321L57.5012 190.176L60.6465 186.684L57.089 183.48L60.1945 180.718L57.4986 178.783L58.3733 177.564L62.5924 180.592Z" fill="#F3F6F8"/>
<path fill-rule="evenodd" clip-rule="evenodd" d="M333.854 109.603L340.328 110.213L340.212 103.231L347.282 103.114L347.165 96.0438L354.235 95.9264L354.117 88.8563L361.937 88.7265L361.962 90.2263L355.642 90.3312L355.759 97.4013L348.689 97.5187L348.807 104.589L341.737 104.706L341.855 111.864L335.58 111.272L336.273 116.694L334.786 116.884L333.854 109.603Z" fill="#F3F6F8"/>
<path fill-rule="evenodd" clip-rule="evenodd" d="M175.955 -3.42073L182.397 -4.30624L180.688 -11.077L187.544 -12.8076L185.814 -19.6636L192.67 -21.3942L190.939 -28.2503L198.522 -30.1644L198.889 -28.7101L192.76 -27.163L194.491 -20.307L187.635 -18.5764L189.366 -11.7203L182.51 -9.98973L184.262 -3.04844L178.017 -2.19004L179.932 2.92922L178.527 3.45471L175.955 -3.42073Z" fill="#F3F6F8"/>
<path fill-rule="evenodd" clip-rule="evenodd" d="M203.606 135.127L205.255 163.154L178.877 152.163L203.606 135.127ZM181.995 151.837L203.617 160.846L202.265 137.873L181.995 151.837Z" fill="#F3F6F8"/>
<path fill-rule="evenodd" clip-rule="evenodd" d="M119.106 177.627L120.755 205.654L94.3772 194.663L119.106 177.627ZM97.4946 194.337L119.117 203.346L117.765 180.373L97.4946 194.337Z" fill="#F3F6F8"/>
<path fill-rule="evenodd" clip-rule="evenodd" d="M68.2656 70.2835L66.5511 86.2997L53.5649 77.7907L68.2656 70.2835ZM56.5477 77.9517L65.3208 83.7003L66.479 72.8801L56.5477 77.9517Z" fill="#F3F6F8"/>
<path fill-rule="evenodd" clip-rule="evenodd" d="M323.996 -28.5042L322.281 -12.488L309.295 -20.9971L323.996 -28.5042ZM312.278 -20.836L321.051 -15.0875L322.209 -25.9077L312.278 -20.836Z" fill="#F3F6F8"/>
<path fill-rule="evenodd" clip-rule="evenodd" d="M137.996 -96.5043L136.281 -80.488L123.295 -88.9971L137.996 -96.5043ZM126.278 -88.836L135.051 -83.0875L136.209 -93.9077L126.278 -88.836Z" fill="#F3F6F8"/>
<path fill-rule="evenodd" clip-rule="evenodd" d="M75.996 27.4957L74.2816 43.512L61.2954 35.0029L75.996 27.4957ZM64.2781 35.164L73.0513 40.9125L74.2095 30.0923L64.2781 35.164Z" fill="#F3F6F8"/>
<path fill-rule="evenodd" clip-rule="evenodd" d="M157.293 49.3573L128.621 34.3635L154.045 16.4143L157.293 49.3573ZM152.805 19.1259L131.493 34.1724L155.528 46.7414L152.805 19.1259Z" fill="#F3F6F8"/>
<path fill-rule="evenodd" clip-rule="evenodd" d="M59.1717 -59.4581L30.5001 -74.4519L55.9235 -92.401L59.1717 -59.4581ZM54.6836 -89.6895L33.3716 -74.643L57.4065 -62.0739L54.6836 -89.6895Z" fill="#F3F6F8"/>
<path fill-rule="evenodd" clip-rule="evenodd" d="M33.1717 65.5419L4.50021 50.5482L29.9236 32.599L33.1717 65.5419ZM28.6837 35.3105L7.37165 50.3571L31.4065 62.9261L28.6837 35.3105Z" fill="#F3F6F8"/>
<path fill-rule="evenodd" clip-rule="evenodd" d="M200.323 3.20953L217.401 30.6908L186.384 33.2343L200.323 3.20953ZM188.829 31.5287L214.83 29.3966L200.514 6.35943L188.829 31.5287Z" fill="#F3F6F8"/>
<path fill-rule="evenodd" clip-rule="evenodd" d="M292.004 88.751L312.06 74.6808L315.291 98.0229L292.004 88.751ZM313.452 95.6761L310.911 77.3193L295.138 88.3844L313.452 95.6761Z" fill="#F3F6F8"/>
<path fill-rule="evenodd" clip-rule="evenodd" d="M375.004 42.751L395.06 28.6808L398.291 52.0229L375.004 42.751ZM396.452 49.6761L393.911 31.3193L378.138 42.3844L396.452 49.6761Z" fill="#F3F6F8"/>
<path fill-rule="evenodd" clip-rule="evenodd" d="M-25.9961 -29.2491L-5.94007 -43.3193L-2.70889 -19.9772L-25.9961 -29.2491ZM-4.54805 -22.324L-7.08914 -40.6808L-22.8617 -29.6157L-4.54805 -22.324Z" fill="#F3F6F8"/>
<path fill-rule="evenodd" clip-rule="evenodd" d="M303.004 -87.2491L323.06 -101.319L326.291 -77.9772L303.004 -87.2491ZM324.452 -80.324L321.911 -98.6808L306.138 -87.6157L324.452 -80.324Z" fill="#F3F6F8"/>
<path fill-rule="evenodd" clip-rule="evenodd" d="M108.027 136.638L125.041 124.555L128.814 146.072L108.027 136.638ZM126.845 143.531L123.973 127.153L111.023 136.35L126.845 143.531Z" fill="#F3F6F8"/>
<path fill-rule="evenodd" clip-rule="evenodd" d="M295.51 40.0075L282.943 46.1781L289.114 58.7449L301.681 52.5743L295.51 40.0075ZM280.936 45.4928L288.429 60.7525L303.688 53.2596L296.195 38L280.936 45.4928Z" fill="#F3F6F8"/>
<path fill-rule="evenodd" clip-rule="evenodd" d="M393.51 93.0075L380.943 99.1781L387.114 111.745L399.681 105.574L393.51 93.0075ZM378.936 98.4928L386.429 113.752L401.688 106.26L394.195 91L378.936 98.4928Z" fill="#F3F6F8"/>
<path fill-rule="evenodd" clip-rule="evenodd" d="M179.492 104.511L170.447 115.197L181.132 124.242L190.178 113.556L179.492 104.511ZM168.333 115.372L181.308 126.356L192.292 113.38L179.316 102.397L168.333 115.372Z" fill="#F3F6F8"/>
<path fill-rule="evenodd" clip-rule="evenodd" d="M111.095 -2.88596L102.05 7.7998L112.736 16.8449L121.781 6.15918L111.095 -2.88596ZM99.9359 7.97559L112.911 18.959L123.895 5.9834L110.919 -4.99998L99.9359 7.97559Z" fill="#F3F6F8"/>
<path fill-rule="evenodd" clip-rule="evenodd" d="M282.781 -17.88L278.056 -12.7946L283.141 -8.06892L287.867 -13.1544L282.781 -17.88ZM275.936 -12.7168L283.219 -5.94903L289.987 -13.2322L282.704 -19.9999L275.936 -12.7168Z" fill="#F3F6F8"/>
<path fill-rule="evenodd" clip-rule="evenodd" d="M341.781 164.12L337.056 169.205L342.141 173.931L346.867 168.846L341.781 164.12ZM334.936 169.283L342.219 176.051L348.987 168.768L341.704 162L334.936 169.283Z" fill="#F3F6F8"/>
<path fill-rule="evenodd" clip-rule="evenodd" d="M292.781 -7.88004L288.056 -2.79456L293.141 1.93108L297.867 -3.15441L292.781 -7.88004ZM285.936 -2.7168L293.219 4.05097L299.987 -3.23217L292.704 -9.99994L285.936 -2.7168Z" fill="#F3F6F8"/>
<path fill-rule="evenodd" clip-rule="evenodd" d="M351.781 174.12L347.056 179.205L352.141 183.931L356.867 178.846L351.781 174.12ZM344.936 179.283L352.219 186.051L358.987 178.768L351.704 172L344.936 179.283Z" fill="#F3F6F8"/>
<path fill-rule="evenodd" clip-rule="evenodd" d="M92.7814 -62.88L88.0558 -57.7946L93.1413 -53.0689L97.8669 -58.1544L92.7814 -62.88ZM85.9359 -57.7168L93.2191 -50.949L99.9868 -58.2322L92.7037 -64.9999L85.9359 -57.7168Z" fill="#F3F6F8"/>
<path fill-rule="evenodd" clip-rule="evenodd" d="M261.781 191.12L257.056 196.205L262.141 200.931L266.867 195.846L261.781 191.12ZM254.936 196.283L262.219 203.051L268.987 195.768L261.704 189L254.936 196.283Z" fill="#F3F6F8"/>
<path d="M23.1585 330.851C21.2832 331.774 21.5536 332.62 20.2935 333.594C18.9174 334.418 17.1277 334.46 16.1744 335.149C15.2211 335.839 13.5466 337.517 15.145 340.452C16.7435 343.387 20.468 344.917 25.1567 341.867C29.8455 338.817 28.6707 334.26 27.8463 332.883C27.0219 331.507 25.0338 329.928 23.1585 330.851Z" fill="#EEEEEE"/>
<path d="M241.515 393.365C242.372 391.459 241.625 390.98 241.975 389.426C242.511 387.914 243.864 386.741 244.159 385.603C244.455 384.464 244.676 382.104 241.574 380.86C238.472 379.616 234.626 380.809 232.956 386.148C231.286 391.486 235.094 394.25 236.607 394.786C238.119 395.321 240.657 395.271 241.515 393.365Z" fill="#EEEEEE"/>
<path d="M-0.788744 511.186C0.068727 509.28 -0.678471 508.801 -0.328081 507.247C0.207302 505.735 1.56024 504.562 1.85585 503.424C2.15147 502.285 2.37274 499.925 -0.729221 498.681C-3.83118 497.437 -7.67708 498.631 -9.34741 503.969C-11.0177 509.308 -7.20886 512.071 -5.69669 512.607C-4.18452 513.142 -1.64621 513.093 -0.788744 511.186Z" fill="#EEEEEE"/>
<path d="M387.211 466.186C388.069 464.28 387.321 463.801 387.672 462.247C388.207 460.735 389.56 459.563 389.856 458.424C390.151 457.285 390.373 454.925 387.271 453.681C384.169 452.437 380.323 453.631 378.652 458.969C376.982 464.308 380.791 467.071 382.303 467.607C383.815 468.142 386.354 468.093 387.211 466.186Z" fill="#EEEEEE"/>
<path d="M361.198 367.781C362.251 369.587 363.075 369.258 364.136 370.446C365.055 371.761 365.222 373.543 365.977 374.446C366.731 375.348 368.523 376.901 371.338 375.1C374.154 373.299 375.419 369.476 372.047 365.014C368.674 360.551 364.211 362.043 362.896 362.962C361.581 363.881 360.146 365.975 361.198 367.781Z" fill="#EEEEEE"/>
<path d="M174.605 448.166L165.838 445.114L167.49 453.701L174.605 448.166Z" fill="#EEEEEE"/>
<path d="M40.6048 422.166L31.8377 419.114L33.49 427.701L40.6048 422.166Z" fill="#EEEEEE"/>
<path d="M277.605 429.166L268.838 426.114L270.49 434.701L277.605 429.166Z" fill="#EEEEEE"/>
<path d="M316.605 498.166L307.838 495.114L309.49 503.701L316.605 498.166Z" fill="#EEEEEE"/>
<path d="M344.605 355.166L335.838 352.114L337.49 360.701L344.605 355.166Z" fill="#EEEEEE"/>
<path d="M183.605 281.166L174.838 278.114L176.49 286.701L183.605 281.166Z" fill="#EEEEEE"/>
<path d="M-4.39522 311.166L-13.1623 308.114L-11.51 316.701L-4.39522 311.166Z" fill="#EEEEEE"/>
<path d="M275.605 221.166L266.838 218.114L268.49 226.701L275.605 221.166Z" fill="#EEEEEE"/>
<path d="M195.936 401.764L204.133 393L212.897 401.197L204.7 409.961L195.936 401.764Z" fill="#EEEEEE"/>
<path d="M14.9359 485.764L23.1328 477L31.897 485.197L23.7001 493.961L14.9359 485.764Z" fill="#EEEEEE"/>
<path d="M234.936 330.764L243.133 322L251.897 330.197L243.7 338.961L234.936 330.764Z" fill="#EEEEEE"/>
<path d="M89.9359 475.764L98.1328 467L106.897 475.197L98.7001 483.961L89.9359 475.764Z" fill="#EEEEEE"/>
<path d="M-11.0641 403.764L-2.86719 395L5.89701 403.197L-2.29986 411.961L-11.0641 403.764Z" fill="#EEEEEE"/>
<path d="M81.9359 333.764L90.1328 325L98.897 333.197L90.7001 341.961L81.9359 333.764Z" fill="#EEEEEE"/>
<path d="M77.9359 215.764L86.1328 207L94.897 215.197L86.7001 223.961L77.9359 215.764Z" fill="#EEEEEE"/>
<path d="M13.1034 209L20.6512 209.168L20.4837 216.715L12.9359 216.548L13.1034 209Z" fill="#EEEEEE"/>
<path d="M305.936 336.339L311.274 331L316.613 336.339L311.274 341.677L305.936 336.339Z" fill="#EEEEEE"/>
<path d="M385.936 238.338L391.274 233L396.613 238.338L391.274 243.677L385.936 238.338Z" fill="#EEEEEE"/>
<path d="M350.936 451.339L356.274 446L361.613 451.339L356.274 456.677L350.936 451.339Z" fill="#EEEEEE"/>
<path d="M382.936 295.339L388.274 290L393.613 295.339L388.274 300.677L382.936 295.339Z" fill="#EEEEEE"/>
<path d="M74.1034 366L81.6512 366.168L81.4837 373.715L73.9359 373.548L74.1034 366Z" fill="#EEEEEE"/>
<path fill-rule="evenodd" clip-rule="evenodd" d="M219.203 216.964C219.749 214.391 220.92 213.134 222.092 212.503C223.3 211.853 224.624 211.809 225.548 211.885C226.37 211.953 227.312 212.393 228.523 212.969L228.525 212.97C229.676 213.518 231.02 214.157 232.473 214.403L232.517 214.411L232.561 214.413C233.783 214.474 234.65 214.242 235.387 214.046C235.544 214.004 235.695 213.964 235.842 213.928C236.646 213.734 237.52 213.614 239.096 214.017C240.502 214.377 241.408 215.42 241.924 216.762C242.445 218.117 242.531 219.698 242.324 220.916C242.123 222.1 241.21 224.398 239.238 226.242C237.298 228.054 234.307 229.454 229.853 228.866C225.32 228.269 222.408 226.522 220.759 224.361C219.11 222.199 218.657 219.536 219.203 216.964ZM225.671 210.39C224.616 210.304 222.956 210.336 221.382 211.182C219.771 212.048 218.361 213.707 217.736 216.652C217.111 219.598 217.621 222.719 219.567 225.27C221.514 227.822 224.83 229.717 229.657 230.354C234.565 231.001 238.001 229.45 240.262 227.338C242.49 225.255 243.551 222.652 243.803 221.167C244.049 219.715 243.953 217.858 243.325 216.224C242.691 214.577 241.48 213.079 239.468 212.564C237.627 212.093 236.502 212.226 235.49 212.47C235.3 212.516 235.122 212.563 234.95 212.608C234.243 212.795 233.625 212.958 232.68 212.917C231.48 212.705 230.333 212.169 229.167 211.614L229.053 211.56C227.963 211.041 226.788 210.482 225.671 210.39ZM228.575 215.298C228.565 215.265 228.559 215.245 228.578 215.212C228.669 215.247 228.809 215.314 229.039 215.435L229.11 215.472C229.714 215.789 230.627 216.268 231.866 216.365C232.95 216.45 233.889 216.229 234.549 216.074C234.654 216.049 234.752 216.026 234.843 216.006C235.201 215.927 235.372 215.913 235.46 215.926C235.464 215.932 235.469 215.941 235.474 215.953L235.475 215.954C235.484 215.973 235.503 216.014 235.44 216.124C235.364 216.254 235.189 216.439 234.869 216.615C234.236 216.965 233.196 217.193 231.941 216.987C230.633 216.772 229.591 216.305 229.011 215.83C228.717 215.589 228.604 215.398 228.575 215.298ZM231.983 214.87C231.055 214.797 230.376 214.442 229.771 214.125L229.709 214.092C229.44 213.951 229.087 213.767 228.744 213.705C228.544 213.669 228.305 213.665 228.058 213.755C227.818 213.842 227.631 213.995 227.488 214.174C227.091 214.623 226.975 215.179 227.137 215.725C227.286 216.227 227.647 216.652 228.061 216.991C228.898 217.676 230.209 218.223 231.698 218.467C233.241 218.721 234.629 218.461 235.594 217.928C236.073 217.664 236.489 217.309 236.74 216.871C237.002 216.414 237.085 215.856 236.833 215.318C236.727 215.09 236.577 214.884 236.369 214.726C236.161 214.566 235.931 214.483 235.708 214.446C235.302 214.38 234.866 214.465 234.52 214.541C234.407 214.566 234.293 214.593 234.178 214.619C233.515 214.773 232.816 214.935 231.983 214.87Z" fill="#EEEEEE"/>
<path fill-rule="evenodd" clip-rule="evenodd" d="M346.203 278.964C346.749 276.391 347.92 275.134 349.092 274.503C350.3 273.853 351.624 273.809 352.548 273.885C353.37 273.953 354.312 274.393 355.523 274.969L355.525 274.97C356.676 275.518 358.02 276.157 359.473 276.403L359.517 276.411L359.561 276.413C360.783 276.474 361.65 276.242 362.387 276.046C362.544 276.004 362.695 275.964 362.842 275.928C363.646 275.734 364.52 275.614 366.096 276.017C367.502 276.377 368.408 277.42 368.924 278.762C369.445 280.117 369.531 281.698 369.324 282.916C369.123 284.1 368.21 286.398 366.238 288.242C364.298 290.054 361.307 291.454 356.853 290.866C352.32 290.269 349.408 288.522 347.759 286.361C346.11 284.199 345.657 281.536 346.203 278.964ZM352.671 272.39C351.616 272.304 349.956 272.336 348.382 273.182C346.771 274.048 345.361 275.707 344.736 278.652C344.111 281.598 344.621 284.719 346.567 287.27C348.514 289.822 351.83 291.717 356.657 292.354C361.565 293.001 365.001 291.45 367.262 289.338C369.49 287.255 370.551 284.652 370.803 283.167C371.049 281.715 370.953 279.858 370.325 278.224C369.691 276.577 368.48 275.079 366.468 274.564C364.627 274.093 363.502 274.226 362.49 274.47C362.3 274.516 362.122 274.563 361.95 274.608C361.243 274.795 360.625 274.958 359.68 274.917C358.48 274.705 357.333 274.169 356.167 273.614L356.053 273.56C354.963 273.041 353.788 272.482 352.671 272.39ZM355.575 277.298C355.565 277.265 355.559 277.245 355.578 277.212C355.669 277.247 355.809 277.314 356.039 277.435L356.11 277.472C356.714 277.789 357.627 278.268 358.866 278.365C359.95 278.45 360.889 278.229 361.549 278.074C361.654 278.049 361.752 278.026 361.843 278.006C362.201 277.927 362.372 277.913 362.46 277.926C362.464 277.932 362.469 277.941 362.474 277.953L362.475 277.954C362.484 277.973 362.503 278.013 362.44 278.124C362.364 278.254 362.189 278.439 361.869 278.615C361.236 278.965 360.196 279.193 358.941 278.987C357.633 278.772 356.591 278.305 356.011 277.83C355.717 277.589 355.604 277.398 355.575 277.298ZM358.983 276.87C358.055 276.797 357.376 276.442 356.771 276.125L356.709 276.092C356.44 275.951 356.087 275.767 355.744 275.705C355.544 275.669 355.305 275.665 355.058 275.755C354.818 275.842 354.631 275.995 354.488 276.174C354.091 276.623 353.975 277.179 354.137 277.725C354.286 278.227 354.647 278.652 355.061 278.991C355.898 279.676 357.209 280.223 358.698 280.467C360.241 280.721 361.629 280.461 362.594 279.928C363.073 279.664 363.489 279.309 363.74 278.871C364.002 278.414 364.085 277.856 363.833 277.318C363.727 277.09 363.577 276.884 363.369 276.725C363.161 276.566 362.931 276.483 362.708 276.446C362.302 276.38 361.866 276.465 361.52 276.541C361.407 276.566 361.293 276.593 361.178 276.619C360.515 276.773 359.816 276.935 358.983 276.87Z" fill="#EEEEEE"/>
<path fill-rule="evenodd" clip-rule="evenodd" d="M276.77 322.549C279.377 322.199 280.954 322.879 281.942 323.772C282.959 324.692 283.446 325.924 283.684 326.82C283.897 327.617 283.798 328.652 283.662 329.986L283.662 329.988C283.533 331.256 283.382 332.737 283.638 334.188L283.645 334.232L283.658 334.274C284.011 335.445 284.52 336.184 284.953 336.813C285.045 336.947 285.134 337.075 285.216 337.202C285.669 337.894 286.076 338.677 286.225 340.297C286.359 341.742 285.68 342.946 284.589 343.883C283.488 344.829 282.028 345.44 280.811 345.654C279.628 345.863 277.157 345.774 274.758 344.535C272.4 343.317 270.077 340.969 269.135 336.577C268.175 332.107 268.843 328.777 270.325 326.498C271.808 324.219 274.164 322.898 276.77 322.549ZM285.134 326.433C284.861 325.411 284.273 323.857 282.948 322.659C281.591 321.433 279.556 320.662 276.571 321.062C273.586 321.462 270.817 322.991 269.068 325.68C267.318 328.371 266.647 332.131 267.668 336.892C268.707 341.731 271.321 344.448 274.07 345.868C276.78 347.268 279.587 347.393 281.071 347.132C282.521 346.876 284.238 346.162 285.567 345.021C286.906 343.871 287.91 342.228 287.719 340.16C287.545 338.267 287.042 337.252 286.472 336.381C286.365 336.218 286.261 336.066 286.16 335.918C285.747 335.315 285.386 334.788 285.107 333.884C284.904 332.683 285.024 331.422 285.155 330.138L285.167 330.012C285.29 328.811 285.423 327.516 285.134 326.433ZM281.486 330.817C281.514 330.796 281.531 330.784 281.568 330.791C281.566 330.888 281.549 331.042 281.513 331.3L281.502 331.379C281.406 332.055 281.261 333.076 281.586 334.275C281.87 335.325 282.394 336.135 282.761 336.705C282.82 336.795 282.875 336.88 282.924 336.958C283.119 337.27 283.189 337.426 283.207 337.513C283.202 337.519 283.195 337.526 283.186 337.535L283.185 337.536C283.17 337.551 283.138 337.583 283.013 337.56C282.865 337.533 282.633 337.43 282.359 337.188C281.817 336.709 281.253 335.806 281.025 334.555C280.788 333.25 280.879 332.112 281.131 331.407C281.26 331.048 281.402 330.878 281.486 330.817ZM283.034 333.883C282.791 332.985 282.898 332.226 282.993 331.549L283.002 331.48C283.045 331.179 283.1 330.785 283.043 330.441C283.01 330.241 282.933 330.015 282.766 329.812C282.603 329.615 282.397 329.49 282.18 329.415C281.623 329.193 281.061 329.27 280.601 329.605C280.178 329.914 279.899 330.398 279.719 330.901C279.354 331.92 279.28 333.338 279.549 334.823C279.829 336.361 280.539 337.581 281.365 338.311C281.775 338.674 282.25 338.946 282.746 339.036C283.264 339.13 283.818 339.02 284.241 338.602C284.419 338.426 284.563 338.216 284.643 337.967C284.723 337.716 284.724 337.472 284.684 337.25C284.61 336.845 284.383 336.463 284.195 336.163C284.134 336.064 284.071 335.966 284.007 335.867C283.639 335.294 283.252 334.69 283.034 333.883Z" fill="#EEEEEE"/>
<path fill-rule="evenodd" clip-rule="evenodd" d="M255.909 445.38C256.635 447.907 256.193 449.567 255.455 450.674C254.694 451.815 253.546 452.476 252.695 452.844C251.937 453.171 250.899 453.224 249.559 453.285L249.557 453.285C248.283 453.342 246.797 453.41 245.399 453.875L245.356 453.889L245.316 453.908C244.209 454.428 243.553 455.04 242.994 455.56C242.875 455.67 242.761 455.776 242.648 455.877C242.029 456.426 241.314 456.943 239.733 457.328C238.323 457.671 237.033 457.176 235.947 456.234C234.85 455.282 234.032 453.927 233.642 452.755C233.263 451.615 232.989 449.157 233.864 446.603C234.725 444.092 236.708 441.451 240.915 439.877C245.197 438.274 248.589 438.448 251.059 439.581C253.531 440.715 255.182 442.853 255.909 445.38ZM253.289 454.221C254.261 453.802 255.711 452.993 256.703 451.507C257.717 449.986 258.182 447.859 257.35 444.965C256.518 442.071 254.601 439.555 251.685 438.218C248.767 436.88 244.949 436.765 240.389 438.472C235.753 440.207 233.448 443.19 232.445 446.117C231.457 449.002 231.743 451.798 232.219 453.228C232.684 454.625 233.641 456.219 234.964 457.367C236.297 458.523 238.07 459.276 240.088 458.785C241.934 458.336 242.865 457.69 243.644 456.999C243.79 456.869 243.925 456.744 244.056 456.623C244.592 456.126 245.06 455.692 245.914 455.284C247.073 454.907 248.337 454.842 249.627 454.783L249.754 454.777C250.959 454.723 252.259 454.665 253.289 454.221ZM248.419 451.253C248.443 451.278 248.458 451.293 248.457 451.331C248.36 451.343 248.205 451.349 247.945 451.351L247.865 451.351C247.182 451.355 246.152 451.361 245.013 451.858C244.016 452.292 243.29 452.929 242.781 453.376C242.7 453.447 242.624 453.513 242.553 453.573C242.274 453.812 242.13 453.904 242.046 453.935C242.04 453.931 242.031 453.925 242.021 453.917L242.02 453.917C242.003 453.904 241.967 453.877 241.971 453.75C241.976 453.599 242.045 453.354 242.244 453.048C242.639 452.442 243.449 451.752 244.654 451.344C245.91 450.919 247.049 450.842 247.784 450.989C248.157 451.063 248.346 451.179 248.419 451.253ZM245.612 453.233C246.465 452.861 247.231 452.856 247.915 452.851L247.985 452.85C248.288 452.848 248.687 452.846 249.018 452.739C249.211 452.677 249.424 452.568 249.6 452.372C249.771 452.183 249.864 451.96 249.907 451.735C250.046 451.152 249.887 450.606 249.488 450.201C249.121 449.828 248.602 449.622 248.077 449.518C247.016 449.306 245.602 449.439 244.173 449.923C242.692 450.424 241.589 451.306 240.987 452.229C240.689 452.688 240.488 453.197 240.472 453.702C240.455 454.228 240.644 454.759 241.12 455.116C241.321 455.267 241.549 455.379 241.808 455.421C242.067 455.464 242.309 455.43 242.523 455.357C242.913 455.225 243.257 454.945 243.526 454.715C243.615 454.64 243.703 454.563 243.792 454.485C244.305 454.038 244.845 453.567 245.612 453.233Z" fill="#EEEEEE"/>
<path fill-rule="evenodd" clip-rule="evenodd" d="M324.166 457.877C321.757 458.929 320.053 458.709 318.858 458.123C317.626 457.518 316.82 456.468 316.344 455.672C315.921 454.964 315.731 453.942 315.495 452.622L315.494 452.62C315.27 451.365 315.008 449.9 314.363 448.575L314.343 448.535L314.319 448.498C313.658 447.469 312.965 446.898 312.376 446.413C312.251 446.31 312.13 446.211 312.016 446.112C311.39 445.571 310.784 444.929 310.194 443.413C309.669 442.06 309.99 440.716 310.781 439.516C311.58 438.304 312.816 437.314 313.927 436.773C315.006 436.248 317.407 435.653 320.054 436.185C322.657 436.707 325.535 438.326 327.649 442.289C329.801 446.324 330.075 449.708 329.276 452.307C328.478 454.906 326.576 456.824 324.166 457.877ZM315.057 456.442C315.6 457.35 316.593 458.682 318.197 459.47C319.838 460.275 322.007 460.457 324.767 459.251C327.526 458.045 329.768 455.815 330.71 452.747C331.653 449.679 331.264 445.879 328.973 441.583C326.643 437.216 323.383 435.323 320.349 434.714C317.359 434.113 314.625 434.765 313.27 435.425C311.946 436.069 310.492 437.228 309.529 438.69C308.558 440.164 308.044 442.02 308.796 443.956C309.484 445.728 310.247 446.565 311.035 447.246C311.182 447.374 311.324 447.491 311.462 447.605C312.025 448.071 312.517 448.479 313.033 449.271C313.559 450.37 313.791 451.615 314.018 452.886L314.041 453.011C314.253 454.199 314.482 455.48 315.057 456.442ZM317.359 451.224C317.338 451.252 317.324 451.268 317.286 451.272C317.262 451.178 317.236 451.025 317.2 450.767L317.189 450.688C317.095 450.012 316.953 448.991 316.311 447.927C315.75 446.996 315.023 446.361 314.513 445.914C314.432 445.843 314.356 445.777 314.287 445.715C314.014 445.469 313.903 445.338 313.862 445.26C313.866 445.252 313.87 445.244 313.876 445.232L313.877 445.231C313.887 445.213 313.909 445.174 314.035 445.161C314.186 445.146 314.437 445.182 314.767 445.339C315.42 445.651 316.211 446.363 316.773 447.504C317.36 448.693 317.586 449.812 317.537 450.56C317.513 450.94 317.423 451.142 317.359 451.224ZM315.027 448.702C315.508 449.499 315.614 450.258 315.709 450.935L315.718 451.004C315.76 451.305 315.815 451.699 315.965 452.014C316.052 452.197 316.188 452.394 316.405 452.543C316.615 452.687 316.848 452.75 317.077 452.763C317.673 452.823 318.193 452.595 318.542 452.146C318.864 451.733 318.999 451.191 319.034 450.657C319.105 449.578 318.786 448.193 318.119 446.84C317.427 445.438 316.408 444.461 315.414 443.986C314.92 443.75 314.389 443.618 313.886 443.669C313.363 443.721 312.861 443.979 312.569 444.497C312.446 444.716 312.366 444.957 312.357 445.219C312.349 445.481 312.415 445.717 312.515 445.919C312.697 446.288 313.02 446.593 313.283 446.83C313.37 446.907 313.457 446.985 313.546 447.063C314.057 447.512 314.595 447.986 315.027 448.702Z" fill="#EEEEEE"/>
<path fill-rule="evenodd" clip-rule="evenodd" d="M13.5397 450.991C13.2865 453.608 12.2651 454.99 11.1713 455.748C10.0439 456.53 8.73343 456.722 7.80678 456.751C6.98193 456.776 5.99683 456.445 4.72902 456.009L4.72669 456.008C3.52105 455.593 2.11397 455.109 0.642698 455.028L0.59828 455.025L0.553881 455.028C-0.666893 455.105 -1.50237 455.433 -2.21305 455.711C-2.36399 455.77 -2.50932 455.827 -2.65149 455.879C-3.42856 456.162 -4.28403 456.38 -5.89556 456.157C-7.33293 455.957 -8.35065 455.023 -9.01443 453.747C-9.68449 452.46 -9.94728 450.898 -9.87892 449.665C-9.81247 448.466 -9.16366 446.079 -7.4112 444.026C-5.68757 442.006 -2.87284 440.279 1.61819 440.362C6.18994 440.446 9.27992 441.854 11.1613 443.816C13.0435 445.779 13.7928 448.374 13.5397 450.991ZM7.85309 458.25C8.91096 458.218 10.5571 457.999 12.0259 456.981C13.5283 455.939 14.7428 454.133 15.0327 451.135C15.3227 448.138 14.4648 445.094 12.244 442.778C10.0224 440.461 6.51374 438.951 1.64568 438.862C-3.3031 438.771 -6.54331 440.698 -8.55213 443.052C-10.5321 445.372 -11.2933 448.077 -11.3766 449.582C-11.4581 451.052 -11.1534 452.886 -10.345 454.44C-9.53036 456.005 -8.15858 457.357 -6.10165 457.642C-4.21887 457.903 -3.11606 457.645 -2.13762 457.288C-1.95455 457.221 -1.78294 457.155 -1.61646 457.09C-0.935245 456.825 -0.339886 456.594 0.60404 456.528C1.82006 456.604 3.0199 457.007 4.24128 457.427L4.36091 457.468C5.50221 457.861 6.73266 458.285 7.85309 458.25ZM4.41519 453.7C4.42866 453.732 4.43673 453.751 4.42165 453.786C4.32756 453.762 4.18105 453.71 3.93853 453.616L3.86426 453.588C3.22753 453.34 2.26685 452.967 1.02503 453.01C-0.061658 453.048 -0.970202 453.373 -1.60853 453.602C-1.71011 453.638 -1.80499 453.672 -1.89251 453.702C-2.24011 453.821 -2.40826 453.854 -2.49717 453.851C-2.50174 453.845 -2.50742 453.837 -2.51408 453.826L-2.51471 453.825C-2.5259 453.807 -2.54926 453.769 -2.49879 453.652C-2.43882 453.514 -2.28507 453.311 -1.98696 453.1C-1.39721 452.681 -0.389778 452.337 0.88018 452.401C2.20439 452.467 3.29252 452.814 3.9216 453.22C4.24133 453.427 4.37453 453.604 4.41519 453.7ZM1.07687 454.509C2.00731 454.477 2.72179 454.754 3.35911 455.001L3.42431 455.026C3.70733 455.136 4.07892 455.28 4.42617 455.302C4.62873 455.315 4.86665 455.292 5.1024 455.175C5.33061 455.062 5.49941 454.889 5.62182 454.695C5.96514 454.204 6.01829 453.638 5.7962 453.114C5.59187 452.633 5.18461 452.251 4.73532 451.96C3.82634 451.373 2.46218 450.978 0.955185 450.902C-0.606064 450.824 -1.95602 451.238 -2.85495 451.876C-3.30117 452.193 -3.67459 452.593 -3.87524 453.056C-4.08441 453.539 -4.10377 454.103 -3.79284 454.61C-3.66173 454.824 -3.48985 455.012 -3.2655 455.146C-3.03995 455.281 -2.80234 455.338 -2.57696 455.349C-2.16562 455.369 -1.74257 455.236 -1.40733 455.121C-1.29749 455.084 -1.1873 455.045 -1.0761 455.005C-0.43428 454.778 0.241285 454.538 1.07687 454.509Z" fill="#EEEEEE"/>
<path fill-rule="evenodd" clip-rule="evenodd" d="M46.5518 454.006C46.1738 451.404 46.8365 449.818 47.7181 448.821C48.6268 447.794 49.8535 447.294 50.7466 447.045C51.5416 446.824 52.5774 446.912 53.9126 447.033L53.9151 447.033C55.1848 447.148 56.6666 447.283 58.1149 447.011L58.1586 447.003L58.2011 446.99C59.3683 446.624 60.1017 446.107 60.7255 445.667C60.858 445.574 60.9856 445.484 61.1113 445.4C61.7985 444.939 62.5774 444.524 64.1957 444.357C65.6392 444.208 66.8503 444.873 67.799 445.953C68.7566 447.044 69.384 448.498 69.6115 449.712C69.8328 450.892 69.7715 453.365 68.559 455.777C67.3663 458.149 65.0443 460.497 60.6631 461.487C56.2031 462.496 52.8665 461.864 50.5717 460.407C48.276 458.95 46.9297 456.608 46.5518 454.006ZM50.3443 445.6C49.3247 445.884 47.7781 446.489 46.5943 447.828C45.3834 449.197 44.6345 451.241 45.0674 454.221C45.5002 457.202 47.0589 459.954 49.7677 461.673C52.4774 463.394 56.2448 464.024 60.9939 462.95C65.8216 461.859 68.5092 459.215 69.8991 456.45C71.2691 453.726 71.3635 450.917 71.0859 449.436C70.8146 447.989 70.0816 446.28 68.9262 444.964C67.7619 443.638 66.1074 442.652 64.0417 442.865C62.151 443.06 61.1416 443.574 60.2764 444.154C60.1145 444.262 59.9637 444.368 59.8175 444.47C59.219 444.89 58.696 445.256 57.7949 445.545C56.5959 445.762 55.3345 445.656 54.0482 445.539L53.9222 445.527C52.7201 445.418 51.4242 445.3 50.3443 445.6ZM54.7676 449.2C54.747 449.172 54.7344 449.155 54.7408 449.118C54.838 449.119 54.9925 449.134 55.2504 449.168L55.3294 449.178C56.0068 449.266 57.0287 449.4 58.2245 449.062C59.2709 448.766 60.0757 448.234 60.6412 447.86C60.7312 447.8 60.8152 447.745 60.8931 447.695C61.2024 447.497 61.3577 447.424 61.4447 447.406C61.4506 447.411 61.4581 447.417 61.4672 447.426L61.468 447.427C61.4832 447.442 61.515 447.473 61.4937 447.599C61.4685 447.747 61.3675 447.981 61.1284 448.257C60.6554 448.804 59.759 449.379 58.5105 449.62C57.2086 449.871 56.069 449.793 55.3613 449.548C55.0015 449.424 54.83 449.284 54.7676 449.2ZM57.8168 447.618C56.9209 447.871 56.161 447.773 55.4833 447.685L55.4139 447.676C55.1129 447.637 54.7177 447.586 54.3751 447.647C54.1753 447.682 53.9497 447.761 53.7486 447.931C53.554 448.096 53.4313 448.304 53.3587 448.522C53.1423 449.08 53.2254 449.642 53.566 450.098C53.8793 450.517 54.3658 450.791 54.8713 450.966C55.894 451.319 57.3131 451.378 58.7947 451.092C60.3296 450.796 61.5419 450.072 62.2629 449.238C62.6208 448.825 62.8882 448.347 62.9726 447.849C63.0606 447.331 62.945 446.778 62.5222 446.36C62.3439 446.184 62.1322 446.042 61.8823 445.965C61.631 445.887 61.3867 445.889 61.1652 445.932C60.7609 446.01 60.3819 446.241 60.0836 446.432C59.9859 446.495 59.8882 446.559 59.7896 446.624C59.2205 446.998 58.6215 447.391 57.8168 447.618Z" fill="#EEEEEE"/>
<path fill-rule="evenodd" clip-rule="evenodd" d="M111.094 376.499C112.169 374.099 113.577 373.115 114.856 372.746C116.174 372.364 117.477 372.6 118.365 372.868C119.155 373.107 119.982 373.736 121.045 374.553L121.047 374.555C122.057 375.332 123.237 376.24 124.605 376.786L124.646 376.803L124.689 376.814C125.871 377.13 126.767 377.087 127.53 377.05C127.691 377.042 127.847 377.034 127.999 377.03C128.825 377.01 129.706 377.076 131.162 377.802C132.461 378.449 133.127 379.659 133.349 381.08C133.574 382.514 133.325 384.078 132.867 385.225C132.421 386.34 131.045 388.395 128.729 389.782C126.452 391.147 123.233 391.886 119.003 390.375C114.697 388.838 112.217 386.517 111.06 384.058C109.902 381.597 110.019 378.899 111.094 376.499ZM118.799 371.432C117.786 371.126 116.156 370.808 114.439 371.305C112.683 371.813 110.956 373.138 109.725 375.886C108.494 378.634 108.336 381.793 109.703 384.696C111.069 387.601 113.913 390.151 118.499 391.788C123.16 393.452 126.846 392.659 129.5 391.069C132.117 389.502 133.701 387.18 134.26 385.781C134.806 384.414 135.102 382.578 134.831 380.848C134.559 379.104 133.69 377.386 131.831 376.459C130.13 375.611 129.002 375.505 127.961 375.531C127.766 375.536 127.582 375.544 127.404 375.552C126.674 375.586 126.036 375.615 125.12 375.377C123.992 374.917 122.983 374.152 121.96 373.365L121.859 373.287C120.903 372.551 119.872 371.757 118.799 371.432ZM120.606 376.841C120.603 376.807 120.602 376.786 120.627 376.758C120.709 376.811 120.831 376.906 121.031 377.073L121.092 377.124C121.617 377.561 122.409 378.221 123.599 378.576C124.641 378.887 125.606 378.869 126.284 378.856C126.392 378.854 126.492 378.852 126.585 378.851C126.952 378.85 127.122 378.872 127.206 378.903C127.208 378.91 127.211 378.92 127.214 378.932L127.214 378.933C127.219 378.954 127.229 378.998 127.144 379.092C127.043 379.204 126.832 379.347 126.482 379.452C125.79 379.661 124.725 379.666 123.542 379.201C122.308 378.715 121.388 378.039 120.921 377.453C120.684 377.156 120.614 376.945 120.606 376.841ZM124.028 377.139C123.136 376.873 122.547 376.383 122.022 375.946L121.968 375.901C121.735 375.707 121.429 375.452 121.107 375.32C120.919 375.243 120.686 375.188 120.425 375.224C120.173 375.259 119.958 375.369 119.78 375.514C119.298 375.87 119.067 376.389 119.11 376.956C119.15 377.478 119.415 377.97 119.748 378.388C120.422 379.234 121.589 380.044 122.993 380.596C124.448 381.168 125.859 381.207 126.915 380.889C127.439 380.731 127.92 380.471 128.258 380.096C128.61 379.705 128.809 379.177 128.676 378.597C128.62 378.352 128.517 378.12 128.347 377.921C128.176 377.72 127.969 377.591 127.759 377.508C127.376 377.358 126.932 377.35 126.578 377.351C126.462 377.352 126.345 377.354 126.227 377.356C125.546 377.367 124.829 377.378 124.028 377.139Z" fill="#EEEEEE"/>
<path fill-rule="evenodd" clip-rule="evenodd" d="M144.579 493.124C143.248 490.856 143.265 489.138 143.706 487.882C144.161 486.588 145.109 485.663 145.843 485.097C146.496 484.592 147.489 484.283 148.771 483.893L148.774 483.892C149.993 483.52 151.417 483.087 152.656 482.29L152.694 482.266L152.728 482.238C153.671 481.459 154.156 480.704 154.568 480.062C154.656 479.925 154.74 479.794 154.825 479.669C155.288 478.983 155.853 478.305 157.289 477.541C158.571 476.859 159.943 477.019 161.229 477.663C162.527 478.313 163.655 479.423 164.323 480.462C164.973 481.472 165.847 483.786 165.632 486.477C165.421 489.123 164.154 492.173 160.468 494.74C156.717 497.354 153.388 498.026 150.713 497.54C148.038 497.055 145.909 495.392 144.579 493.124ZM144.926 483.909C144.089 484.556 142.884 485.699 142.291 487.385C141.685 489.11 141.761 491.286 143.285 493.883C144.808 496.481 147.288 498.443 150.445 499.016C153.603 499.59 157.331 498.754 161.326 495.971C165.387 493.142 166.881 489.681 167.128 486.596C167.37 483.556 166.4 480.918 165.585 479.651C164.789 478.413 163.466 477.106 161.9 476.322C160.322 475.532 158.418 475.241 156.585 476.217C154.907 477.109 154.165 477.966 153.582 478.829C153.473 478.99 153.373 479.145 153.276 479.295C152.88 479.909 152.533 480.445 151.807 481.052C150.778 481.704 149.57 482.081 148.334 482.458L148.213 482.494C147.058 482.846 145.813 483.224 144.926 483.909ZM150.38 485.578C150.35 485.56 150.332 485.549 150.324 485.512C150.414 485.477 150.563 485.433 150.815 485.366L150.892 485.346C151.552 485.173 152.549 484.912 153.53 484.148C154.388 483.481 154.933 482.684 155.316 482.125C155.377 482.036 155.434 481.953 155.487 481.877C155.699 481.577 155.816 481.451 155.889 481.401C155.897 481.404 155.906 481.407 155.918 481.412L155.919 481.412C155.939 481.421 155.98 481.438 156.007 481.562C156.04 481.709 156.034 481.963 155.917 482.309C155.685 482.994 155.071 483.864 154.005 484.557C152.893 485.28 151.808 485.637 151.061 485.677C150.681 485.697 150.469 485.632 150.38 485.578ZM152.609 482.965C151.874 483.536 151.133 483.731 150.472 483.905L150.404 483.923C150.111 484 149.725 484.102 149.431 484.287C149.259 484.395 149.08 484.553 148.958 484.787C148.839 485.012 148.804 485.251 148.819 485.48C148.829 486.079 149.117 486.568 149.605 486.862C150.053 487.133 150.607 487.204 151.141 487.175C152.221 487.117 153.558 486.637 154.823 485.815C156.133 484.962 156.984 483.835 157.337 482.791C157.513 482.273 157.581 481.73 157.472 481.237C157.358 480.723 157.043 480.255 156.494 480.027C156.262 479.931 156.013 479.879 155.752 479.902C155.49 479.925 155.264 480.018 155.075 480.141C154.73 480.366 154.466 480.723 154.262 481.012C154.195 481.107 154.128 481.203 154.061 481.3C153.675 481.861 153.268 482.451 152.609 482.965Z" fill="#EEEEEE"/>
<path fill-rule="evenodd" clip-rule="evenodd" d="M-10.0722 252.275C-12.631 251.669 -13.861 250.47 -14.4637 249.283C-15.0849 248.06 -15.098 246.735 -15.0006 245.813C-14.9138 244.993 -14.4512 244.062 -13.8472 242.865L-13.8461 242.863C-13.2717 241.725 -12.6013 240.396 -12.3208 238.95L-12.3123 238.906L-12.3091 238.862C-12.2198 237.642 -12.4306 236.769 -12.6098 236.028C-12.6479 235.87 -12.6846 235.718 -12.7166 235.57C-12.8919 234.762 -12.9916 233.885 -12.5514 232.319C-12.1587 230.922 -11.0947 230.04 -9.74088 229.556C-8.37424 229.067 -6.79164 229.018 -5.57893 229.254C-4.40001 229.482 -2.12353 230.449 -0.327198 232.464C1.43957 234.446 2.76833 237.469 2.07707 241.907C1.37338 246.425 -0.441529 249.295 -2.64077 250.893C-4.84089 252.491 -7.51368 252.881 -10.0722 252.275ZM-16.4922 245.656C-16.6035 246.708 -16.6104 248.369 -15.801 249.962C-14.9732 251.592 -13.3481 253.041 -10.418 253.735C-7.4875 254.429 -4.35518 253.992 -1.75918 252.107C0.837684 250.22 2.8099 246.949 3.5592 242.138C4.32092 237.247 2.85158 233.776 0.792475 231.466C-1.23707 229.189 -3.81422 228.068 -5.29336 227.781C-6.73871 227.501 -8.59744 227.553 -10.2463 228.143C-11.9079 228.738 -13.4335 229.914 -13.9954 231.913C-14.5098 233.743 -14.4032 234.87 -14.1826 235.888C-14.1413 236.079 -14.0985 236.258 -14.057 236.431C-13.8872 237.142 -13.7388 237.764 -13.802 238.708C-14.0418 239.902 -14.6044 241.036 -15.1863 242.189L-15.2434 242.302C-15.7876 243.379 -16.3744 244.541 -16.4922 245.656ZM-11.5174 242.867C-11.5507 242.876 -11.5713 242.882 -11.6038 242.862C-11.5665 242.772 -11.4959 242.634 -11.3699 242.407L-11.3313 242.337C-10.9999 241.74 -10.4998 240.838 -10.3737 239.602C-10.2634 238.521 -10.4623 237.576 -10.6021 236.913C-10.6243 236.807 -10.6451 236.709 -10.6629 236.618C-10.7334 236.257 -10.7434 236.086 -10.7288 235.999C-10.722 235.995 -10.713 235.99 -10.7014 235.985L-10.7003 235.985C-10.6807 235.976 -10.64 235.958 -10.5314 236.024C-10.4023 236.102 -10.2224 236.282 -10.0533 236.606C-9.71885 237.247 -9.51462 238.292 -9.75003 239.542C-9.99549 240.845 -10.4874 241.875 -10.9753 242.444C-11.2233 242.732 -11.4168 242.84 -11.5174 242.867ZM-11.866 239.45C-11.9604 240.376 -12.3316 241.047 -12.6626 241.645L-12.6965 241.706C-12.8436 241.971 -13.0366 242.32 -13.1061 242.661C-13.1465 242.86 -13.1561 243.099 -13.0722 243.348C-12.9909 243.589 -12.8424 243.78 -12.6668 243.928C-12.227 244.335 -11.6739 244.464 -11.1248 244.315C-10.6196 244.178 -10.1858 243.827 -9.83735 243.421C-9.1324 242.6 -8.5553 241.302 -8.27596 239.819C-7.98656 238.283 -8.21362 236.889 -8.72347 235.912C-8.97656 235.427 -9.3221 235.003 -9.75387 234.741C-10.204 234.468 -10.7599 234.373 -11.3046 234.612C-11.5342 234.713 -11.7436 234.858 -11.9073 235.062C-12.0719 235.267 -12.1604 235.494 -12.202 235.716C-12.278 236.121 -12.203 236.558 -12.135 236.906C-12.1127 237.02 -12.0889 237.134 -12.065 237.25C-11.9267 237.917 -11.7812 238.618 -11.866 239.45Z" fill="#EEEEEE"/>
<path fill-rule="evenodd" clip-rule="evenodd" d="M97.2612 298.933C96.6291 301.486 95.4172 302.704 94.2246 303.294C92.9952 303.903 91.6707 303.903 90.7497 303.796C89.93 303.701 89.0038 303.229 87.8131 302.613L87.8109 302.612C86.6786 302.026 85.3571 301.342 83.9134 301.047L83.8699 301.038L83.8255 301.034C82.6065 300.932 81.7323 301.134 80.9886 301.306C80.8307 301.343 80.6786 301.378 80.5304 301.408C79.7203 301.575 78.8422 301.666 77.2805 301.21C75.8875 300.803 75.0169 299.73 74.5462 298.372C74.0711 297 74.0387 295.417 74.2862 294.207C74.5267 293.03 75.5166 290.764 77.5497 288.988C79.5493 287.241 82.5858 285.943 87.0168 286.68C91.5275 287.429 94.3791 289.273 95.9543 291.488C97.5302 293.704 97.8932 296.381 97.2612 298.933ZM90.577 305.286C91.6283 305.408 93.2887 305.432 94.8903 304.638C96.5285 303.827 97.9934 302.217 98.7172 299.294C99.4411 296.371 99.0362 293.234 97.1768 290.619C95.3168 288.003 92.0657 285.998 87.2627 285.2C82.38 284.389 78.8934 285.823 76.5629 287.858C74.2659 289.865 73.1184 292.43 72.8166 293.906C72.5217 295.349 72.5556 297.208 73.1289 298.863C73.7066 300.53 74.8666 302.068 76.86 302.65C78.6846 303.183 79.8133 303.088 80.8333 302.877C81.0241 302.838 81.2036 302.797 81.3778 302.757C82.0903 302.595 82.713 302.453 83.6564 302.525C84.8485 302.777 85.9767 303.351 87.1238 303.945L87.2361 304.003C88.3079 304.558 89.4635 305.157 90.577 305.286ZM87.8392 300.283C87.8479 300.316 87.853 300.337 87.833 300.369C87.7435 300.331 87.6061 300.259 87.3798 300.131L87.3106 300.092C86.7167 299.754 85.8207 299.245 84.5859 299.106C83.5053 298.985 82.559 299.174 81.8942 299.307C81.7884 299.329 81.6896 299.348 81.5986 299.365C81.2374 299.432 81.0662 299.44 80.9787 299.425C80.975 299.418 80.9706 299.409 80.9656 299.397L80.9652 299.396C80.9567 299.377 80.9392 299.336 81.0061 299.228C81.0856 299.099 81.2673 298.921 81.593 298.756C82.2375 298.428 83.2843 298.234 84.5314 298.482C85.8318 298.741 86.8577 299.243 87.4208 299.737C87.707 299.988 87.813 300.182 87.8392 300.283ZM84.4186 300.597C85.3438 300.701 86.0103 301.079 86.6048 301.416L86.6656 301.45C86.9296 301.6 87.2762 301.797 87.6165 301.87C87.815 301.912 88.0537 301.924 88.304 301.843C88.5463 301.764 88.7385 301.617 88.8879 301.443C89.2991 301.008 89.4342 300.456 89.2908 299.905C89.159 299.399 88.8117 298.961 88.4096 298.609C87.5959 297.896 86.304 297.305 84.8241 297.011C83.2909 296.706 81.895 296.919 80.9127 297.419C80.4251 297.667 79.9973 298.008 79.7313 298.437C79.4539 298.885 79.3526 299.44 79.5862 299.987C79.6848 300.217 79.8274 300.428 80.0298 300.594C80.2332 300.761 80.46 300.851 80.6813 300.895C81.0853 300.975 81.5233 300.905 81.8717 300.84C81.9858 300.819 82.1006 300.796 82.2163 300.774C82.8844 300.642 83.5877 300.504 84.4186 300.597Z" fill="#EEEEEE"/>
<path fill-rule="evenodd" clip-rule="evenodd" d="M261.436 236.799L265.498 241.877L270.436 236.939L275.436 241.939L280.436 236.939L285.436 241.939L290.436 236.939L295.966 242.47L294.905 243.53L290.436 239.061L285.436 244.061L280.436 239.061L275.436 244.061L270.436 239.061L265.374 244.123L261.436 239.201L257.469 244.159L252.378 238.502L253.493 237.498L257.402 241.841L261.436 236.799Z" fill="#EEEEEE"/>
<path fill-rule="evenodd" clip-rule="evenodd" d="M19.4359 266.799L23.4981 271.877L28.4359 266.939L33.4359 271.939L38.4359 266.939L43.4359 271.939L48.4359 266.939L53.9662 272.47L52.9056 273.53L48.4359 269.061L43.4359 274.061L38.4359 269.061L33.4359 274.061L28.4359 269.061L23.3737 274.123L19.4359 269.201L15.4696 274.159L10.3784 268.502L11.4934 267.498L15.4023 271.841L19.4359 266.799Z" fill="#EEEEEE"/>
<path fill-rule="evenodd" clip-rule="evenodd" d="M161.4 244.051L167.824 245.059L168.138 238.083L175.202 238.4L175.52 231.336L182.584 231.654L182.902 224.59L190.715 224.942L190.647 226.44L184.333 226.156L184.015 233.22L176.951 232.902L176.633 239.966L169.569 239.648L169.248 246.8L163.02 245.823L163.437 252.159L155.863 251.418L156.009 249.925L161.824 250.494L161.4 244.051Z" fill="#EEEEEE"/>
<path fill-rule="evenodd" clip-rule="evenodd" d="M90.4935 436.76L95.9114 433.164L91.4307 427.808L96.8542 423.27L92.3171 417.847L97.7407 413.31L93.2036 407.886L99.2024 402.868L100.165 404.018L95.3166 408.074L99.8537 413.498L94.4301 418.035L98.9672 423.458L93.5437 427.996L98.1372 433.487L92.8853 436.973L97.4721 441.363L91.3863 445.932L90.4856 444.733L95.1582 441.224L90.4935 436.76Z" fill="#EEEEEE"/>
<path fill-rule="evenodd" clip-rule="evenodd" d="M254.916 406.967L260.079 403.013L255.247 397.972L260.352 393.079L255.459 387.974L260.564 383.081L255.672 377.976L261.318 372.565L262.356 373.648L257.792 378.021L262.685 383.126L257.58 388.019L262.473 393.124L257.368 398.017L262.321 403.185L257.317 407.018L262.189 411.089L256.426 416.058L255.446 414.922L259.871 411.107L254.916 406.967Z" fill="#EEEEEE"/>
<path fill-rule="evenodd" clip-rule="evenodd" d="M140.649 415.758L148.904 417.609L149.907 408.52L159.084 409.534L160.097 400.357L169.273 401.371L170.286 392.195L180.208 393.29L180.043 394.781L171.613 393.85L170.599 403.026L161.423 402.013L160.41 411.189L151.234 410.176L150.211 419.44L142.151 417.632L142.156 425.938L132.618 424.373L132.86 422.893L140.655 424.172L140.649 415.758Z" fill="#EEEEEE"/>
<path fill-rule="evenodd" clip-rule="evenodd" d="M168.386 507.047L172.632 511.972L177.385 506.857L182.565 511.67L187.379 506.49L192.559 511.303L197.372 506.123L203.101 511.447L202.08 512.546L197.45 508.243L192.636 513.423L187.456 508.61L182.643 513.79L177.463 508.976L172.59 514.221L168.474 509.446L164.692 514.546L159.397 509.08L160.475 508.036L164.54 512.233L168.386 507.047Z" fill="#EEEEEE"/>
<path fill-rule="evenodd" clip-rule="evenodd" d="M252.91 479.857L259.39 480.4L259.201 473.419L266.27 473.228L266.079 466.16L273.147 465.969L272.956 458.9L280.774 458.689L280.815 460.188L274.496 460.359L274.687 467.428L267.619 467.619L267.81 474.687L260.741 474.878L260.935 482.035L254.653 481.508L255.525 487.797L247.917 487.603L247.955 486.103L253.796 486.253L252.91 479.857Z" fill="#EEEEEE"/>
<path fill-rule="evenodd" clip-rule="evenodd" d="M152.186 309.25V305H153.686V309.25H157.436V310.75H153.686V315H152.186V310.75H148.436V309.25H152.186Z" fill="#EEEEEE"/>
<path fill-rule="evenodd" clip-rule="evenodd" d="M219.686 319.25V315H221.186V319.25H224.936V320.75H221.186V325H219.686V320.75H215.936V319.25H219.686Z" fill="#EEEEEE"/>
<path fill-rule="evenodd" clip-rule="evenodd" d="M159.686 210.25V206H161.186V210.25H164.936V211.75H161.186V216H159.686V211.75H155.936V210.25H159.686Z" fill="#EEEEEE"/>
<path fill-rule="evenodd" clip-rule="evenodd" d="M183.686 367.25V363H185.186V367.25H188.936V368.75H185.186V373H183.686V368.75H179.936V367.25H183.686Z" fill="#EEEEEE"/>
<path fill-rule="evenodd" clip-rule="evenodd" d="M369.686 213.25V209H371.186V213.25H374.936V214.75H371.186V219H369.686V214.75H365.936V213.25H369.686Z" fill="#EEEEEE"/>
<path fill-rule="evenodd" clip-rule="evenodd" d="M55.6859 327.25V323H57.1859V327.25H60.9359V328.75H57.1859V333H55.6859V328.75H51.9359V327.25H55.6859Z" fill="#EEEEEE"/>
<path fill-rule="evenodd" clip-rule="evenodd" d="M-14.3141 334.25V330H-12.8141V334.25H-9.06408V335.75H-12.8141V340H-14.3141V335.75H-18.0641V334.25H-14.3141Z" fill="#EEEEEE"/>
<path fill-rule="evenodd" clip-rule="evenodd" d="M55.6859 404.25V400H57.1859V404.25H60.9359V405.75H57.1859V410H55.6859V405.75H51.9359V404.25H55.6859Z" fill="#EEEEEE"/>
<path fill-rule="evenodd" clip-rule="evenodd" d="M231.686 407.25V403H233.186V407.25H236.936V408.75H233.186V413H231.686V408.75H227.936V407.25H231.686Z" fill="#EEEEEE"/>
<path fill-rule="evenodd" clip-rule="evenodd" d="M325.686 310.25V306H327.186V310.25H330.936V311.75H327.186V316H325.686V311.75H321.936V310.25H325.686Z" fill="#EEEEEE"/>
<path fill-rule="evenodd" clip-rule="evenodd" d="M333.686 385.25V381H335.186V385.25H338.936V386.75H335.186V391H333.686V386.75H329.936V385.25H333.686Z" fill="#EEEEEE"/>
<path fill-rule="evenodd" clip-rule="evenodd" d="M393.686 502.25V498H395.186V502.25H398.936V503.75H395.186V508H393.686V503.75H389.936V502.25H393.686Z" fill="#EEEEEE"/>
<path fill-rule="evenodd" clip-rule="evenodd" d="M229.686 501.25V497H231.186V501.25H234.936V502.75H231.186V507H229.686V502.75H225.936V501.25H229.686Z" fill="#EEEEEE"/>
<path fill-rule="evenodd" clip-rule="evenodd" d="M209.532 368.974L214.692 372.932L218.304 366.955L224.356 370.613L228.013 364.561L234.065 368.219L237.722 362.167L244.416 366.213L243.64 367.497L238.23 364.227L234.573 370.278L228.521 366.621L224.863 372.673L218.812 369.015L215.109 375.142L210.107 371.305L207.814 376.267L206.452 375.637L209.532 368.974Z" fill="#EEEEEE"/>
<path fill-rule="evenodd" clip-rule="evenodd" d="M368.592 319.592L365.338 322.487L368.765 325.573L365.62 329.065L369.112 332.211L365.966 335.703L369.459 338.848L365.811 342.897L364.697 341.894L367.34 338.959L363.848 335.813L366.993 332.321L363.501 329.176L366.646 325.684L363.089 322.48L366.194 319.718L363.499 317.783L364.373 316.564L368.592 319.592Z" fill="#EEEEEE"/>
<path fill-rule="evenodd" clip-rule="evenodd" d="M62.5924 491.592L59.3381 494.487L62.7649 497.573L59.6197 501.065L63.1118 504.211L59.9666 507.703L63.4588 510.848L59.8116 514.897L58.6971 513.894L61.3403 510.959L57.8482 507.813L60.9934 504.321L57.5012 501.176L60.6465 497.684L57.089 494.48L60.1945 491.718L57.4986 489.783L58.3733 488.564L62.5924 491.592Z" fill="#EEEEEE"/>
<path fill-rule="evenodd" clip-rule="evenodd" d="M333.854 420.603L340.328 421.213L340.212 414.231L347.282 414.114L347.165 407.044L354.235 406.926L354.117 399.856L361.937 399.726L361.962 401.226L355.642 401.331L355.759 408.401L348.689 408.519L348.807 415.589L341.737 415.706L341.855 422.864L335.58 422.272L336.273 427.694L334.786 427.884L333.854 420.603Z" fill="#EEEEEE"/>
<path fill-rule="evenodd" clip-rule="evenodd" d="M175.955 307.579L182.397 306.694L180.688 299.923L187.544 298.192L185.814 291.336L192.67 289.606L190.939 282.75L198.522 280.836L198.889 282.29L192.76 283.837L194.491 290.693L187.635 292.424L189.366 299.28L182.51 301.01L184.262 307.952L178.017 308.81L179.932 313.929L178.527 314.455L175.955 307.579Z" fill="#EEEEEE"/>
<path fill-rule="evenodd" clip-rule="evenodd" d="M203.606 446.127L205.255 474.154L178.877 463.163L203.606 446.127ZM181.995 462.837L203.617 471.846L202.265 448.873L181.995 462.837Z" fill="#EEEEEE"/>
<path fill-rule="evenodd" clip-rule="evenodd" d="M119.106 488.627L120.755 516.654L94.3772 505.663L119.106 488.627ZM97.4946 505.337L119.117 514.346L117.765 491.373L97.4946 505.337Z" fill="#EEEEEE"/>
<path fill-rule="evenodd" clip-rule="evenodd" d="M68.2656 381.283L66.5511 397.3L53.5649 388.791L68.2656 381.283ZM56.5477 388.952L65.3208 394.7L66.479 383.88L56.5477 388.952Z" fill="#EEEEEE"/>
<path fill-rule="evenodd" clip-rule="evenodd" d="M323.996 282.496L322.281 298.512L309.295 290.003L323.996 282.496ZM312.278 290.164L321.051 295.913L322.209 285.092L312.278 290.164Z" fill="#EEEEEE"/>
<path fill-rule="evenodd" clip-rule="evenodd" d="M137.996 214.496L136.281 230.512L123.295 222.003L137.996 214.496ZM126.278 222.164L135.051 227.913L136.209 217.092L126.278 222.164Z" fill="#EEEEEE"/>
<path fill-rule="evenodd" clip-rule="evenodd" d="M75.996 338.496L74.2816 354.512L61.2954 346.003L75.996 338.496ZM64.2781 346.164L73.0513 351.913L74.2095 341.092L64.2781 346.164Z" fill="#EEEEEE"/>
<path fill-rule="evenodd" clip-rule="evenodd" d="M157.293 360.357L128.621 345.363L154.045 327.414L157.293 360.357ZM152.805 330.126L131.493 345.172L155.528 357.741L152.805 330.126Z" fill="#EEEEEE"/>
<path fill-rule="evenodd" clip-rule="evenodd" d="M59.1717 251.542L30.5001 236.548L55.9235 218.599L59.1717 251.542ZM54.6836 221.311L33.3716 236.357L57.4065 248.926L54.6836 221.311Z" fill="#EEEEEE"/>
<path fill-rule="evenodd" clip-rule="evenodd" d="M33.1717 376.542L4.50021 361.548L29.9236 343.599L33.1717 376.542ZM28.6837 346.311L7.37165 361.357L31.4065 373.926L28.6837 346.311Z" fill="#EEEEEE"/>
<path fill-rule="evenodd" clip-rule="evenodd" d="M200.323 314.21L217.401 341.691L186.384 344.234L200.323 314.21ZM188.829 342.529L214.83 340.397L200.514 317.359L188.829 342.529Z" fill="#EEEEEE"/>
<path fill-rule="evenodd" clip-rule="evenodd" d="M292.004 399.751L312.06 385.681L315.291 409.023L292.004 399.751ZM313.452 406.676L310.911 388.319L295.138 399.384L313.452 406.676Z" fill="#EEEEEE"/>
<path fill-rule="evenodd" clip-rule="evenodd" d="M375.004 353.751L395.06 339.681L398.291 363.023L375.004 353.751ZM396.452 360.676L393.911 342.319L378.138 353.384L396.452 360.676Z" fill="#EEEEEE"/>
<path fill-rule="evenodd" clip-rule="evenodd" d="M-25.9961 281.751L-5.94007 267.681L-2.70889 291.023L-25.9961 281.751ZM-4.54805 288.676L-7.08914 270.319L-22.8617 281.384L-4.54805 288.676Z" fill="#EEEEEE"/>
<path fill-rule="evenodd" clip-rule="evenodd" d="M303.004 223.751L323.06 209.681L326.291 233.023L303.004 223.751ZM324.452 230.676L321.911 212.319L306.138 223.384L324.452 230.676Z" fill="#EEEEEE"/>
<path fill-rule="evenodd" clip-rule="evenodd" d="M108.027 447.638L125.041 435.555L128.814 457.072L108.027 447.638ZM126.845 454.531L123.973 438.153L111.023 447.35L126.845 454.531Z" fill="#EEEEEE"/>
<path fill-rule="evenodd" clip-rule="evenodd" d="M295.51 351.008L282.943 357.178L289.114 369.745L301.681 363.574L295.51 351.008ZM280.936 356.493L288.429 371.752L303.688 364.26L296.195 349L280.936 356.493Z" fill="#EEEEEE"/>
<path fill-rule="evenodd" clip-rule="evenodd" d="M393.51 404.008L380.943 410.178L387.114 422.745L399.681 416.574L393.51 404.008ZM378.936 409.493L386.429 424.752L401.688 417.26L394.195 402L378.936 409.493Z" fill="#EEEEEE"/>
<path fill-rule="evenodd" clip-rule="evenodd" d="M179.492 415.511L170.447 426.197L181.132 435.242L190.178 424.556L179.492 415.511ZM168.333 426.372L181.308 437.356L192.292 424.38L179.316 413.397L168.333 426.372Z" fill="#EEEEEE"/>
<path fill-rule="evenodd" clip-rule="evenodd" d="M111.095 308.114L102.05 318.8L112.736 327.845L121.781 317.159L111.095 308.114ZM99.9359 318.976L112.911 329.959L123.895 316.983L110.919 306L99.9359 318.976Z" fill="#EEEEEE"/>
<path fill-rule="evenodd" clip-rule="evenodd" d="M282.781 293.12L278.056 298.205L283.141 302.931L287.867 297.846L282.781 293.12ZM275.936 298.283L283.219 305.051L289.987 297.768L282.704 291L275.936 298.283Z" fill="#EEEEEE"/>
<path fill-rule="evenodd" clip-rule="evenodd" d="M341.781 475.12L337.056 480.205L342.141 484.931L346.867 479.846L341.781 475.12ZM334.936 480.283L342.219 487.051L348.987 479.768L341.704 473L334.936 480.283Z" fill="#EEEEEE"/>
<path fill-rule="evenodd" clip-rule="evenodd" d="M292.781 303.12L288.056 308.205L293.141 312.931L297.867 307.846L292.781 303.12ZM285.936 308.283L293.219 315.051L299.987 307.768L292.704 301L285.936 308.283Z" fill="#EEEEEE"/>
<path fill-rule="evenodd" clip-rule="evenodd" d="M351.781 485.12L347.056 490.205L352.141 494.931L356.867 489.846L351.781 485.12ZM344.936 490.283L352.219 497.051L358.987 489.768L351.704 483L344.936 490.283Z" fill="#EEEEEE"/>
<path fill-rule="evenodd" clip-rule="evenodd" d="M261.781 502.12L257.056 507.205L262.141 511.931L266.867 506.846L261.781 502.12ZM254.936 507.283L262.219 514.051L268.987 506.768L261.704 500L254.936 507.283Z" fill="#EEEEEE"/>
</g>
</svg>
