<svg width="200" height="200" viewBox="0 0 200 200" fill="none" xmlns="http://www.w3.org/2000/svg">
<g clip-path="url(#clip0_15947_86447)">
<path d="M8 0H0V8H8V0Z" fill="black"/>
<path d="M8 8H0V16H8V8Z" fill="black"/>
<path d="M8 16H0V24H8V16Z" fill="black"/>
<path d="M8 24H0V32H8V24Z" fill="black"/>
<path d="M8 32H0V40H8V32Z" fill="black"/>
<path d="M8 40H0V48H8V40Z" fill="black"/>
<path d="M8 48H0V56H8V48Z" fill="black"/>
<path d="M8 64H0V72H8V64Z" fill="black"/>
<path d="M8 72H0V80H8V72Z" fill="black"/>
<path d="M8 80H0V88H8V80Z" fill="black"/>
<path d="M8 88H0V96H8V88Z" fill="black"/>
<path d="M8 144H0V152H8V144Z" fill="black"/>
<path d="M8 152H0V160H8V152Z" fill="black"/>
<path d="M8 160H0V168H8V160Z" fill="black"/>
<path d="M8 168H0V176H8V168Z" fill="black"/>
<path d="M8 176H0V184H8V176Z" fill="black"/>
<path d="M8 184H0V192H8V184Z" fill="black"/>
<path d="M8 192H0V200H8V192Z" fill="black"/>
<path d="M16 0H8V8H16V0Z" fill="black"/>
<path d="M16 48H8V56H16V48Z" fill="black"/>
<path d="M16 64H8V72H16V64Z" fill="black"/>
<path d="M16 80H8V88H16V80Z" fill="black"/>
<path d="M16 88H8V96H16V88Z" fill="black"/>
<path d="M16 120H8V128H16V120Z" fill="black"/>
<path d="M16 128H8V136H16V128Z" fill="black"/>
<path d="M16 144H8V152H16V144Z" fill="black"/>
<path d="M16 192H8V200H16V192Z" fill="black"/>
<path d="M24 0H16V8H24V0Z" fill="black"/>
<path d="M24 16H16V24H24V16Z" fill="black"/>
<path d="M24 24H16V32H24V24Z" fill="black"/>
<path d="M24 32H16V40H24V32Z" fill="black"/>
<path d="M24 48H16V56H24V48Z" fill="black"/>
<path d="M24 80H16V88H24V80Z" fill="black"/>
<path d="M24 96H16V104H24V96Z" fill="black"/>
<path d="M24 112H16V120H24V112Z" fill="black"/>
<path d="M24 120H16V128H24V120Z" fill="black"/>
<path d="M24 144H16V152H24V144Z" fill="black"/>
<path d="M24 160H16V168H24V160Z" fill="black"/>
<path d="M24 168H16V176H24V168Z" fill="black"/>
<path d="M24 176H16V184H24V176Z" fill="black"/>
<path d="M24 192H16V200H24V192Z" fill="black"/>
<path d="M32 0H24V8H32V0Z" fill="black"/>
<path d="M32 16H24V24H32V16Z" fill="black"/>
<path d="M32 24H24V32H32V24Z" fill="black"/>
<path d="M32 32H24V40H32V32Z" fill="black"/>
<path d="M32 48H24V56H32V48Z" fill="black"/>
<path d="M32 64H24V72H32V64Z" fill="black"/>
<path d="M32 72H24V80H32V72Z" fill="black"/>
<path d="M32 80H24V88H32V80Z" fill="black"/>
<path d="M32 120H24V128H32V120Z" fill="black"/>
<path d="M32 128H24V136H32V128Z" fill="black"/>
<path d="M32 144H24V152H32V144Z" fill="black"/>
<path d="M32 160H24V168H32V160Z" fill="black"/>
<path d="M32 168H24V176H32V168Z" fill="black"/>
<path d="M32 176H24V184H32V176Z" fill="black"/>
<path d="M32 192H24V200H32V192Z" fill="black"/>
<path d="M40 0H32V8H40V0Z" fill="black"/>
<path d="M40 16H32V24H40V16Z" fill="black"/>
<path d="M40 24H32V32H40V24Z" fill="black"/>
<path d="M40 32H32V40H40V32Z" fill="black"/>
<path d="M40 48H32V56H40V48Z" fill="black"/>
<path d="M40 64H32V72H40V64Z" fill="black"/>
<path d="M40 72H32V80H40V72Z" fill="black"/>
<path d="M40 104H32V112H40V104Z" fill="black"/>
<path d="M40 144H32V152H40V144Z" fill="black"/>
<path d="M40 160H32V168H40V160Z" fill="black"/>
<path d="M40 168H32V176H40V168Z" fill="black"/>
<path d="M40 176H32V184H40V176Z" fill="black"/>
<path d="M40 192H32V200H40V192Z" fill="black"/>
<path d="M48 0H40V8H48V0Z" fill="black"/>
<path d="M48 48H40V56H48V48Z" fill="black"/>
<path d="M48 80H40V88H48V80Z" fill="black"/>
<path d="M48 120H40V128H48V120Z" fill="black"/>
<path d="M48 128H40V136H48V128Z" fill="black"/>
<path d="M48 144H40V152H48V144Z" fill="black"/>
<path d="M48 192H40V200H48V192Z" fill="black"/>
<path d="M56 0H48V8H56V0Z" fill="black"/>
<path d="M56 8H48V16H56V8Z" fill="black"/>
<path d="M56 16H48V24H56V16Z" fill="black"/>
<path d="M56 24H48V32H56V24Z" fill="black"/>
<path d="M56 32H48V40H56V32Z" fill="black"/>
<path d="M56 40H48V48H56V40Z" fill="black"/>
<path d="M56 48H48V56H56V48Z" fill="black"/>
<path d="M56 64H48V72H56V64Z" fill="black"/>
<path d="M56 80H48V88H56V80Z" fill="black"/>
<path d="M56 96H48V104H56V96Z" fill="black"/>
<path d="M56 112H48V120H56V112Z" fill="black"/>
<path d="M56 128H48V136H56V128Z" fill="black"/>
<path d="M56 144H48V152H56V144Z" fill="black"/>
<path d="M56 152H48V160H56V152Z" fill="black"/>
<path d="M56 160H48V168H56V160Z" fill="black"/>
<path d="M56 168H48V176H56V168Z" fill="black"/>
<path d="M56 176H48V184H56V176Z" fill="black"/>
<path d="M56 184H48V192H56V184Z" fill="black"/>
<path d="M56 192H48V200H56V192Z" fill="black"/>
<path d="M64 88H56V96H64V88Z" fill="black"/>
<path d="M64 96H56V104H64V96Z" fill="black"/>
<path d="M64 104H56V112H64V104Z" fill="black"/>
<path d="M72 0H64V8H72V0Z" fill="black"/>
<path d="M72 48H64V56H72V48Z" fill="black"/>
<path d="M72 56H64V64H72V56Z" fill="black"/>
<path d="M72 80H64V88H72V80Z" fill="black"/>
<path d="M72 104H64V112H72V104Z" fill="black"/>
<path d="M72 136H64V144H72V136Z" fill="black"/>
<path d="M72 160H64V168H72V160Z" fill="black"/>
<path d="M72 168H64V176H72V168Z" fill="black"/>
<path d="M72 184H64V192H72V184Z" fill="black"/>
<path d="M72 192H64V200H72V192Z" fill="black"/>
<path d="M80 0H72V8H80V0Z" fill="black"/>
<path d="M80 16H72V24H80V16Z" fill="black"/>
<path d="M80 40H72V48H80V40Z" fill="black"/>
<path d="M80 56H72V64H80V56Z" fill="black"/>
<path d="M80 64H72V72H80V64Z" fill="black"/>
<path d="M80 80H72V88H80V80Z" fill="black"/>
<path d="M80 96H72V104H80V96Z" fill="black"/>
<path d="M80 104H72V112H80V104Z" fill="black"/>
<path d="M80 120H72V128H80V120Z" fill="black"/>
<path d="M80 136H72V144H80V136Z" fill="black"/>
<path d="M80 144H72V152H80V144Z" fill="black"/>
<path d="M80 152H72V160H80V152Z" fill="black"/>
<path d="M80 192H72V200H80V192Z" fill="black"/>
<path d="M88 0H80V8H88V0Z" fill="black"/>
<path d="M88 24H80V32H88V24Z" fill="black"/>
<path d="M88 32H80V40H88V32Z" fill="black"/>
<path d="M88 48H80V56H88V48Z" fill="black"/>
<path d="M88 72H80V80H88V72Z" fill="black"/>
<path d="M88 96H80V104H88V96Z" fill="black"/>
<path d="M88 104H80V112H88V104Z" fill="black"/>
<path d="M88 112H80V120H88V112Z" fill="black"/>
<path d="M88 144H80V152H88V144Z" fill="black"/>
<path d="M88 184H80V192H88V184Z" fill="black"/>
<path d="M96 0H88V8H96V0Z" fill="black"/>
<path d="M96 8H88V16H96V8Z" fill="black"/>
<path d="M96 16H88V24H96V16Z" fill="black"/>
<path d="M96 24H88V32H96V24Z" fill="black"/>
<path d="M96 32H88V40H96V32Z" fill="black"/>
<path d="M96 40H88V48H96V40Z" fill="black"/>
<path d="M96 56H88V64H96V56Z" fill="black"/>
<path d="M96 64H88V72H96V64Z" fill="black"/>
<path d="M96 72H88V80H96V72Z" fill="black"/>
<path d="M96 80H88V88H96V80Z" fill="black"/>
<path d="M96 88H88V96H96V88Z" fill="black"/>
<path d="M96 104H88V112H96V104Z" fill="black"/>
<path d="M96 120H88V128H96V120Z" fill="black"/>
<path d="M96 144H88V152H96V144Z" fill="black"/>
<path d="M96 152H88V160H96V152Z" fill="black"/>
<path d="M96 168H88V176H96V168Z" fill="black"/>
<path d="M96 176H88V184H96V176Z" fill="black"/>
<path d="M104 8H96V16H104V8Z" fill="black"/>
<path d="M104 24H96V32H104V24Z" fill="black"/>
<path d="M104 32H96V40H104V32Z" fill="black"/>
<path d="M104 48H96V56H104V48Z" fill="black"/>
<path d="M104 64H96V72H104V64Z" fill="black"/>
<path d="M104 72H96V80H104V72Z" fill="black"/>
<path d="M104 96H96V104H104V96Z" fill="black"/>
<path d="M104 128H96V136H104V128Z" fill="black"/>
<path d="M104 152H96V160H104V152Z" fill="black"/>
<path d="M104 160H96V168H104V160Z" fill="black"/>
<path d="M104 176H96V184H104V176Z" fill="black"/>
<path d="M104 192H96V200H104V192Z" fill="black"/>
<path d="M112 0H104V8H112V0Z" fill="black"/>
<path d="M112 8H104V16H112V8Z" fill="black"/>
<path d="M112 16H104V24H112V16Z" fill="black"/>
<path d="M112 24H104V32H112V24Z" fill="black"/>
<path d="M112 56H104V64H112V56Z" fill="black"/>
<path d="M112 72H104V80H112V72Z" fill="black"/>
<path d="M112 80H104V88H112V80Z" fill="black"/>
<path d="M112 104H104V112H112V104Z" fill="black"/>
<path d="M112 128H104V136H112V128Z" fill="black"/>
<path d="M112 144H104V152H112V144Z" fill="black"/>
<path d="M112 152H104V160H112V152Z" fill="black"/>
<path d="M112 168H104V176H112V168Z" fill="black"/>
<path d="M112 176H104V184H112V176Z" fill="black"/>
<path d="M120 0H112V8H120V0Z" fill="black"/>
<path d="M120 16H112V24H120V16Z" fill="black"/>
<path d="M120 32H112V40H120V32Z" fill="black"/>
<path d="M120 48H112V56H120V48Z" fill="black"/>
<path d="M120 64H112V72H120V64Z" fill="black"/>
<path d="M120 72H112V80H120V72Z" fill="black"/>
<path d="M120 104H112V112H120V104Z" fill="black"/>
<path d="M120 112H112V120H120V112Z" fill="black"/>
<path d="M120 120H112V128H120V120Z" fill="black"/>
<path d="M120 136H112V144H120V136Z" fill="black"/>
<path d="M120 160H112V168H120V160Z" fill="black"/>
<path d="M120 168H112V176H120V168Z" fill="black"/>
<path d="M120 192H112V200H120V192Z" fill="black"/>
<path d="M128 56H120V64H128V56Z" fill="black"/>
<path d="M128 72H120V80H128V72Z" fill="black"/>
<path d="M128 80H120V88H128V80Z" fill="black"/>
<path d="M128 96H120V104H128V96Z" fill="black"/>
<path d="M128 104H120V112H128V104Z" fill="black"/>
<path d="M128 112H120V120H128V112Z" fill="black"/>
<path d="M128 120H120V128H128V120Z" fill="black"/>
<path d="M128 128H120V136H128V128Z" fill="black"/>
<path d="M128 136H120V144H128V136Z" fill="black"/>
<path d="M128 152H120V160H128V152Z" fill="black"/>
<path d="M128 160H120V168H128V160Z" fill="black"/>
<path d="M128 168H120V176H128V168Z" fill="black"/>
<path d="M128 176H120V184H128V176Z" fill="black"/>
<path d="M136 16H128V24H136V16Z" fill="black"/>
<path d="M136 24H128V32H136V24Z" fill="black"/>
<path d="M136 32H128V40H136V32Z" fill="black"/>
<path d="M136 40H128V48H136V40Z" fill="black"/>
<path d="M136 48H128V56H136V48Z" fill="black"/>
<path d="M136 56H128V64H136V56Z" fill="black"/>
<path d="M136 64H128V72H136V64Z" fill="black"/>
<path d="M136 72H128V80H136V72Z" fill="black"/>
<path d="M136 104H128V112H136V104Z" fill="black"/>
<path d="M136 112H128V120H136V112Z" fill="black"/>
<path d="M136 120H128V128H136V120Z" fill="black"/>
<path d="M136 128H128V136H136V128Z" fill="black"/>
<path d="M136 136H128V144H136V136Z" fill="black"/>
<path d="M136 144H128V152H136V144Z" fill="black"/>
<path d="M136 152H128V160H136V152Z" fill="black"/>
<path d="M136 160H128V168H136V160Z" fill="black"/>
<path d="M136 168H128V176H136V168Z" fill="black"/>
<path d="M136 192H128V200H136V192Z" fill="black"/>
<path d="M144 72H136V80H144V72Z" fill="black"/>
<path d="M144 112H136V120H144V112Z" fill="black"/>
<path d="M144 128H136V136H144V128Z" fill="black"/>
<path d="M144 160H136V168H144V160Z" fill="black"/>
<path d="M144 168H136V176H144V168Z" fill="black"/>
<path d="M144 176H136V184H144V176Z" fill="black"/>
<path d="M152 0H144V8H152V0Z" fill="black"/>
<path d="M152 8H144V16H152V8Z" fill="black"/>
<path d="M152 16H144V24H152V16Z" fill="black"/>
<path d="M152 24H144V32H152V24Z" fill="black"/>
<path d="M152 32H144V40H152V32Z" fill="black"/>
<path d="M152 40H144V48H152V40Z" fill="black"/>
<path d="M152 48H144V56H152V48Z" fill="black"/>
<path d="M152 64H144V72H152V64Z" fill="black"/>
<path d="M152 80H144V88H152V80Z" fill="black"/>
<path d="M152 88H144V96H152V88Z" fill="black"/>
<path d="M152 96H144V104H152V96Z" fill="black"/>
<path d="M152 128H144V136H152V128Z" fill="black"/>
<path d="M152 144H144V152H152V144Z" fill="black"/>
<path d="M152 160H144V168H152V160Z" fill="black"/>
<path d="M152 168H144V176H152V168Z" fill="black"/>
<path d="M152 192H144V200H152V192Z" fill="black"/>
<path d="M160 0H152V8H160V0Z" fill="black"/>
<path d="M160 48H152V56H160V48Z" fill="black"/>
<path d="M160 72H152V80H160V72Z" fill="black"/>
<path d="M160 88H152V96H160V88Z" fill="black"/>
<path d="M160 96H152V104H160V96Z" fill="black"/>
<path d="M160 120H152V128H160V120Z" fill="black"/>
<path d="M160 128H152V136H160V128Z" fill="black"/>
<path d="M160 160H152V168H160V160Z" fill="black"/>
<path d="M160 184H152V192H160V184Z" fill="black"/>
<path d="M168 0H160V8H168V0Z" fill="black"/>
<path d="M168 16H160V24H168V16Z" fill="black"/>
<path d="M168 24H160V32H168V24Z" fill="black"/>
<path d="M168 32H160V40H168V32Z" fill="black"/>
<path d="M168 48H160V56H168V48Z" fill="black"/>
<path d="M168 72H160V80H168V72Z" fill="black"/>
<path d="M168 104H160V112H168V104Z" fill="black"/>
<path d="M168 112H160V120H168V112Z" fill="black"/>
<path d="M168 128H160V136H168V128Z" fill="black"/>
<path d="M168 136H160V144H168V136Z" fill="black"/>
<path d="M168 144H160V152H168V144Z" fill="black"/>
<path d="M168 152H160V160H168V152Z" fill="black"/>
<path d="M168 160H160V168H168V160Z" fill="black"/>
<path d="M168 176H160V184H168V176Z" fill="black"/>
<path d="M168 184H160V192H168V184Z" fill="black"/>
<path d="M176 0H168V8H176V0Z" fill="black"/>
<path d="M176 16H168V24H176V16Z" fill="black"/>
<path d="M176 24H168V32H176V24Z" fill="black"/>
<path d="M176 32H168V40H176V32Z" fill="black"/>
<path d="M176 48H168V56H176V48Z" fill="black"/>
<path d="M176 72H168V80H176V72Z" fill="black"/>
<path d="M176 80H168V88H176V80Z" fill="black"/>
<path d="M176 88H168V96H176V88Z" fill="black"/>
<path d="M176 112H168V120H176V112Z" fill="black"/>
<path d="M176 120H168V128H176V120Z" fill="black"/>
<path d="M176 176H168V184H176V176Z" fill="black"/>
<path d="M176 192H168V200H176V192Z" fill="black"/>
<path d="M184 0H176V8H184V0Z" fill="black"/>
<path d="M184 16H176V24H184V16Z" fill="black"/>
<path d="M184 24H176V32H184V24Z" fill="black"/>
<path d="M184 32H176V40H184V32Z" fill="black"/>
<path d="M184 48H176V56H184V48Z" fill="black"/>
<path d="M184 72H176V80H184V72Z" fill="black"/>
<path d="M184 88H176V96H184V88Z" fill="black"/>
<path d="M184 112H176V120H184V112Z" fill="black"/>
<path d="M184 120H176V128H184V120Z" fill="black"/>
<path d="M184 128H176V136H184V128Z" fill="black"/>
<path d="M184 136H176V144H184V136Z" fill="black"/>
<path d="M184 176H176V184H184V176Z" fill="black"/>
<path d="M184 184H176V192H184V184Z" fill="black"/>
<path d="M192 0H184V8H192V0Z" fill="black"/>
<path d="M192 48H184V56H192V48Z" fill="black"/>
<path d="M192 72H184V80H192V72Z" fill="black"/>
<path d="M192 88H184V96H192V88Z" fill="black"/>
<path d="M192 104H184V112H192V104Z" fill="black"/>
<path d="M192 112H184V120H192V112Z" fill="black"/>
<path d="M192 128H184V136H192V128Z" fill="black"/>
<path d="M192 136H184V144H192V136Z" fill="black"/>
<path d="M192 160H184V168H192V160Z" fill="black"/>
<path d="M192 168H184V176H192V168Z" fill="black"/>
<path d="M192 176H184V184H192V176Z" fill="black"/>
<path d="M192 184H184V192H192V184Z" fill="black"/>
<path d="M200 0H192V8H200V0Z" fill="black"/>
<path d="M200 8H192V16H200V8Z" fill="black"/>
<path d="M200 16H192V24H200V16Z" fill="black"/>
<path d="M200 24H192V32H200V24Z" fill="black"/>
<path d="M200 32H192V40H200V32Z" fill="black"/>
<path d="M200 40H192V48H200V40Z" fill="black"/>
<path d="M200 48H192V56H200V48Z" fill="black"/>
<path d="M200 64H192V72H200V64Z" fill="black"/>
<path d="M200 80H192V88H200V80Z" fill="black"/>
<path d="M200 88H192V96H200V88Z" fill="black"/>
<path d="M200 96H192V104H200V96Z" fill="black"/>
<path d="M200 112H192V120H200V112Z" fill="black"/>
<path d="M200 120H192V128H200V120Z" fill="black"/>
<path d="M200 144H192V152H200V144Z" fill="black"/>
<path d="M200 152H192V160H200V152Z" fill="black"/>
<path d="M200 168H192V176H200V168Z" fill="black"/>
<path d="M200 176H192V184H200V176Z" fill="black"/>
<path d="M200 184H192V192H200V184Z" fill="black"/>
<path d="M200 192H192V200H200V192Z" fill="black"/>
</g>
<defs>
<clipPath id="clip0_15947_86447">
<rect width="200" height="200" fill="white"/>
</clipPath>
</defs>
</svg>
