<svg width="200" height="201" viewBox="0 0 200 201" fill="none" xmlns="http://www.w3.org/2000/svg">
<g clip-path="url(#clip0_15947_85815)">
<rect width="200" height="200" transform="translate(0 0.5)" fill="white"/>
<path d="M163.418 82.5113L165.733 95.6402C166.278 102.893 165.615 110.011 163.901 116.772L44.8665 137.761C39.7539 130.247 36.1136 121.554 34.4331 112.023C32.7972 102.746 33.1778 93.5789 35.2601 84.9726L154.873 63.8816C158.603 69.4954 161.517 75.7516 163.418 82.5113Z" fill="#EFEFEF"/>
<path d="M84.8184 103.161L70.2581 105.728L71.3968 112.186C71.5542 113.079 72.0791 113.446 72.9715 113.289L84.6902 111.222C85.1129 111.148 85.4873 110.937 85.7664 110.597C86.08 110.178 86.0664 108.728 85.7725 106.237L88.0808 106.556C88.3207 109.565 88.2321 111.397 87.8341 112.024C87.3616 112.64 86.6598 113.054 85.7052 113.271L72.7418 115.557C70.7457 115.909 69.5771 115.05 69.2127 112.983L67.0594 100.771L69.3139 100.373L69.8813 103.591L82.1636 101.425L81.178 95.8359L65.6783 98.5689L65.3015 96.4318L83.0792 93.2971L84.8184 103.161ZM94.7538 100.731L96.758 112.097L94.6209 112.474L92.7078 101.624C92.3828 103.764 91.8687 105.792 91.1335 107.665L89.8118 105.525C90.9725 103.044 91.6291 100.313 91.8367 97.3707L88.9012 97.8883L88.5243 95.7512L91.5773 95.2129L90.8029 90.8213L92.94 90.4445L93.7144 94.8361L96.2977 94.3806L96.6745 96.5177L94.0912 96.9732L94.3148 98.2413C95.6063 99.2486 96.9226 100.397 98.2872 101.682L97.378 103.803C96.3628 102.578 95.4789 101.547 94.7538 100.731ZM96.3877 92.2823L101.954 91.3009C101.516 90.6032 101.067 89.9801 100.583 89.4358L102.795 88.6584C103.248 89.3049 103.698 90.073 104.138 90.9158L109.257 90.013L109.617 92.0562L103.183 93.1908C102.384 95.3899 101.631 97.024 100.923 98.0931C102.183 97.8225 103.435 97.5049 104.682 97.1639C105.101 96.2426 105.469 95.306 105.781 94.3308L107.759 94.9748C106.235 100.062 103.365 103.837 99.1306 106.327L97.5823 104.687C100.028 103.312 101.987 101.514 103.464 99.316C101.977 99.6749 100.393 100.027 98.7378 100.391L97.9727 98.6618C98.1523 98.5817 98.2808 98.4864 98.3623 98.3994C99.1125 97.7102 99.9443 96.1106 100.881 93.5966L96.748 94.3254L96.3877 92.2823ZM106.601 105.712C104.737 108.051 102.439 109.982 99.7087 111.528L98.1521 109.841C103.286 107.096 106.748 102.974 108.578 97.4214L110.603 98.0571C109.879 100.267 108.929 102.299 107.747 104.106C109.592 105.233 111.222 106.375 112.621 107.581L111.267 109.515C110.056 108.275 108.499 107 106.601 105.712ZM116.238 94.0366L114.172 94.401L113.985 93.3442C113.742 93.7503 113.495 94.133 113.247 94.5156L111.756 93.0594C113.024 91.1891 114.125 89.0578 115.055 86.6418L116.535 86.381C118.378 87.63 120.134 88.9426 121.806 90.3187L120.638 92.0743L119.978 91.4885L120.301 93.3203L118.328 93.6681L118.718 95.8756L121.747 95.3415L122.095 97.3141L119.065 97.8483L120.196 104.26C121.141 103.851 122.058 103.423 122.971 102.971L123.34 105.061C120.955 106.232 118.362 107.319 115.584 108.317L114.671 106.299C115.864 105.919 117.028 105.52 118.184 105.074L116.975 98.2169L113.852 98.7676L113.504 96.7949L116.627 96.2442L116.238 94.0366ZM115.261 99.3425C115.924 100.63 116.581 102.161 117.248 103.883L115.679 104.596C115.068 103.057 114.419 101.573 113.693 100.2L115.261 99.3425ZM120.908 98.274L122.627 98.4069C122.575 100.038 122.42 101.494 122.166 102.798L120.517 102.508C120.753 101.377 120.893 99.9718 120.908 98.274ZM114.584 92.3428L119.891 91.407C118.468 90.2049 117.311 89.271 116.372 88.6133C115.851 89.9159 115.247 91.1604 114.584 92.3428ZM125.466 84.7093L127.603 84.3325L128.688 90.4854L132.704 89.7773L135.039 103.023C135.292 104.455 134.669 105.316 133.213 105.572L131.123 105.941L130.218 103.969C130.935 103.916 131.601 103.847 132.211 103.739C132.705 103.652 132.905 103.278 132.793 102.644L132.255 99.5907C130.647 100.359 128.936 101.096 127.12 101.78L126.275 99.8703C128.249 99.2559 130.128 98.5129 131.915 97.665L130.938 92.1227L124.973 93.1745L125.329 95.1941C126.528 95.128 127.422 95.1157 128.049 95.102C128.731 95.1269 129.587 95.1699 130.67 95.2695L130.24 97.0887C129.278 96.9919 128.325 96.942 127.353 96.9198C126.768 96.9018 126.212 96.9031 125.635 96.932L125.892 98.388C126.45 101.825 126.238 104.744 125.21 107.153L123.246 105.901C124.09 103.96 124.284 101.626 123.85 98.8933L122.558 91.5662L126.551 90.8622L125.466 84.7093ZM122.298 85.9701C123.233 87.016 124.17 88.2069 125.076 89.5L123.557 90.6394C122.624 89.327 121.668 88.1637 120.686 87.1261L122.298 85.9701ZM130.813 84.2749L132.747 84.8057C132.46 86.3335 131.999 87.8433 131.394 89.3544L129.597 88.7754C130.175 87.2449 130.588 85.7433 130.813 84.2749Z" fill="#CCCCCC"/>
<path fill-rule="evenodd" clip-rule="evenodd" d="M116.615 194.729C168.495 185.581 203.137 136.108 193.989 84.2273C184.841 32.3471 135.368 -2.29433 83.4875 6.85355C31.6073 16.0014 -3.03415 65.4745 6.11373 117.355C15.2616 169.235 64.7347 203.876 116.615 194.729ZM117.305 198.643C171.347 189.114 207.432 137.579 197.903 83.5372C188.374 29.4953 136.839 -6.58956 82.7974 2.93949C28.7554 12.4685 -7.32938 64.003 2.19967 118.045C11.7287 172.087 63.2632 208.172 117.305 198.643Z" fill="#EFEFEF"/>
<path fill-rule="evenodd" clip-rule="evenodd" d="M115.408 187.879C163.505 179.398 195.62 133.533 187.139 85.4352C178.659 37.3379 132.793 5.22242 84.6957 13.7033C36.5983 22.1841 4.48286 68.0498 12.9637 116.147C21.4446 164.244 67.3102 196.36 115.408 187.879ZM115.753 189.836C164.931 181.165 197.768 134.268 189.097 85.0901C180.425 35.912 133.529 3.07481 84.3506 11.7462C35.1724 20.4177 2.33525 67.314 11.0067 116.492C19.6781 165.67 66.5745 198.508 115.753 189.836Z" fill="#EFEFEF"/>
<path fill-rule="evenodd" clip-rule="evenodd" d="M111.39 165.093C146.903 158.831 170.616 124.965 164.354 89.4521C158.092 53.9389 124.226 30.226 88.7132 36.4879C53.1999 42.7499 29.487 76.6154 35.749 112.129C42.0109 147.642 75.8764 171.355 111.39 165.093ZM111.554 166.025C147.582 159.672 171.638 125.316 165.286 89.2878C158.933 53.2599 124.577 29.2033 88.5488 35.556C52.5209 41.9087 28.4643 76.265 34.817 112.293C41.1697 148.321 75.526 172.377 111.554 166.025Z" fill="#EFEFEF"/>
<path d="M99.1043 176.324L98.0414 176.324C98.0754 175.919 98.1888 175.557 98.3815 175.24C98.5743 174.925 98.8449 174.677 99.1936 174.496C99.5422 174.315 99.9659 174.224 100.465 174.224C100.847 174.224 101.192 174.292 101.498 174.428C101.804 174.567 102.066 174.762 102.284 175.015C102.503 175.27 102.67 175.577 102.786 175.937C102.899 176.297 102.956 176.7 102.956 177.145L102.956 177.659C102.956 178.104 102.898 178.506 102.782 178.866C102.663 179.226 102.493 179.534 102.272 179.789C102.051 180.047 101.785 180.244 101.477 180.38C101.165 180.516 100.815 180.584 100.426 180.584C99.9333 180.584 99.5167 180.493 99.1765 180.312C98.8364 180.131 98.5728 179.88 98.3858 179.559C98.1959 179.239 98.0797 178.872 98.0372 178.458L99.1 178.458C99.1284 178.725 99.1907 178.953 99.2871 179.143C99.3806 179.333 99.5195 179.477 99.7037 179.576C99.888 179.678 100.129 179.729 100.426 179.729C100.67 179.729 100.883 179.684 101.064 179.593C101.246 179.503 101.397 179.369 101.519 179.194C101.641 179.018 101.733 178.801 101.795 178.543C101.855 178.288 101.885 177.996 101.885 177.668L101.885 177.145C101.885 176.833 101.858 176.549 101.804 176.294C101.747 176.042 101.662 175.825 101.549 175.644C101.433 175.462 101.285 175.322 101.107 175.223C100.928 175.124 100.714 175.074 100.465 175.074C100.161 175.074 99.9163 175.122 99.7292 175.219C99.5393 175.315 99.3962 175.455 99.2998 175.64C99.2006 175.827 99.1355 176.055 99.1043 176.324Z" fill="#DDDDDD"/>
<path d="M89.4849 176.886L89.5204 176.547C89.5693 176.082 89.6738 175.672 89.8338 175.315C89.9938 174.958 90.2002 174.662 90.4529 174.427C90.7029 174.191 90.9916 174.02 91.319 173.915C91.6461 173.813 91.9999 173.781 92.3804 173.821C92.7581 173.861 93.0963 173.965 93.395 174.133C93.6905 174.304 93.9388 174.531 94.1399 174.814C94.3409 175.098 94.4855 175.431 94.5735 175.813C94.6587 176.195 94.6769 176.619 94.628 177.084L94.5925 177.423C94.5436 177.888 94.4379 178.297 94.2753 178.65C94.1125 179.006 93.9047 179.302 93.6519 179.538C93.3961 179.776 93.106 179.947 92.7817 180.049C92.4543 180.155 92.1018 180.187 91.724 180.148C91.3435 180.108 91.0041 180.002 90.7057 179.831C90.407 179.663 90.1587 179.436 89.9608 179.15C89.7625 178.867 89.6222 178.535 89.5398 178.153C89.4543 177.773 89.436 177.351 89.4849 176.886ZM90.5817 176.659L90.5453 177.006C90.5091 177.35 90.5111 177.656 90.5512 177.925C90.5882 178.197 90.6622 178.429 90.7732 178.62C90.881 178.814 91.0233 178.965 91.1998 179.075C91.3761 179.188 91.5812 179.256 91.8151 179.281C92.0491 179.305 92.2626 179.281 92.4556 179.207C92.6483 179.136 92.8189 179.017 92.9676 178.851C93.1131 178.686 93.2336 178.475 93.3291 178.217C93.4243 177.962 93.4899 177.663 93.5261 177.319L93.5625 176.972C93.5987 176.628 93.5968 176.32 93.557 176.048C93.5172 175.776 93.4421 175.542 93.3317 175.345C93.2182 175.151 93.0747 174.997 92.9013 174.885C92.7275 174.776 92.5237 174.709 92.2897 174.684C92.053 174.659 91.8382 174.682 91.6455 174.753C91.4525 174.827 91.2831 174.947 91.1373 175.114C90.9912 175.284 90.8718 175.498 90.7792 175.756C90.6837 176.014 90.6178 176.315 90.5817 176.659Z" fill="#DDDDDD"/>
<path d="M85.6999 179.228L84.7683 179.03L84.0103 173.988L81.271 178.287L80.3395 178.089L83.9387 172.525L84.6789 172.683L85.6999 179.228ZM86.124 179.318L85.2383 179.13L85.9436 175.055L86.3714 173.043L87.411 173.264L86.124 179.318ZM80.8011 178.187L79.9112 177.998L81.1982 171.943L82.242 172.165L81.8142 174.178L80.8011 178.187Z" fill="#DDDDDD"/>
<path d="M76.0905 172.732L77.6229 173.23L77.3614 174.035L75.829 173.537C75.5622 173.45 75.3325 173.423 75.14 173.456C74.9476 173.489 74.7891 173.569 74.6646 173.695C74.5365 173.823 74.4405 173.986 74.3765 174.183C74.3161 174.369 74.2987 174.555 74.3243 174.742C74.3464 174.931 74.4234 175.102 74.5554 175.255C74.6874 175.409 74.8869 175.529 75.1537 175.615L76.3748 176.012L78.0249 170.934L79.0398 171.263L77.127 177.15L74.891 176.424C74.4354 176.276 74.0749 176.069 73.8094 175.804C73.5403 175.541 73.3682 175.241 73.293 174.903C73.217 174.569 73.2376 174.221 73.355 173.86C73.4785 173.479 73.668 173.18 73.9236 172.963C74.1792 172.745 74.491 172.615 74.8591 172.574C75.2244 172.531 75.6349 172.584 76.0905 172.732Z" fill="#DDDDDD"/>
<path d="M67.9528 167.898L68.2969 167.125L71.136 168.39L70.7919 169.162L67.9528 167.898ZM68.3464 173.923L70.8642 168.268L71.839 168.703L69.3213 174.357L68.3464 173.923Z" fill="#DDDDDD"/>
<path d="M60.2179 163.661L60.6409 162.928L63.487 164.571L63.064 165.304L60.2179 163.661ZM60.1305 169.781L63.2256 164.42L64.1497 164.954L61.0547 170.314L60.1305 169.781ZM59.2102 166.265L59.6268 165.543L62.101 166.972L61.6844 167.693L59.2102 166.265ZM57.5643 168.299L57.9895 167.563L60.8171 169.195L60.392 169.932L57.5643 168.299Z" fill="#DDDDDD"/>
<path d="M52.4878 164.757L56.1263 159.75L56.9827 160.372L53.3443 165.38L52.4878 164.757ZM50.916 163.615L51.4158 162.928L55.4021 165.824L54.9023 166.512L50.916 163.615Z" fill="#DDDDDD"/>
<path d="M48.0166 154.001L48.5827 153.372L51.0249 155.571L50.4588 156.2L48.0166 154.001ZM46.6586 159.97L50.8006 155.369L51.5936 156.083L47.4517 160.684L46.6586 159.97ZM46.4894 156.339L47.047 155.72L49.1701 157.631L48.6126 158.251L46.4894 156.339ZM44.4565 157.987L45.0255 157.355L47.4519 159.54L46.883 160.172L44.4565 157.987Z" fill="#DDDDDD"/>
<path d="M46.0247 150.656L46.9094 151.639L46.275 152.199L45.396 151.222C45.14 150.938 44.8635 150.756 44.5667 150.676C44.2679 150.594 43.9591 150.609 43.6402 150.721C43.3193 150.831 42.9988 151.03 42.6787 151.318L42.4291 151.543C42.1805 151.766 41.986 151.993 41.8456 152.222C41.7032 152.45 41.616 152.677 41.5841 152.904C41.5502 153.129 41.5707 153.351 41.6455 153.57C41.7185 153.786 41.8469 153.997 42.0309 154.201L42.9583 155.231L42.3264 155.8L41.399 154.77C41.124 154.464 40.9243 154.139 40.7999 153.793C40.6735 153.449 40.6236 153.1 40.6502 152.744C40.675 152.386 40.7766 152.037 40.955 151.697C41.1333 151.357 41.3878 151.039 41.7185 150.741L41.9618 150.522C42.2925 150.224 42.6361 150.004 42.9928 149.862C43.3494 149.72 43.707 149.656 44.0656 149.669C44.422 149.683 44.7676 149.773 45.1021 149.937C45.4327 150.101 45.7402 150.34 46.0247 150.656ZM41.9139 155.342L46.514 151.2L47.228 151.993L42.6279 156.135L41.9139 155.342Z" fill="#DDDDDD"/>
<path d="M34.4695 140.439L34.3258 140.521C34.095 140.655 33.8641 140.691 33.6331 140.632C33.4007 140.569 33.2122 140.413 33.0676 140.163C32.9216 139.91 32.8797 139.667 32.942 139.435C33.0043 139.202 33.1508 139.019 33.3816 138.886L33.5253 138.803C33.7537 138.671 33.984 138.636 34.2164 138.699C34.445 138.76 34.6322 138.917 34.7783 139.17C34.9229 139.42 34.9653 139.661 34.9055 139.892C34.8432 140.125 34.6979 140.307 34.4695 140.439Z" fill="#DDDDDD"/>
<path d="M27.9217 123.223L27.5933 122.213C27.9892 122.12 28.368 122.116 28.7294 122.201C29.0882 122.287 29.4077 122.468 29.6879 122.743C29.9682 123.019 30.1854 123.394 30.3395 123.868C30.4578 124.232 30.4995 124.581 30.4647 124.914C30.4272 125.248 30.3222 125.558 30.1497 125.843C29.9746 126.13 29.7338 126.384 29.4274 126.605C29.1201 126.825 28.7548 127.003 28.3316 127.14L27.8424 127.299C27.4192 127.437 27.0184 127.506 26.6402 127.507C26.2611 127.505 25.9161 127.438 25.6051 127.306C25.2915 127.176 25.0223 126.985 24.7974 126.733C24.5717 126.479 24.3988 126.167 24.2789 125.797C24.1265 125.328 24.084 124.904 24.1514 124.525C24.2188 124.145 24.3759 123.817 24.6227 123.54C24.8686 123.26 25.1818 123.036 25.5622 122.868L25.8906 123.879C25.646 123.988 25.4483 124.118 25.2975 124.268C25.1458 124.416 25.0512 124.593 25.0138 124.799C24.9737 125.005 24.9996 125.25 25.0916 125.533C25.1669 125.765 25.2757 125.953 25.418 126.098C25.5603 126.242 25.7339 126.345 25.9387 126.407C26.1435 126.468 26.3781 126.489 26.6427 126.469C26.9037 126.446 27.1905 126.385 27.5032 126.283L28.0005 126.121C28.297 126.025 28.5583 125.912 28.7842 125.782C29.0066 125.65 29.1866 125.502 29.324 125.338C29.4607 125.172 29.5485 124.988 29.5877 124.788C29.6269 124.587 29.6079 124.368 29.5308 124.131C29.4371 123.843 29.3155 123.624 29.1661 123.476C29.0158 123.325 28.8381 123.233 28.6331 123.198C28.4246 123.161 28.1874 123.17 27.9217 123.223Z" fill="#DDDDDD"/>
<path d="M24.4145 114.249L24.7472 114.178C25.2047 114.081 25.6276 114.054 26.0161 114.096C26.4047 114.138 26.75 114.242 27.0522 114.41C27.3538 114.575 27.6053 114.797 27.8065 115.075C28.005 115.355 28.144 115.682 28.2236 116.056C28.3025 116.428 28.3082 116.781 28.2405 117.117C28.1695 117.451 28.0303 117.757 27.823 118.036C27.6157 118.315 27.3437 118.555 27.007 118.757C26.6698 118.956 26.2724 119.105 25.815 119.202L25.4823 119.273C25.0249 119.37 24.603 119.396 24.2167 119.35C23.8276 119.306 23.4819 119.199 23.1797 119.032C22.8741 118.862 22.6224 118.639 22.4245 118.362C22.2233 118.083 22.0832 117.758 22.0042 117.387C21.9246 117.012 21.9201 116.657 21.9905 116.32C22.0582 115.984 22.1974 115.678 22.408 115.401C22.616 115.125 22.8888 114.889 23.2267 114.693C23.5611 114.494 23.9571 114.346 24.4145 114.249ZM24.9691 115.222L24.6281 115.295C24.2899 115.367 23.9989 115.463 23.7552 115.585C23.5082 115.704 23.3109 115.846 23.1633 116.01C23.0124 116.173 22.912 116.355 22.8622 116.557C22.8096 116.759 22.8078 116.975 22.8567 117.205C22.9056 117.436 22.995 117.631 23.1247 117.792C23.2518 117.953 23.4175 118.079 23.6221 118.169C23.8233 118.256 24.0612 118.306 24.336 118.317C24.6079 118.328 24.913 118.298 25.2512 118.226L25.5922 118.154C25.9305 118.082 26.2228 117.985 26.4693 117.863C26.7157 117.741 26.9155 117.597 27.0686 117.432C27.2183 117.264 27.3198 117.08 27.373 116.88C27.4234 116.681 27.4241 116.466 27.3752 116.236C27.3257 116.003 27.2375 115.806 27.1105 115.645C26.9807 115.484 26.8138 115.36 26.6098 115.273C26.4031 115.187 26.1627 115.139 25.8885 115.131C25.6138 115.12 25.3073 115.15 24.9691 115.222Z" fill="#DDDDDD"/>
<path d="M21.0172 111.373L20.9176 110.426L25.4787 108.147L20.5439 106.87L20.4443 105.923L26.8476 107.627L26.9267 108.38L21.0172 111.373ZM21.0625 111.805L20.9678 110.904L25.0611 110.316L27.1076 110.101L27.2187 111.158L21.0625 111.805ZM20.4937 106.393L20.3986 105.488L26.5547 104.841L26.6663 105.902L24.6199 106.117L20.4937 106.393Z" fill="#DDDDDD"/>
<path d="M24.2248 100.225L24.2248 101.836L23.3788 101.836L23.3788 100.225C23.3788 99.9445 23.3334 99.7178 23.2427 99.5449C23.152 99.372 23.0273 99.2459 22.8686 99.1665C22.707 99.0843 22.5228 99.0432 22.3159 99.0432C22.1204 99.0432 21.9375 99.0843 21.7675 99.1665C21.5946 99.2459 21.4557 99.372 21.3508 99.5449C21.246 99.7178 21.1935 99.9445 21.1935 100.225L21.1935 101.509L26.5333 101.509L26.5333 102.576L20.3433 102.576L20.3433 100.225C20.3433 99.7461 20.4283 99.3394 20.5983 99.005C20.7656 98.6677 20.998 98.4112 21.2956 98.2355C21.5903 98.0598 21.9276 97.9719 22.3074 97.9719C22.707 97.9719 23.05 98.0598 23.3363 98.2355C23.6225 98.4112 23.8422 98.6677 23.9952 99.005C24.1483 99.3394 24.2248 99.7461 24.2248 100.225Z" fill="#DDDDDD"/>
<path d="M26.3065 90.9936L27.1479 91.082L26.823 94.1728L25.9816 94.0843L26.3065 90.9936ZM20.698 93.2298L26.8541 93.8768L26.7426 94.9381L20.5864 94.291L20.698 93.2298Z" fill="#DDDDDD"/>
<path d="M27.95 82.3277L28.7775 82.5036L28.0943 85.7181L27.2667 85.5422L27.95 82.3277ZM22.1022 84.1359L28.157 85.4229L27.9352 86.4667L21.8804 85.1797L22.1022 84.1359ZM25.1618 82.1741L25.9769 82.3473L25.3829 85.1418L24.5679 84.9686L25.1618 82.1741ZM22.7183 81.2374L23.55 81.4142L22.8712 84.6079L22.0395 84.4312L22.7183 81.2374Z" fill="#DDDDDD"/>
<path d="M24.517 75.3139L30.4041 77.2268L30.077 78.2335L24.1899 76.3207L24.517 75.3139ZM25.1174 73.4661L25.926 73.7289L24.4034 78.4151L23.5947 78.1523L25.1174 73.4661Z" fill="#DDDDDD"/>
<path d="M33.3634 67.7399L34.1363 68.084L32.7997 71.0862L32.0268 70.7421L33.3634 67.7399ZM27.2675 68.2927L32.9224 70.8105L32.4884 71.7853L26.8335 69.2676L27.2675 68.2927ZM30.6682 67.0099L31.4294 67.3488L30.2674 69.9588L29.5061 69.6198L30.6682 67.0099ZM28.4728 65.5857L29.2496 65.9315L27.9215 68.9143L27.1448 68.5685L28.4728 65.5857Z" fill="#DDDDDD"/>
<path d="M35.9298 64.8091L35.2688 65.9541L34.5403 65.5238L35.1972 64.3861C35.3885 64.0547 35.4762 63.7355 35.4603 63.4286C35.4459 63.1191 35.3363 62.83 35.1315 62.5612C34.9281 62.29 34.6398 62.0467 34.2667 61.8313L33.9759 61.6633C33.6862 61.4961 33.4106 61.3811 33.149 61.3185C32.8888 61.2533 32.6457 61.2406 32.4198 61.2804C32.1954 61.3177 31.9907 61.4058 31.8059 61.5445C31.6225 61.6808 31.4621 61.868 31.3246 62.1061L30.6316 63.3064L29.8952 62.8812L30.5882 61.6809C30.7937 61.325 31.0416 61.0345 31.3319 60.8094C31.6198 60.5829 31.9371 60.4273 32.2837 60.3427C32.6318 60.2557 32.995 60.2445 33.3734 60.3091C33.7517 60.3737 34.1335 60.5173 34.5189 60.7398L34.8024 60.9034C35.1878 61.1259 35.503 61.3848 35.7481 61.6802C35.9933 61.9755 36.1652 62.2957 36.2638 62.6406C36.36 62.9842 36.3818 63.3404 36.3292 63.7093C36.2755 64.0743 36.1424 64.4409 35.9298 64.8091ZM30.2035 62.3473L35.5642 65.4424L35.0307 66.3665L29.6699 63.2715L30.2035 62.3473Z" fill="#DDDDDD"/>
<path d="M42.0785 50.6614L41.9552 50.5504C41.7571 50.3721 41.6509 50.1638 41.6364 49.9257C41.6238 49.6854 41.7142 49.4578 41.9078 49.2429C42.1032 49.0258 42.321 48.911 42.5613 48.8984C42.8016 48.8858 43.0207 48.9687 43.2188 49.1471L43.3421 49.2581C43.538 49.4345 43.6423 49.6429 43.6549 49.8831C43.6673 50.1194 43.5758 50.346 43.3804 50.5631C43.1868 50.778 42.971 50.8927 42.7328 50.9072C42.4926 50.9198 42.2744 50.8379 42.0785 50.6614Z" fill="#DDDDDD"/>
<path d="M56.4252 39.1159L57.2851 38.4912C57.4958 38.8391 57.6165 39.1981 57.6472 39.5682C57.6762 39.936 57.603 40.2957 57.4276 40.6474C57.2521 40.999 56.9627 41.3215 56.5591 41.6147C56.2495 41.8396 55.931 41.987 55.6033 42.0568C55.2741 42.1244 54.947 42.1203 54.6222 42.0445C54.2957 41.9664 53.9797 41.8159 53.6741 41.593C53.3708 41.3684 53.0884 41.0761 52.8268 40.7161L52.5244 40.2999C52.2629 39.9399 52.0733 39.5802 51.9558 39.2207C51.8405 38.8595 51.7973 38.5108 51.8262 38.1744C51.8535 37.8358 51.9521 37.5207 52.1221 37.2291C52.2943 36.9357 52.5375 36.675 52.8517 36.4467C53.2506 36.1569 53.641 35.9853 54.0228 35.9322C54.4046 35.879 54.7653 35.927 55.1048 36.0762C55.4467 36.2237 55.7565 36.4523 56.0341 36.7621L55.1742 37.3868C54.9947 37.1879 54.8101 37.04 54.6206 36.943C54.4333 36.8444 54.236 36.809 54.0286 36.8371C53.8196 36.8628 53.5947 36.9631 53.3539 37.1381C53.1567 37.2813 53.0114 37.443 52.918 37.623C52.8245 37.803 52.7802 37.9999 52.7849 38.2137C52.7896 38.4275 52.8425 38.657 52.9436 38.9023C53.0454 39.1437 53.1929 39.3974 53.3862 39.6633L53.6935 40.0864C53.8768 40.3386 54.0652 40.5521 54.2587 40.7268C54.4528 40.8976 54.649 41.023 54.8474 41.1031C55.048 41.1816 55.2497 41.2084 55.4525 41.1837C55.6552 41.159 55.8575 41.0734 56.0593 40.9268C56.3047 40.7485 56.4747 40.5654 56.5694 40.3775C56.6664 40.1879 56.6997 39.9903 56.6694 39.7846C56.6397 39.575 56.5583 39.3521 56.4252 39.1159Z" fill="#DDDDDD"/>
<path d="M63.8779 33.0076L64.048 33.3022C64.2818 33.7072 64.4388 34.1009 64.5189 34.4834C64.599 34.8659 64.6061 35.2267 64.5401 35.5659C64.4765 35.9037 64.3433 36.2114 64.1402 36.4889C63.9358 36.7641 63.6679 36.9973 63.3365 37.1886C63.0076 37.3785 62.6729 37.4932 62.3325 37.5327C61.993 37.5683 61.6587 37.5306 61.3295 37.4195C61.0003 37.3085 60.6877 37.1241 60.3916 36.8663C60.0979 36.6071 59.8342 36.275 59.6004 35.87L59.4303 35.5755C59.1965 35.1705 59.0414 34.7773 58.9652 34.3958C58.8876 34.0119 58.8817 33.6504 58.9477 33.3112C59.0148 32.9681 59.1493 32.6597 59.3512 32.386C59.5542 32.1085 59.8202 31.8747 60.1491 31.6848C60.4805 31.4935 60.8171 31.3793 61.159 31.3423C61.4995 31.3028 61.8338 31.3405 62.162 31.4554C62.4887 31.5679 62.7977 31.7544 63.0889 32.015C63.3811 32.2718 63.6441 32.6026 63.8779 33.0076ZM63.1239 33.8357L62.9496 33.5338C62.7767 33.2344 62.5949 32.9875 62.4042 32.7932C62.2145 32.5951 62.0186 32.4513 61.8164 32.3619C61.6152 32.2686 61.411 32.2294 61.2036 32.2444C60.9949 32.2569 60.7886 32.322 60.5849 32.4396C60.3812 32.5572 60.2229 32.7026 60.1101 32.8757C59.9959 33.0464 59.9277 33.2428 59.9055 33.4651C59.8843 33.6835 59.9109 33.9251 59.9852 34.1898C60.0581 34.4521 60.181 34.733 60.3539 35.0324L60.5282 35.3344C60.7011 35.6338 60.8836 35.8819 61.0757 36.0786C61.2678 36.2753 61.4664 36.4209 61.6714 36.5152C61.8775 36.6057 62.0837 36.6454 62.29 36.6343C62.4949 36.6207 62.6992 36.5551 62.9029 36.4375C63.1091 36.3185 63.2693 36.1736 63.3835 36.003C63.4962 35.8298 63.5625 35.6328 63.5823 35.412C63.6006 35.1887 63.5714 34.9453 63.4947 34.682C63.4204 34.4173 63.2968 34.1352 63.1239 33.8357Z" fill="#DDDDDD"/>
<path d="M65.5631 28.8881L66.4331 28.5007L70.0101 32.1343L69.6995 27.0465L70.5694 26.6591L70.9277 33.2755L70.2364 33.5833L65.5631 28.8881ZM65.167 29.0645L65.9943 28.6961L67.8187 32.4073L68.6557 34.2871L67.6847 34.7194L65.167 29.0645ZM70.1383 26.8511L70.9695 26.481L73.4872 32.1359L72.5124 32.57L71.6754 30.6902L70.1383 26.8511Z" fill="#DDDDDD"/>
<path d="M77.1556 28.4944L75.6232 28.9923L75.3618 28.1876L76.8942 27.6897C77.1611 27.603 77.3627 27.4898 77.4991 27.3501C77.6355 27.2105 77.7169 27.0529 77.7433 26.8774C77.7716 26.6984 77.7537 26.5104 77.6898 26.3137C77.6294 26.1277 77.5338 25.9665 77.4031 25.8302C77.2742 25.6903 77.1113 25.5972 76.9145 25.5509C76.7176 25.5045 76.4858 25.5247 76.2189 25.6115L74.9978 26.0082L76.6479 31.0866L75.633 31.4164L73.7202 25.5293L75.9562 24.8028C76.4117 24.6548 76.8248 24.61 77.1954 24.6683C77.5679 24.7232 77.8837 24.8649 78.1427 25.0937C78.401 25.3197 78.5887 25.6133 78.7061 25.9745C78.8296 26.3546 78.852 26.7079 78.7733 27.0345C78.6947 27.361 78.5186 27.6492 78.2451 27.899C77.9744 28.1479 77.6112 28.3463 77.1556 28.4944Z" fill="#DDDDDD"/>
<path d="M86.5799 27.6203L86.7558 28.4479L83.7159 29.094L83.54 28.2665L86.5799 27.6203ZM82.7201 22.9774L84.007 29.0321L82.9633 29.254L81.6763 23.1992L82.7201 22.9774Z" fill="#DDDDDD"/>
<path d="M95.3297 26.5045L95.4181 27.3459L92.1498 27.6894L92.0614 26.848L95.3297 26.5045ZM91.803 21.5017L92.45 27.6579L91.3887 27.7694L90.7417 21.6133L91.803 21.5017ZM94.6143 23.8054L94.7014 24.6341L91.8601 24.9327L91.773 24.104L94.6143 23.8054ZM94.75 21.192L94.8388 22.0376L91.5916 22.3789L91.5028 21.5333L94.75 21.192Z" fill="#DDDDDD"/>
<path d="M100.939 21.0742L100.939 27.2643L99.88 27.2643L99.88 21.0742L100.939 21.0742ZM102.881 21.0742L102.881 21.9245L97.9541 21.9245L97.9541 21.0742L102.881 21.0742Z" fill="#DDDDDD"/>
<path d="M110.877 27.1465L110.788 27.9879L107.52 27.6443L107.608 26.8029L110.877 27.1465ZM108.467 21.5197L107.82 27.6759L106.759 27.5644L107.406 21.4082L108.467 21.5197ZM110.738 24.3575L110.651 25.1862L107.81 24.8876L107.897 24.0589L110.738 24.3575ZM111.414 21.8295L111.325 22.6751L108.078 22.3338L108.167 21.4882L111.414 21.8295Z" fill="#DDDDDD"/>
<path d="M114.455 28.6806L113.162 28.4057L113.346 27.58L114.631 27.8531C115.005 27.9327 115.336 27.9175 115.623 27.8075C115.913 27.6982 116.154 27.5046 116.346 27.2267C116.541 26.9494 116.684 26.6001 116.773 26.1787L116.843 25.8502C116.913 25.5231 116.937 25.2254 116.915 24.9572C116.897 24.6896 116.834 24.4545 116.726 24.252C116.621 24.0501 116.474 23.8826 116.285 23.7497C116.099 23.6174 115.872 23.5227 115.603 23.4655L114.247 23.1774L114.424 22.3456L115.779 22.6338C116.181 22.7193 116.534 22.8653 116.838 23.0718C117.142 23.2756 117.388 23.5293 117.576 23.8328C117.766 24.137 117.889 24.4789 117.945 24.8587C118 25.2385 117.982 25.646 117.889 26.0813L117.821 26.4015C117.729 26.8367 117.58 27.2165 117.375 27.5409C117.169 27.8653 116.918 28.1277 116.621 28.3282C116.324 28.5258 115.991 28.6566 115.624 28.7206C115.261 28.7823 114.871 28.769 114.455 28.6806ZM115.027 22.4738L113.74 28.5286L112.696 28.3067L113.983 22.252L115.027 22.4738Z" fill="#DDDDDD"/>
<path d="M129.81 30.1569L129.878 30.0053C129.986 29.7618 130.151 29.5964 130.373 29.509C130.598 29.4228 130.843 29.4385 131.107 29.5561C131.374 29.6749 131.55 29.8466 131.636 30.0713C131.723 30.2959 131.711 30.5299 131.603 30.7734L131.536 30.9249C131.428 31.1658 131.262 31.3294 131.038 31.4156C130.817 31.5004 130.573 31.4834 130.306 31.3646C130.042 31.247 129.866 31.0772 129.779 30.8551C129.693 30.6305 129.703 30.3978 129.81 30.1569Z" fill="#DDDDDD"/>
<path d="M145.226 40.2358L146.085 40.8605C145.82 41.1684 145.516 41.3941 145.173 41.5376C144.832 41.6789 144.467 41.7204 144.079 41.6623C143.69 41.6041 143.294 41.4284 142.89 41.1352C142.581 40.9103 142.342 40.6529 142.175 40.3629C142.009 40.0706 141.911 39.7583 141.883 39.4259C141.857 39.0913 141.902 38.7442 142.02 38.3847C142.139 38.0268 142.33 37.6679 142.592 37.3079L142.894 36.8917C143.156 36.5317 143.439 36.2403 143.745 36.0174C144.053 35.7962 144.371 35.6473 144.7 35.5709C145.03 35.4922 145.36 35.4886 145.69 35.5601C146.022 35.6333 146.346 35.784 146.66 36.0122C147.059 36.3021 147.342 36.6204 147.511 36.9671C147.68 37.3137 147.745 37.6716 147.708 38.0406C147.674 38.4114 147.552 38.7766 147.343 39.1364L146.483 38.5116C146.617 38.2794 146.701 38.0582 146.734 37.8479C146.77 37.6393 146.743 37.4408 146.652 37.2522C146.563 37.0614 146.398 36.8785 146.157 36.7036C145.96 36.5603 145.762 36.4721 145.562 36.4388C145.362 36.4056 145.161 36.4242 144.959 36.4947C144.757 36.5653 144.555 36.6865 144.353 36.8585C144.155 37.0299 143.959 37.2486 143.766 37.5146L143.458 37.9376C143.275 38.1899 143.13 38.435 143.024 38.673C142.922 38.9104 142.863 39.1358 142.848 39.3492C142.835 39.5642 142.872 39.7644 142.958 39.9496C143.044 40.1348 143.188 40.3007 143.39 40.4473C143.636 40.6256 143.862 40.7307 144.07 40.7627C144.28 40.7963 144.479 40.767 144.665 40.6746C144.855 40.5815 145.042 40.4353 145.226 40.2358Z" fill="#DDDDDD"/>
<path d="M153.339 45.4331L153.111 45.6858C152.798 46.0334 152.472 46.3043 152.133 46.4987C151.794 46.6931 151.453 46.8113 151.11 46.8534C150.769 46.8973 150.435 46.8656 150.109 46.7583C149.784 46.6489 149.479 46.4662 149.195 46.2102C148.913 45.956 148.7 45.6732 148.557 45.3616C148.419 45.0497 148.351 44.7201 148.355 44.3727C148.359 44.0253 148.438 43.671 148.591 43.3097C148.747 42.9504 148.982 42.5969 149.294 42.2494L149.522 41.9966C149.835 41.6491 150.161 41.3801 150.5 41.1898C150.841 40.9973 151.183 40.88 151.526 40.838C151.873 40.7957 152.208 40.8283 152.531 40.9358C152.858 41.0431 153.162 41.2239 153.444 41.478C153.729 41.734 153.941 42.0189 154.082 42.3326C154.225 42.6442 154.292 42.9738 154.285 43.3214C154.279 43.6669 154.197 44.0184 154.039 44.3759C153.885 44.7332 153.652 45.0856 153.339 45.4331ZM152.318 44.9718L152.551 44.7127C152.783 44.4558 152.961 44.2066 153.087 43.9652C153.217 43.7236 153.293 43.4928 153.316 43.2729C153.342 43.0527 153.316 42.8464 153.238 42.6538C153.162 42.4591 153.036 42.2831 152.861 42.1257C152.686 41.9683 152.499 41.8627 152.3 41.8089C152.102 41.753 151.894 41.7489 151.676 41.7965C151.462 41.8438 151.24 41.9437 151.011 42.0962C150.784 42.2466 150.555 42.4502 150.324 42.7072L150.091 42.9663C149.859 43.2232 149.68 43.4735 149.552 43.717C149.424 43.9605 149.347 44.1943 149.321 44.4185C149.298 44.6424 149.324 44.8507 149.399 45.0435C149.475 45.2342 149.6 45.4082 149.775 45.5657C149.952 45.725 150.14 45.8325 150.337 45.8884C150.537 45.9422 150.744 45.9443 150.961 45.8949C151.179 45.8433 151.401 45.7403 151.628 45.586C151.857 45.4335 152.087 45.2288 152.318 44.9718Z" fill="#DDDDDD"/>
<path d="M157.777 45.7656L158.415 46.4733L156.064 50.9981L160.807 49.1304L161.444 49.8381L155.263 52.2234L154.756 51.6611L157.777 45.7656ZM157.487 45.4434L158.093 46.1163L155.128 48.9983L153.598 50.3752L152.887 49.5853L157.487 45.4434ZM161.129 49.4874L161.737 50.1635L157.137 54.3055L156.423 53.5125L157.952 52.1356L161.129 49.4874Z" fill="#DDDDDD"/>
<path d="M161.733 56.6679L160.786 55.3644L161.471 54.8671L162.418 56.1706C162.583 56.3976 162.753 56.5544 162.928 56.641C163.103 56.7275 163.278 56.7563 163.453 56.7272C163.632 56.6987 163.805 56.6237 163.972 56.5021C164.131 56.3871 164.254 56.2464 164.344 56.08C164.437 55.9141 164.475 55.7305 164.458 55.529C164.441 55.3274 164.351 55.1132 164.186 54.8862L163.431 53.8475L159.111 56.9861L158.484 56.1228L163.492 52.4844L164.874 54.3864C165.155 54.7739 165.325 55.1529 165.384 55.5235C165.447 55.8946 165.41 56.2387 165.273 56.5558C165.137 56.8713 164.916 57.1406 164.609 57.3638C164.286 57.5987 163.957 57.7292 163.622 57.7553C163.287 57.7814 162.958 57.703 162.636 57.5201C162.316 57.3395 162.015 57.0554 161.733 56.6679Z" fill="#DDDDDD"/>
<path d="M165.477 65.3619L164.744 65.7849L163.19 63.0935L163.923 62.6705L165.477 65.3619ZM168.7 60.2562L163.339 63.3512L162.805 62.4271L168.166 59.332L168.7 60.2562Z" fill="#DDDDDD"/>
<path d="M169.242 73.3378L168.469 73.6819L167.132 70.6797L167.905 70.3356L169.242 73.3378ZM172.91 68.4377L167.255 70.9555L166.821 69.9806L172.476 67.4629L172.91 68.4377ZM171.587 71.8233L170.826 72.1622L169.664 69.5523L170.425 69.2133L171.587 71.8233ZM174.115 71.1448L173.338 71.4906L172.01 68.5078L172.787 68.162L174.115 71.1448Z" fill="#DDDDDD"/>
<path d="M176.14 76.9927L170.252 78.9056L169.925 77.8988L175.812 75.9859L176.14 76.9927ZM176.74 78.8405L175.931 79.1033L174.409 74.417L175.217 74.1543L176.74 78.8405Z" fill="#DDDDDD"/>
<path d="M173.436 88.3241L172.608 88.5L171.925 85.2855L172.753 85.1096L173.436 88.3241ZM178.043 84.2938L171.988 85.5808L171.766 84.537L177.821 83.25L178.043 84.2938ZM176.046 87.3305L175.23 87.5037L174.636 84.7092L175.452 84.536L176.046 87.3305ZM178.659 87.1923L177.827 87.3691L177.148 84.1753L177.98 83.9985L178.659 87.1923Z" fill="#DDDDDD"/>
<path d="M173.081 92.2012L172.943 90.8862L173.785 90.8062L173.923 92.1127C173.963 92.4933 174.079 92.803 174.272 93.0421C174.466 93.2839 174.725 93.4534 175.048 93.5504C175.372 93.6503 175.749 93.6778 176.177 93.6327L176.511 93.5976C176.844 93.5627 177.134 93.4937 177.383 93.3906C177.631 93.2903 177.836 93.1577 177.995 92.9928C178.155 92.8307 178.268 92.6392 178.336 92.4183C178.405 92.2002 178.424 91.9545 178.396 91.6811L178.251 90.3027L179.096 90.2138L179.241 91.5922C179.284 92.0009 179.254 92.3816 179.152 92.7344C179.052 93.0869 178.887 93.3992 178.656 93.6714C178.426 93.9464 178.138 94.169 177.794 94.3391C177.45 94.5092 177.057 94.6175 176.615 94.664L176.289 94.6982C175.846 94.7447 175.439 94.7206 175.067 94.6257C174.695 94.5308 174.368 94.3729 174.086 94.1518C173.806 93.9304 173.579 93.655 173.405 93.3257C173.233 92.9988 173.126 92.624 173.081 92.2012ZM179.161 90.8269L173.005 91.4739L172.893 90.4127L179.049 89.7656L179.161 90.8269Z" fill="#DDDDDD"/>
<path d="M176.423 107.257L176.588 107.274C176.853 107.302 177.061 107.408 177.213 107.592C177.365 107.779 177.425 108.016 177.395 108.304C177.364 108.594 177.256 108.815 177.069 108.967C176.882 109.118 176.656 109.18 176.391 109.152L176.226 109.135C175.963 109.107 175.757 109 175.605 108.813C175.456 108.629 175.397 108.392 175.428 108.101C175.458 107.814 175.565 107.594 175.749 107.442C175.936 107.291 176.161 107.229 176.423 107.257Z" fill="#DDDDDD"/>
<path d="M171.603 125.034L171.274 126.045C170.899 125.888 170.591 125.668 170.348 125.387C170.109 125.106 169.956 124.772 169.892 124.385C169.827 123.997 169.871 123.566 170.026 123.092C170.144 122.728 170.315 122.421 170.539 122.172C170.766 121.924 171.033 121.735 171.34 121.605C171.65 121.477 171.994 121.413 172.372 121.413C172.75 121.417 173.15 121.487 173.573 121.625L174.062 121.784C174.486 121.921 174.85 122.101 175.157 122.323C175.462 122.547 175.702 122.804 175.877 123.093C176.054 123.383 176.159 123.696 176.193 124.032C176.226 124.37 176.183 124.724 176.063 125.093C175.91 125.562 175.695 125.931 175.418 126.198C175.14 126.465 174.82 126.639 174.458 126.717C174.094 126.799 173.709 126.796 173.303 126.709L173.631 125.698C173.893 125.753 174.129 125.765 174.34 125.732C174.549 125.701 174.73 125.614 174.881 125.469C175.035 125.326 175.158 125.112 175.25 124.829C175.325 124.597 175.348 124.381 175.318 124.181C175.287 123.98 175.207 123.795 175.078 123.625C174.949 123.454 174.771 123.3 174.545 123.161C174.321 123.025 174.052 122.907 173.739 122.805L173.242 122.644C172.946 122.547 172.668 122.485 172.408 122.458C172.151 122.434 171.919 122.447 171.711 122.499C171.503 122.554 171.324 122.651 171.174 122.79C171.025 122.929 170.911 123.117 170.834 123.354C170.74 123.643 170.711 123.891 170.744 124.098C170.777 124.309 170.867 124.488 171.012 124.637C171.159 124.789 171.356 124.922 171.603 125.034Z" fill="#DDDDDD"/>
<path d="M169.165 134.356L168.854 134.218C168.427 134.028 168.068 133.801 167.779 133.539C167.489 133.277 167.271 132.989 167.125 132.676C166.978 132.365 166.905 132.038 166.906 131.694C166.91 131.351 166.99 131.005 167.145 130.655C167.3 130.308 167.503 130.019 167.755 129.787C168.009 129.559 168.302 129.393 168.633 129.289C168.965 129.185 169.326 129.151 169.717 129.185C170.107 129.222 170.516 129.336 170.943 129.526L171.254 129.664C171.681 129.855 172.037 130.082 172.323 130.345C172.612 130.61 172.829 130.899 172.975 131.213C173.122 131.53 173.195 131.858 173.192 132.198C173.191 132.542 173.113 132.888 172.959 133.235C172.803 133.584 172.598 133.874 172.343 134.105C172.091 134.337 171.798 134.503 171.465 134.603C171.135 134.704 170.775 134.735 170.387 134.695C169.999 134.659 169.592 134.546 169.165 134.356ZM169.288 133.243L169.607 133.385C169.922 133.525 170.215 133.618 170.483 133.663C170.753 133.712 170.996 133.713 171.212 133.667C171.43 133.624 171.618 133.536 171.777 133.402C171.938 133.269 172.067 133.095 172.163 132.88C172.258 132.665 172.301 132.455 172.291 132.248C172.283 132.043 172.222 131.844 172.11 131.651C171.998 131.462 171.835 131.282 171.619 131.112C171.406 130.942 171.142 130.787 170.826 130.647L170.507 130.505C170.191 130.364 169.898 130.271 169.627 130.224C169.356 130.178 169.11 130.177 168.888 130.221C168.668 130.269 168.478 130.358 168.318 130.489C168.16 130.62 168.033 130.793 167.938 131.008C167.841 131.226 167.796 131.437 167.804 131.642C167.815 131.849 167.877 132.047 167.991 132.237C168.107 132.429 168.274 132.608 168.491 132.776C168.706 132.947 168.972 133.102 169.288 133.243Z" fill="#DDDDDD"/>
<path d="M170.222 138.68L169.746 139.505L164.716 138.668L167.958 142.601L167.482 143.426L163.303 138.284L163.682 137.629L170.222 138.68ZM170.439 138.305L169.986 139.089L166.329 137.159L164.547 136.13L165.078 135.21L170.439 138.305ZM167.718 143.017L167.263 143.805L161.902 140.71L162.436 139.786L164.218 140.815L167.718 143.017Z" fill="#DDDDDD"/>
<path d="M161.076 145.812L162.023 144.508L162.707 145.006L161.76 146.309C161.595 146.536 161.498 146.746 161.47 146.939C161.442 147.133 161.469 147.308 161.55 147.466C161.633 147.627 161.758 147.768 161.925 147.89C162.083 148.005 162.255 148.079 162.441 148.113C162.628 148.15 162.814 148.13 163.001 148.052C163.187 147.973 163.363 147.821 163.528 147.594L164.283 146.555L159.963 143.416L160.59 142.553L165.598 146.191L164.216 148.093C163.934 148.481 163.626 148.76 163.292 148.931C162.959 149.105 162.62 149.176 162.276 149.143C161.934 149.112 161.61 148.985 161.302 148.762C160.979 148.527 160.753 148.254 160.625 147.944C160.497 147.633 160.47 147.297 160.544 146.934C160.617 146.573 160.794 146.199 161.076 145.812Z" fill="#DDDDDD"/>
<path d="M153.964 152.059L153.335 151.493L155.415 149.184L156.043 149.75L153.964 152.059ZM159.816 153.547L155.216 149.405L155.93 148.612L160.53 152.754L159.816 153.547Z" fill="#DDDDDD"/>
<path d="M147.541 158.105L146.975 157.476L149.417 155.277L149.983 155.906L147.541 158.105ZM153.335 160.079L149.193 155.479L149.986 154.765L154.128 159.365L153.335 160.079ZM149.706 159.868L149.149 159.249L151.272 157.337L151.83 157.956L149.706 159.868ZM151.133 162.062L150.564 161.43L152.99 159.245L153.559 159.877L151.133 162.062Z" fill="#DDDDDD"/>
<path d="M146.196 165.793L142.557 160.785L143.414 160.163L147.052 165.171L146.196 165.793ZM144.624 166.935L144.124 166.247L148.111 163.351L148.61 164.039L144.624 166.935Z" fill="#DDDDDD"/>
<path d="M134.587 166.724L134.164 165.991L137.01 164.348L137.433 165.081L134.587 166.724ZM139.843 169.86L136.748 164.499L137.673 163.965L140.768 169.326L139.843 169.86ZM136.338 168.899L135.922 168.177L138.396 166.749L138.812 167.47L136.338 168.899ZM137.277 171.341L136.852 170.605L139.68 168.972L140.105 169.709L137.277 171.341Z" fill="#DDDDDD"/>
<path d="M130.788 167.584L131.996 167.047L132.332 167.823L131.132 168.357C130.782 168.513 130.524 168.72 130.356 168.977C130.186 169.236 130.105 169.534 130.112 169.872C130.117 170.211 130.208 170.577 130.383 170.971L130.519 171.278C130.655 171.583 130.811 171.838 130.986 172.043C131.158 172.249 131.347 172.402 131.553 172.502C131.757 172.604 131.974 172.653 132.205 172.649C132.434 172.647 132.673 172.59 132.925 172.478L134.191 171.914L134.537 172.691L133.27 173.255C132.895 173.422 132.524 173.511 132.156 173.523C131.79 173.537 131.442 173.476 131.112 173.341C130.779 173.207 130.479 173.002 130.211 172.728C129.943 172.453 129.718 172.112 129.537 171.706L129.404 171.407C129.223 171 129.12 170.606 129.096 170.223C129.071 169.84 129.12 169.479 129.243 169.142C129.367 168.808 129.559 168.507 129.818 168.239C130.076 167.976 130.399 167.757 130.788 167.584ZM133.973 172.942L131.456 167.287L132.431 166.853L134.948 172.508L133.973 172.942Z" fill="#DDDDDD"/>
<path d="M117.498 175.418L117.533 175.58C117.588 175.841 117.552 176.072 117.424 176.273C117.293 176.475 117.086 176.606 116.803 176.666C116.517 176.727 116.273 176.692 116.072 176.561C115.87 176.43 115.741 176.234 115.686 175.973L115.651 175.811C115.596 175.553 115.635 175.323 115.766 175.121C115.894 174.923 116.102 174.793 116.387 174.732C116.67 174.672 116.912 174.706 117.114 174.835C117.315 174.966 117.444 175.16 117.498 175.418Z" fill="#DDDDDD"/>
<path d="M72.5558 58.3923C72.7774 57.7836 73.5458 57.6481 73.9622 58.1443L75.2788 59.7131C75.4284 59.8914 75.6402 60 75.866 60.0141L77.8526 60.138C78.4809 60.1772 78.8526 60.8971 78.533 61.4555L77.5222 63.221C77.4074 63.4216 77.3764 63.6632 77.4363 63.8906L77.9635 65.8917C78.1302 66.5246 77.5916 67.105 76.9776 66.9539L75.0364 66.4762C74.8159 66.422 74.5848 66.4627 74.3961 66.5891L72.7354 67.7019C72.2101 68.0539 71.5054 67.6927 71.4456 67.041L71.2566 64.9802C71.2352 64.7461 71.1234 64.5296 70.9469 64.3804L69.3932 63.067C68.9019 62.6517 69.005 61.8481 69.582 61.5963L71.4064 60.8004C71.6137 60.71 71.7757 60.5355 71.8553 60.3168L72.5558 58.3923Z" fill="#EFEFEF"/>
<path d="M90.583 51.0789C90.9213 50.1995 92.0739 49.9962 92.6926 50.7069L94.6486 52.9539C94.8709 53.2093 95.1872 53.3635 95.5252 53.3815L98.5002 53.5395C99.4411 53.5894 99.9906 54.6229 99.5059 55.4309L97.9733 57.9856C97.7991 58.2758 97.7501 58.6243 97.8375 58.9514L98.6066 61.8295C98.8498 62.7398 98.0368 63.5818 97.1185 63.3705L94.2153 62.7023C93.8854 62.6264 93.5388 62.6875 93.2548 62.8717L90.7551 64.4925C89.9645 65.0051 88.9126 64.492 88.8298 63.5534L88.5681 60.5858C88.5383 60.2486 88.3731 59.9379 88.1102 59.7247L85.7963 57.8482C85.0644 57.2547 85.2273 56.0957 86.0944 55.7269L88.8359 54.561C89.1474 54.4285 89.3919 54.1754 89.5134 53.8594L90.583 51.0789Z" fill="#EFEFEF"/>
<path d="M110.727 51.6618C110.949 51.0532 111.717 50.9177 112.134 51.4138L113.45 52.9827C113.6 53.1609 113.812 53.2695 114.037 53.2836L116.024 53.4076C116.652 53.4468 117.024 54.1666 116.704 54.725L115.694 56.4905C115.579 56.6911 115.548 56.9327 115.608 57.1601L116.135 59.1612C116.302 59.7941 115.763 60.3745 115.149 60.2234L113.208 59.7458C112.987 59.6915 112.756 59.7322 112.568 59.8587L110.907 60.9715C110.381 61.3234 109.677 60.9623 109.617 60.3105L109.428 58.2497C109.407 58.0156 109.295 57.7992 109.118 57.6499L107.565 56.3366C107.073 55.9212 107.176 55.1176 107.753 54.8659L109.578 54.0699C109.785 53.9795 109.947 53.805 110.027 53.5863L110.727 51.6618Z" fill="#EFEFEF"/>
<path d="M87.0925 140.832C87.314 140.223 88.0825 140.088 88.4989 140.584L89.8154 142.153C89.965 142.331 90.1768 142.439 90.4026 142.454L92.3892 142.577C93.0175 142.617 93.3893 143.337 93.0696 143.895L92.0589 145.66C91.944 145.861 91.913 146.103 91.9729 146.33L92.5001 148.331C92.6669 148.964 92.1282 149.544 91.5142 149.393L89.573 148.916C89.3525 148.861 89.1214 148.902 88.9327 149.029L87.272 150.141C86.7467 150.493 86.042 150.132 85.9823 149.48L85.7933 147.42C85.7718 147.186 85.66 146.969 85.4835 146.82L83.9299 145.506C83.4385 145.091 83.5416 144.288 84.1186 144.036L85.943 143.24C86.1503 143.149 86.3123 142.975 86.3919 142.756L87.0925 140.832Z" fill="#EFEFEF"/>
<path d="M105.859 137.71C106.197 136.83 107.35 136.627 107.968 137.338L109.925 139.585C110.147 139.84 110.463 139.994 110.801 140.012L113.776 140.17C114.717 140.22 115.266 141.254 114.782 142.062L113.249 144.616C113.075 144.907 113.026 145.255 113.113 145.582L113.882 148.46C114.126 149.371 113.313 150.213 112.394 150.001L109.491 149.333C109.161 149.257 108.815 149.318 108.531 149.503L106.031 151.123C105.24 151.636 104.188 151.123 104.106 150.184L103.844 147.217C103.814 146.879 103.649 146.569 103.386 146.356L101.072 144.479C100.34 143.886 100.503 142.727 101.37 142.358L104.112 141.192C104.423 141.059 104.668 140.806 104.789 140.49L105.859 137.71Z" fill="#EFEFEF"/>
<path d="M125.264 134.101C125.485 133.493 126.254 133.357 126.67 133.853L127.987 135.422C128.136 135.6 128.348 135.709 128.574 135.723L130.561 135.847C131.189 135.886 131.561 136.606 131.241 137.164L130.23 138.93C130.115 139.131 130.084 139.372 130.144 139.6L130.672 141.601C130.838 142.234 130.3 142.814 129.686 142.663L127.744 142.185C127.524 142.131 127.293 142.172 127.104 142.298L125.443 143.411C124.918 143.763 124.213 143.402 124.154 142.75L123.965 140.689C123.943 140.455 123.831 140.239 123.655 140.089L122.101 138.776C121.61 138.361 121.713 137.557 122.29 137.305L124.114 136.509C124.322 136.419 124.484 136.244 124.563 136.026L125.264 134.101Z" fill="#EFEFEF"/>
</g>
<defs>
<clipPath id="clip0_15947_85815">
<rect width="200" height="200" fill="white" transform="translate(0 0.5)"/>
</clipPath>
</defs>
</svg>
